<svg width="24" height="24" viewBox="0 0 24 24" fill="none" xmlns="http://www.w3.org/2000/svg">
<path d="M11.856 8.568C13.392 8.64 13.788 9.948 13.812 10.56H15.96C15.864 8.184 14.172 6.732 11.82 6.732C9.168 6.732 7.2 8.4 7.2 12.168C7.2 14.496 8.316 17.256 11.808 17.256C14.472 17.256 15.9 15.276 15.936 13.716H13.788C13.752 14.424 13.248 15.372 11.832 15.444C10.26 15.396 9.6 14.172 9.6 12.168C9.6 8.7 11.136 8.592 11.856 8.568ZM12 0C5.376 0 0 5.376 0 12C0 18.624 5.376 24 12 24C18.624 24 24 18.624 24 12C24 5.376 18.624 0 12 0ZM12 21.6C6.708 21.6 2.4 17.292 2.4 12C2.4 6.708 6.708 2.4 12 2.4C17.292 2.4 21.6 6.708 21.6 12C21.6 17.292 17.292 21.6 12 21.6Z" fill="white"/>
</svg>
