<svg width="326" height="44" viewBox="0 0 326 44" fill="none" xmlns="http://www.w3.org/2000/svg">
<path d="M9.88 34.3C11.24 36.66 13.84 37.84 17.68 37.84C21.52 37.84 24.1 36.68 25.42 34.36C26.78 32.04 27.46 28.16 27.46 22.72C27.46 17.24 26.76 13.26 25.36 10.78C24 8.3 21.44 7.06 17.68 7.06C13.92 7.06 11.34 8.3 9.94 10.78C8.54 13.26 7.84 17.22 7.84 22.66C7.84 28.06 8.52 31.94 9.88 34.3ZM30.64 38.62C28.2 41.98 23.88 43.66 17.68 43.66C11.48 43.66 7.14 41.98 4.66 38.62C2.18 35.22 0.94 29.9 0.94 22.66C0.94 15.42 2.18 10.04 4.66 6.52C7.18 3 11.52 1.24 17.68 1.24C23.84 1.24 28.16 3 30.64 6.52C33.12 10 34.36 15.38 34.36 22.66C34.36 29.94 33.12 35.26 30.64 38.62ZM62.515 13H68.995V43H62.515V41.14C59.595 42.82 56.895 43.66 54.415 43.66C50.295 43.66 47.535 42.56 46.135 40.36C44.735 38.12 44.035 34.22 44.035 28.66V13H50.575V28.72C50.575 32.32 50.875 34.74 51.475 35.98C52.075 37.22 53.475 37.84 55.675 37.84C57.835 37.84 59.815 37.44 61.615 36.64L62.515 36.28V13ZM79.9131 43V13H86.3931V16.6C89.7931 14.4 93.1931 12.98 96.5931 12.34V18.88C93.1531 19.56 90.2131 20.44 87.7731 21.52L86.4531 22.06V43H79.9131ZM128.216 28.36V43H121.556V1.9H137.156C146.436 1.9 151.076 6.26 151.076 14.98C151.076 20.82 148.836 24.78 144.356 26.86L151.136 43H143.816L137.876 28.36H128.216ZM144.236 15.04C144.236 10.12 141.876 7.66 137.156 7.66H128.216V22.6H137.276C139.676 22.6 141.436 21.92 142.556 20.56C143.676 19.16 144.236 17.32 144.236 15.04ZM181.758 37.6L183.438 37.42L183.558 42.28C178.998 43.2 174.958 43.66 171.438 43.66C166.998 43.66 163.798 42.44 161.838 40C159.918 37.56 158.958 33.66 158.958 28.3C158.958 17.66 163.298 12.34 171.978 12.34C180.378 12.34 184.578 16.92 184.578 26.08L184.158 30.76H165.558C165.598 33.24 166.138 35.06 167.178 36.22C168.218 37.38 170.158 37.96 172.998 37.96C175.838 37.96 178.758 37.84 181.758 37.6ZM178.158 25.72C178.158 22.76 177.678 20.7 176.718 19.54C175.798 18.34 174.218 17.74 171.978 17.74C169.738 17.74 168.098 18.36 167.058 19.6C166.058 20.84 165.538 22.88 165.498 25.72H178.158ZM214.686 19.18C209.966 18.54 206.546 18.22 204.426 18.22C202.306 18.22 200.826 18.48 199.986 19C199.186 19.48 198.786 20.26 198.786 21.34C198.786 22.42 199.226 23.18 200.106 23.62C201.026 24.06 203.146 24.58 206.466 25.18C209.826 25.74 212.206 26.64 213.606 27.88C215.006 29.12 215.706 31.32 215.706 34.48C215.706 37.64 214.686 39.96 212.646 41.44C210.646 42.92 207.706 43.66 203.826 43.66C201.386 43.66 198.306 43.32 194.586 42.64L192.726 42.34L192.966 36.88C197.766 37.52 201.226 37.84 203.346 37.84C205.466 37.84 206.966 37.58 207.846 37.06C208.766 36.54 209.226 35.68 209.226 34.48C209.226 33.28 208.786 32.46 207.906 32.02C207.066 31.54 205.006 31.04 201.726 30.52C198.486 29.96 196.106 29.1 194.586 27.94C193.066 26.78 192.306 24.66 192.306 21.58C192.306 18.5 193.346 16.2 195.426 14.68C197.546 13.16 200.246 12.4 203.526 12.4C206.086 12.4 209.226 12.72 212.946 13.36L214.806 13.72L214.686 19.18ZM243.171 13H249.651V43H243.171V41.14C240.251 42.82 237.551 43.66 235.071 43.66C230.951 43.66 228.191 42.56 226.791 40.36C225.391 38.12 224.691 34.22 224.691 28.66V13H231.231V28.72C231.231 32.32 231.531 34.74 232.131 35.98C232.731 37.22 234.131 37.84 236.331 37.84C238.491 37.84 240.471 37.44 242.271 36.64L243.171 36.28V13ZM260.929 43V0.52H267.469V43H260.929ZM294.885 18.58H286.605V31.78C286.605 34.22 286.785 35.84 287.145 36.64C287.505 37.44 288.425 37.84 289.905 37.84L294.825 37.66L295.125 42.88C292.445 43.4 290.405 43.66 289.005 43.66C285.605 43.66 283.265 42.88 281.985 41.32C280.745 39.76 280.125 36.82 280.125 32.5V18.58H276.285V13H280.125V4.3H286.605V13H294.885V18.58ZM324.069 19.18C319.349 18.54 315.929 18.22 313.809 18.22C311.689 18.22 310.209 18.48 309.369 19C308.569 19.48 308.169 20.26 308.169 21.34C308.169 22.42 308.609 23.18 309.489 23.62C310.409 24.06 312.529 24.58 315.849 25.18C319.209 25.74 321.589 26.64 322.989 27.88C324.389 29.12 325.089 31.32 325.089 34.48C325.089 37.64 324.069 39.96 322.029 41.44C320.029 42.92 317.089 43.66 313.209 43.66C310.769 43.66 307.689 43.32 303.969 42.64L302.109 42.34L302.349 36.88C307.149 37.52 310.609 37.84 312.729 37.84C314.849 37.84 316.349 37.58 317.229 37.06C318.149 36.54 318.609 35.68 318.609 34.48C318.609 33.28 318.169 32.46 317.289 32.02C316.449 31.54 314.389 31.04 311.109 30.52C307.869 29.96 305.489 29.1 303.969 27.94C302.449 26.78 301.689 24.66 301.689 21.58C301.689 18.5 302.729 16.2 304.809 14.68C306.929 13.16 309.629 12.4 312.909 12.4C315.469 12.4 318.609 12.72 322.329 13.36L324.189 13.72L324.069 19.18Z" fill="#FF8D32"/>
</svg>
