<svg width="18" height="18" viewBox="0 0 18 18" fill="none" xmlns="http://www.w3.org/2000/svg">
<path d="M16.95 18C14.8 18 12.704 17.5207 10.662 16.562C8.62 15.6033 6.81167 14.3367 5.237 12.762C3.66233 11.1873 2.39567 9.379 1.437 7.337C0.478334 5.295 -0.000665972 3.19933 6.94927e-07 1.05C6.94927e-07 0.75 0.100001 0.5 0.300001 0.3C0.500001 0.0999999 0.750001 0 1.05 0H5.1C5.33333 0 5.54167 0.0749999 5.725 0.225C5.90833 0.375 6.01667 0.566667 6.05 0.8L6.7 4.3C6.73333 4.53333 6.729 4.746 6.687 4.938C6.645 5.13 6.54933 5.30067 6.4 5.45L3.975 7.9C4.675 9.1 5.55433 10.225 6.613 11.275C7.67167 12.325 8.834 13.2333 10.1 14L12.45 11.65C12.6 11.5 12.796 11.3873 13.038 11.312C13.28 11.2367 13.5173 11.216 13.75 11.25L17.2 11.95C17.4333 12 17.625 12.1127 17.775 12.288C17.925 12.4633 18 12.6673 18 12.9V16.95C18 17.25 17.9 17.5 17.7 17.7C17.5 17.9 17.25 18 16.95 18ZM3.025 6L4.675 4.35L4.25 2H2.025C2.10833 2.68333 2.225 3.35833 2.375 4.025C2.525 4.69167 2.74167 5.35 3.025 6ZM11.975 14.95C12.625 15.2333 13.2877 15.4583 13.963 15.625C14.6383 15.7917 15.3173 15.9 16 15.95V13.75L13.65 13.275L11.975 14.95Z" fill="#FCD444"/>
</svg>
