<svg width="50" height="50" viewBox="0 0 50 50" fill="none" xmlns="http://www.w3.org/2000/svg">
<path fill-rule="evenodd" clip-rule="evenodd" d="M45.732 30.5572C48.2197 36.5628 49.5 42.9996 49.5 49.5H36.9403C36.9403 29.0984 20.4016 12.5597 7.62939e-06 12.5597L0 0C6.50043 0 12.9372 1.28035 18.9428 3.76796C24.9484 6.25557 30.4053 9.90171 35.0018 14.4982C39.5983 19.0947 43.2444 24.5516 45.732 30.5572Z" fill="#FE7680"/>
<path fill-rule="evenodd" clip-rule="evenodd" d="M25.255 39.039C26.6288 42.3556 27.3358 45.9102 27.3358 49.5L20.3999 49.5C20.3999 38.2335 11.2666 29.1001 2.86102e-05 29.1001C1.92348e-05 29.1001 9.85938e-06 29.1001 4.83954e-07 29.1001L0 22.1642C3.58979 22.1642 7.14443 22.8712 10.461 24.245C13.7775 25.6188 16.791 27.6323 19.3293 30.1707C21.8677 32.709 23.8813 35.7225 25.255 39.039Z" fill="#FE7680"/>
</svg>
