<svg width="50" height="51" viewBox="0 0 50 51" fill="none" xmlns="http://www.w3.org/2000/svg">
<path d="M45.1219 37.7959C46.4157 37.7959 47.6564 37.2749 48.5713 36.3475C49.4861 35.4201 50 34.1623 50 32.8508V5.653C50 4.34149 49.4861 3.0837 48.5713 2.15632C47.6564 1.22894 46.4157 0.707947 45.1219 0.707947H19.4146C20.2683 2.21619 20.7317 3.92223 20.7317 5.653H45.1219V32.8508H23.1707V37.7959M32.9268 13.0706V18.0156H18.2927V50.1585H13.4146V35.3233H8.53658V50.1585H3.65854V30.3783H0V18.0156C0 16.7041 0.513936 15.4463 1.42875 14.519C2.34356 13.5916 3.58431 13.0706 4.87805 13.0706H32.9268ZM15.8537 5.653C15.8537 6.96451 15.3397 8.22231 14.4249 9.14968C13.5101 10.0771 12.2693 10.5981 10.9756 10.5981C9.68187 10.5981 8.44112 10.0771 7.52631 9.14968C6.6115 8.22231 6.09756 6.96451 6.09756 5.653C6.09756 4.34149 6.6115 3.0837 7.52631 2.15632C8.44112 1.22894 9.68187 0.707947 10.9756 0.707947C12.2693 0.707947 13.5101 1.22894 14.4249 2.15632C15.3397 3.0837 15.8537 4.34149 15.8537 5.653Z" fill="black"/>
</svg>
