<svg width="128" height="24" viewBox="0 0 128 24" fill="none" xmlns="http://www.w3.org/2000/svg">
<path d="M2.6228 24V0H111.715L128 24H2.6228Z" fill="#F99753"/>
<path d="M2.6228 0V24H111.715L128 0H2.6228Z" fill="#F99753"/>
<path d="M0 24V0H109.093L125.377 24H0Z" fill="#FF8C3C"/>
<path d="M0 0V24H109.093L125.377 0H0Z" fill="#FF8C3C"/>
<path d="M16.288 16L18.568 7.696H20.584L22.864 16H21.952L21.352 13.864H17.8L17.2 16H16.288ZM19.264 8.488L18.004 13.036H21.148L19.888 8.488H19.264ZM25.5124 16H24.6124V10H25.5004V10.42C26.1484 10.06 26.7684 9.88 27.3604 9.88C28.1604 9.88 28.6964 10.096 28.9684 10.528C29.2484 10.96 29.3884 11.728 29.3884 12.832V16H28.5004V12.856C28.5004 12.024 28.4164 11.456 28.2484 11.152C28.0884 10.84 27.7404 10.684 27.2044 10.684C26.9484 10.684 26.6764 10.724 26.3884 10.804C26.1084 10.876 25.8924 10.948 25.7404 11.02L25.5124 11.128V16ZM32.5577 16H31.6577V10H32.5457V10.42C33.1937 10.06 33.8138 9.88 34.4058 9.88C35.2058 9.88 35.7418 10.096 36.0138 10.528C36.2938 10.96 36.4338 11.728 36.4338 12.832V16H35.5458V12.856C35.5458 12.024 35.4618 11.456 35.2938 11.152C35.1338 10.84 34.7858 10.684 34.2498 10.684C33.9937 10.684 33.7217 10.724 33.4337 10.804C33.1537 10.876 32.9377 10.948 32.7857 11.02L32.5577 11.128V16ZM38.4391 12.988C38.4391 11.892 38.6351 11.1 39.0271 10.612C39.4191 10.124 40.0791 9.88 41.0071 9.88C41.9431 9.88 42.6031 10.124 42.9871 10.612C43.3791 11.1 43.5751 11.892 43.5751 12.988C43.5751 14.084 43.3911 14.88 43.0231 15.376C42.6551 15.872 41.9831 16.12 41.0071 16.12C40.0311 16.12 39.3591 15.872 38.9911 15.376C38.6231 14.88 38.4391 14.084 38.4391 12.988ZM39.3631 12.976C39.3631 13.848 39.4671 14.46 39.6751 14.812C39.8911 15.164 40.3351 15.34 41.0071 15.34C41.6871 15.34 42.1311 15.168 42.3391 14.824C42.5471 14.472 42.6511 13.856 42.6511 12.976C42.6511 12.096 42.5351 11.492 42.3031 11.164C42.0711 10.828 41.6391 10.66 41.0071 10.66C40.3831 10.66 39.9511 10.828 39.7111 11.164C39.4791 11.492 39.3631 12.096 39.3631 12.976ZM49.3869 10H50.2869V16H49.3869V15.58C48.7869 15.94 48.1949 16.12 47.6109 16.12C46.7949 16.12 46.2509 15.908 45.9789 15.484C45.7149 15.06 45.5829 14.276 45.5829 13.132V10H46.4829V13.12C46.4829 13.992 46.5589 14.576 46.7109 14.872C46.8629 15.168 47.2069 15.316 47.7429 15.316C48.0069 15.316 48.2749 15.28 48.5469 15.208C48.8189 15.128 49.0269 15.052 49.1709 14.98L49.3869 14.872V10ZM53.5179 16H52.6179V10H53.5059V10.42C54.1539 10.06 54.7739 9.88 55.3659 9.88C56.1659 9.88 56.7019 10.096 56.9739 10.528C57.2539 10.96 57.3939 11.728 57.3939 12.832V16H56.5059V12.856C56.5059 12.024 56.4219 11.456 56.2539 11.152C56.0939 10.84 55.7459 10.684 55.2099 10.684C54.9539 10.684 54.6819 10.724 54.3939 10.804C54.1139 10.876 53.8979 10.948 53.7459 11.02L53.5179 11.128V16ZM61.9072 9.88C62.1712 9.88 62.6192 9.928 63.2512 10.024L63.5392 10.06L63.5032 10.792C62.8632 10.72 62.3912 10.684 62.0872 10.684C61.4072 10.684 60.9432 10.848 60.6952 11.176C60.4552 11.496 60.3352 12.096 60.3352 12.976C60.3352 13.848 60.4472 14.456 60.6712 14.8C60.9032 15.144 61.3792 15.316 62.0992 15.316L63.5152 15.208L63.5512 15.952C62.8072 16.064 62.2512 16.12 61.8832 16.12C60.9472 16.12 60.2992 15.88 59.9392 15.4C59.5872 14.92 59.4112 14.112 59.4112 12.976C59.4112 11.832 59.6032 11.032 59.9872 10.576C60.3712 10.112 61.0112 9.88 61.9072 9.88ZM69.4995 15.256L69.8475 15.22L69.8715 15.928C68.9595 16.056 68.1795 16.12 67.5315 16.12C66.6675 16.12 66.0555 15.872 65.6955 15.376C65.3355 14.872 65.1555 14.092 65.1555 13.036C65.1555 10.932 65.9915 9.88 67.6635 9.88C68.4715 9.88 69.0755 10.108 69.4755 10.564C69.8755 11.012 70.0755 11.72 70.0755 12.688L70.0275 13.372H66.0675C66.0675 14.036 66.1875 14.528 66.4275 14.848C66.6675 15.168 67.0835 15.328 67.6755 15.328C68.2755 15.328 68.8835 15.304 69.4995 15.256ZM69.1755 12.652C69.1755 11.916 69.0555 11.396 68.8155 11.092C68.5835 10.788 68.1995 10.636 67.6635 10.636C67.1355 10.636 66.7355 10.796 66.4635 11.116C66.1995 11.436 66.0635 11.948 66.0555 12.652H69.1755ZM72.9781 16H72.0781V10H72.9661V10.42C73.5661 10.06 74.1501 9.88 74.7181 9.88C75.4621 9.88 75.9821 10.084 76.2781 10.492C76.5421 10.332 76.8821 10.192 77.2981 10.072C77.7221 9.944 78.0941 9.88 78.4141 9.88C79.2141 9.88 79.7501 10.096 80.0221 10.528C80.3021 10.952 80.4421 11.72 80.4421 12.832V16H79.5421V12.856C79.5421 12.024 79.4621 11.456 79.3021 11.152C79.1421 10.84 78.8021 10.684 78.2821 10.684C78.0181 10.684 77.7461 10.724 77.4661 10.804C77.1861 10.876 76.9701 10.948 76.8181 11.02L76.5901 11.128C76.6941 11.392 76.7461 11.976 76.7461 12.88V16H75.8461V12.904C75.8461 12.04 75.7661 11.456 75.6061 11.152C75.4541 10.84 75.1141 10.684 74.5861 10.684C74.3301 10.684 74.0661 10.724 73.7941 10.804C73.5301 10.876 73.3261 10.948 73.1821 11.02L72.9781 11.128V16ZM86.7893 15.256L87.1373 15.22L87.1613 15.928C86.2493 16.056 85.4693 16.12 84.8213 16.12C83.9573 16.12 83.3453 15.872 82.9853 15.376C82.6253 14.872 82.4453 14.092 82.4453 13.036C82.4453 10.932 83.2813 9.88 84.9533 9.88C85.7613 9.88 86.3653 10.108 86.7653 10.564C87.1653 11.012 87.3653 11.72 87.3653 12.688L87.3173 13.372H83.3573C83.3573 14.036 83.4773 14.528 83.7173 14.848C83.9573 15.168 84.3733 15.328 84.9653 15.328C85.5653 15.328 86.1733 15.304 86.7893 15.256ZM86.4653 12.652C86.4653 11.916 86.3453 11.396 86.1053 11.092C85.8733 10.788 85.4893 10.636 84.9533 10.636C84.4253 10.636 84.0253 10.796 83.7533 11.116C83.4893 11.436 83.3533 11.948 83.3453 12.652H86.4653ZM90.2679 16H89.3679V10H90.2559V10.42C90.9039 10.06 91.5239 9.88 92.1159 9.88C92.9159 9.88 93.4519 10.096 93.7239 10.528C94.0039 10.96 94.1439 11.728 94.1439 12.832V16H93.2559V12.856C93.2559 12.024 93.1719 11.456 93.0039 11.152C92.8439 10.84 92.4959 10.684 91.9599 10.684C91.7039 10.684 91.4319 10.724 91.1439 10.804C90.8639 10.876 90.6479 10.948 90.4959 11.02L90.2679 11.128V16ZM99.4861 10.78H97.5781V13.648C97.5781 14.336 97.6261 14.788 97.7221 15.004C97.8261 15.22 98.0661 15.328 98.4421 15.328L99.5101 15.256L99.5701 16C99.0341 16.088 98.6261 16.132 98.3461 16.132C97.7221 16.132 97.2901 15.98 97.0501 15.676C96.8101 15.372 96.6901 14.792 96.6901 13.936V10.78H95.8381V10H96.6901V8.164H97.5781V10H99.4861V10.78ZM103.069 10.684C102.197 10.684 101.761 10.988 101.761 11.596C101.761 11.876 101.861 12.076 102.061 12.196C102.261 12.308 102.717 12.428 103.429 12.556C104.141 12.676 104.645 12.848 104.941 13.072C105.237 13.296 105.385 13.716 105.385 14.332C105.385 14.948 105.185 15.4 104.785 15.688C104.393 15.976 103.817 16.12 103.057 16.12C102.561 16.12 101.977 16.064 101.305 15.952L100.945 15.892L100.993 15.112C101.905 15.248 102.593 15.316 103.057 15.316C103.521 15.316 103.873 15.244 104.113 15.1C104.361 14.948 104.485 14.7 104.485 14.356C104.485 14.004 104.381 13.768 104.173 13.648C103.965 13.52 103.509 13.4 102.805 13.288C102.101 13.176 101.601 13.012 101.305 12.796C101.009 12.58 100.861 12.18 100.861 11.596C100.861 11.012 101.065 10.58 101.473 10.3C101.889 10.02 102.405 9.88 103.021 9.88C103.509 9.88 104.121 9.936 104.857 10.048L105.193 10.108L105.169 10.876C104.281 10.748 103.581 10.684 103.069 10.684Z" fill="black"/>
</svg>
