<svg width="244" height="32" viewBox="0 0 244 32" fill="none" xmlns="http://www.w3.org/2000/svg">
<path d="M5 32V0H212.958L244 32H5Z" fill="#F99753"/>
<path d="M5 0V32H212.958L244 0H5Z" fill="#F99753"/>
<path d="M0 32V0H207.958L239 32H0Z" fill="#FF8C3C"/>
<path d="M0 0V32H207.958L239 0H0Z" fill="#FF8C3C"/>
<path d="M61.48 23L65.28 9.16H68.64L72.44 23H70.92L69.92 19.44H64L63 23H61.48ZM66.44 10.48L64.34 18.06H69.58L67.48 10.48H66.44ZM76.8541 23H75.3541V13H76.8341V13.7C77.9141 13.1 78.9474 12.8 79.9341 12.8C81.2674 12.8 82.1607 13.16 82.6141 13.88C83.0807 14.6 83.3141 15.88 83.3141 17.72V23H81.8341V17.76C81.8341 16.3733 81.6941 15.4267 81.4141 14.92C81.1474 14.4 80.5674 14.14 79.6741 14.14C79.2474 14.14 78.7941 14.2067 78.3141 14.34C77.8474 14.46 77.4874 14.58 77.2341 14.7L76.8541 14.88V23ZM88.5962 23H87.0963V13H88.5763V13.7C89.6563 13.1 90.6896 12.8 91.6763 12.8C93.0096 12.8 93.9029 13.16 94.3563 13.88C94.8229 14.6 95.0563 15.88 95.0563 17.72V23H93.5763V17.76C93.5763 16.3733 93.4363 15.4267 93.1563 14.92C92.8896 14.4 92.3096 14.14 91.4163 14.14C90.9896 14.14 90.5363 14.2067 90.0563 14.34C89.5896 14.46 89.2296 14.58 88.9763 14.7L88.5962 14.88V23ZM98.3984 17.98C98.3984 16.1533 98.7251 14.8333 99.3784 14.02C100.032 13.2067 101.132 12.8 102.678 12.8C104.238 12.8 105.338 13.2067 105.978 14.02C106.632 14.8333 106.958 16.1533 106.958 17.98C106.958 19.8067 106.652 21.1333 106.038 21.96C105.425 22.7867 104.305 23.2 102.678 23.2C101.052 23.2 99.9318 22.7867 99.3184 21.96C98.7051 21.1333 98.3984 19.8067 98.3984 17.98ZM99.9384 17.96C99.9384 19.4133 100.112 20.4333 100.458 21.02C100.818 21.6067 101.558 21.9 102.678 21.9C103.812 21.9 104.552 21.6133 104.898 21.04C105.245 20.4533 105.418 19.4267 105.418 17.96C105.418 16.4933 105.225 15.4867 104.838 14.94C104.452 14.38 103.732 14.1 102.678 14.1C101.638 14.1 100.918 14.38 100.518 14.94C100.132 15.4867 99.9384 16.4933 99.9384 17.96ZM116.645 13H118.145V23H116.645V22.3C115.645 22.9 114.658 23.2 113.685 23.2C112.325 23.2 111.418 22.8467 110.965 22.14C110.525 21.4333 110.305 20.1267 110.305 18.22V13H111.805V18.2C111.805 19.6533 111.932 20.6267 112.185 21.12C112.438 21.6133 113.012 21.86 113.905 21.86C114.345 21.86 114.792 21.8 115.245 21.68C115.698 21.5467 116.045 21.42 116.285 21.3L116.645 21.12V13ZM123.53 23H122.03V13H123.51V13.7C124.59 13.1 125.623 12.8 126.61 12.8C127.943 12.8 128.837 13.16 129.29 13.88C129.757 14.6 129.99 15.88 129.99 17.72V23H128.51V17.76C128.51 16.3733 128.37 15.4267 128.09 14.92C127.823 14.4 127.243 14.14 126.35 14.14C125.923 14.14 125.47 14.2067 124.99 14.34C124.523 14.46 124.163 14.58 123.91 14.7L123.53 14.88V23ZM137.512 12.8C137.952 12.8 138.699 12.88 139.752 13.04L140.232 13.1L140.172 14.32C139.105 14.2 138.319 14.14 137.812 14.14C136.679 14.14 135.905 14.4133 135.492 14.96C135.092 15.4933 134.892 16.4933 134.892 17.96C134.892 19.4133 135.079 20.4267 135.452 21C135.839 21.5733 136.632 21.86 137.832 21.86L140.192 21.68L140.252 22.92C139.012 23.1067 138.085 23.2 137.472 23.2C135.912 23.2 134.832 22.8 134.232 22C133.645 21.2 133.352 19.8533 133.352 17.96C133.352 16.0533 133.672 14.72 134.312 13.96C134.952 13.1867 136.019 12.8 137.512 12.8ZM150.166 21.76L150.746 21.7L150.786 22.88C149.266 23.0933 147.966 23.2 146.886 23.2C145.446 23.2 144.426 22.7867 143.826 21.96C143.226 21.12 142.926 19.82 142.926 18.06C142.926 14.5533 144.319 12.8 147.106 12.8C148.452 12.8 149.459 13.18 150.126 13.94C150.792 14.6867 151.126 15.8667 151.126 17.48L151.046 18.62H144.446C144.446 19.7267 144.646 20.5467 145.046 21.08C145.446 21.6133 146.139 21.88 147.126 21.88C148.126 21.88 149.139 21.84 150.166 21.76ZM149.626 17.42C149.626 16.1933 149.426 15.3267 149.026 14.82C148.639 14.3133 147.999 14.06 147.106 14.06C146.226 14.06 145.559 14.3267 145.106 14.86C144.666 15.3933 144.439 16.2467 144.426 17.42H149.626ZM155.963 23H154.463V13H155.943V13.7C156.943 13.1 157.917 12.8 158.863 12.8C160.103 12.8 160.97 13.14 161.463 13.82C161.903 13.5533 162.47 13.32 163.163 13.12C163.87 12.9067 164.49 12.8 165.023 12.8C166.357 12.8 167.25 13.16 167.703 13.88C168.17 14.5867 168.403 15.8667 168.403 17.72V23H166.903V17.76C166.903 16.3733 166.77 15.4267 166.503 14.92C166.237 14.4 165.67 14.14 164.803 14.14C164.363 14.14 163.91 14.2067 163.443 14.34C162.977 14.46 162.617 14.58 162.363 14.7L161.983 14.88C162.157 15.32 162.243 16.2933 162.243 17.8V23H160.743V17.84C160.743 16.4 160.61 15.4267 160.343 14.92C160.09 14.4 159.523 14.14 158.643 14.14C158.217 14.14 157.777 14.2067 157.323 14.34C156.883 14.46 156.543 14.58 156.303 14.7L155.963 14.88V23ZM178.982 21.76L179.562 21.7L179.602 22.88C178.082 23.0933 176.782 23.2 175.702 23.2C174.262 23.2 173.242 22.7867 172.642 21.96C172.042 21.12 171.742 19.82 171.742 18.06C171.742 14.5533 173.136 12.8 175.922 12.8C177.269 12.8 178.276 13.18 178.942 13.94C179.609 14.6867 179.942 15.8667 179.942 17.48L179.862 18.62H173.262C173.262 19.7267 173.462 20.5467 173.862 21.08C174.262 21.6133 174.956 21.88 175.942 21.88C176.942 21.88 177.956 21.84 178.982 21.76ZM178.442 17.42C178.442 16.1933 178.242 15.3267 177.842 14.82C177.456 14.3133 176.816 14.06 175.922 14.06C175.042 14.06 174.376 14.3267 173.922 14.86C173.482 15.3933 173.256 16.2467 173.242 17.42H178.442ZM184.78 23H183.28V13H184.76V13.7C185.84 13.1 186.873 12.8 187.86 12.8C189.193 12.8 190.087 13.16 190.54 13.88C191.007 14.6 191.24 15.88 191.24 17.72V23H189.76V17.76C189.76 16.3733 189.62 15.4267 189.34 14.92C189.073 14.4 188.493 14.14 187.6 14.14C187.173 14.14 186.72 14.2067 186.24 14.34C185.773 14.46 185.413 14.58 185.16 14.7L184.78 14.88V23ZM200.143 14.3H196.963V19.08C196.963 20.2267 197.043 20.98 197.203 21.34C197.377 21.7 197.777 21.88 198.403 21.88L200.183 21.76L200.283 23C199.39 23.1467 198.71 23.22 198.243 23.22C197.203 23.22 196.483 22.9667 196.083 22.46C195.683 21.9533 195.483 20.9867 195.483 19.56V14.3H194.063V13H195.483V9.94H196.963V13H200.143V14.3ZM206.115 14.14C204.662 14.14 203.935 14.6467 203.935 15.66C203.935 16.1267 204.102 16.46 204.435 16.66C204.768 16.8467 205.528 17.0467 206.715 17.26C207.902 17.46 208.742 17.7467 209.235 18.12C209.728 18.4933 209.975 19.1933 209.975 20.22C209.975 21.2467 209.642 22 208.975 22.48C208.322 22.96 207.362 23.2 206.095 23.2C205.268 23.2 204.295 23.1067 203.175 22.92L202.575 22.82L202.655 21.52C204.175 21.7467 205.322 21.86 206.095 21.86C206.868 21.86 207.455 21.74 207.855 21.5C208.268 21.2467 208.475 20.8333 208.475 20.26C208.475 19.6733 208.302 19.28 207.955 19.08C207.608 18.8667 206.848 18.6667 205.675 18.48C204.502 18.2933 203.668 18.02 203.175 17.66C202.682 17.3 202.435 16.6333 202.435 15.66C202.435 14.6867 202.775 13.9667 203.455 13.5C204.148 13.0333 205.008 12.8 206.035 12.8C206.848 12.8 207.868 12.8933 209.095 13.08L209.655 13.18L209.615 14.46C208.135 14.2467 206.968 14.14 206.115 14.14Z" fill="black"/>
</svg>
