<svg width="64" height="56" viewBox="0 0 64 56" fill="none" xmlns="http://www.w3.org/2000/svg">
<g clip-path="url(#clip0_308_105)">
<path d="M53.9361 18.6493C53.804 16.9857 55.1248 18.6493 55.2583 25.3079V20.3143C55.3904 18.6493 55.6546 20.3143 55.9187 20.3143C55.9187 21.9808 55.9187 23.6444 56.0508 23.6444H56.5791L56.5435 20.298C56.6755 20.298 57.1089 20.3143 57.2409 20.3143C57.373 23.6444 57.6372 23.6444 57.6372 20.3143C57.7692 21.9808 57.9013 21.9808 58.1655 21.9808C58.2975 26.973 58.2975 37.0478 58.2975 35.3857C58.6285 37.0493 58.6611 39.9608 58.6285 43.0817C58.6047 44.6413 58.581 46.2544 58.5587 47.7889C58.5543 48.1718 58.5498 48.5517 58.5454 48.9227C58.5439 49.5014 58.5424 50.0683 58.5394 50.6218C58.5394 51.8609 58.5454 53.0378 58.5617 54.1418C58.5662 54.4164 58.5691 54.6909 58.5736 54.9862C55.7169 55.0233 52.7845 55.0604 49.7943 55.1005C47.6499 55.1257 45.4625 55.1391 43.2484 55.145C38.8202 55.1569 34.2792 55.1391 29.7352 55.1198C25.1913 55.1005 20.6443 55.0812 16.2027 55.0916C13.9827 55.096 11.7879 55.1079 9.63311 55.1317C6.56274 55.1673 3.54876 55.2029 0.611949 55.2385C0.580785 55.2385 0.548137 55.2385 0.51549 55.2385C0.491746 53.5661 0.469486 51.8877 0.445742 50.2033C0.439806 49.8175 0.435354 49.4317 0.429418 49.0458L0.413094 48.3513C0.402707 47.8883 0.392319 47.4238 0.381931 46.9578C0.346315 45.0969 0.310699 43.2256 0.2736 41.3439C0.208304 37.582 0.159332 33.7845 0.120749 29.9721C0.0821651 26.1598 0.0539693 22.3325 0.0346774 18.5113C0.0272575 16.6014 0.0183536 14.6915 0.0109336 12.786C0.00648167 9.79432 0.0020297 6.80854 -0.00390625 3.83314C6.54494 3.83017 13.024 3.82721 19.3636 3.82275C19.3636 4.0869 17.6986 4.48313 19.3636 4.6152C26.0208 5.01143 26.0208 5.54121 26.0208 6.06951C26.0208 6.33366 21.0287 6.06951 22.6907 6.33366C17.6986 6.33366 17.43 6.46574 22.4281 6.72989C24.0931 6.99404 22.6907 6.72989 24.3528 7.12611C26.0193 7.52234 22.6892 7.92005 24.3528 8.31479H26.3354C27.9975 8.57894 25.7982 9.99763 24.7743 10.0006C24.7743 10.0006 18.1037 10.0525 14.3923 10.0733C12.5373 10.0837 10.6808 10.0941 8.82286 10.1045L7.42939 10.1119L6.73192 10.1163H6.55829L6.54197 10.1178H6.51229L6.29562 10.1356L6.31046 10.3612V10.3879L6.31343 10.3939V10.4502V10.6268L6.31788 11.3347L6.3253 12.7519C6.33569 14.641 6.34608 16.5316 6.35498 18.4222C6.37428 22.2034 6.39357 25.9876 6.41286 29.7747C6.43067 33.5604 6.44848 37.3475 6.46628 41.1362L6.49151 46.8184L6.50338 49.1987C6.50784 49.2135 6.5108 49.2239 6.51377 49.2313C6.53158 49.2269 6.54493 49.2224 6.55384 49.2195L9.86165 49.2076C12.0669 49.2002 14.2721 49.1942 16.4773 49.1868C20.8877 49.1764 25.2951 49.1675 29.7011 49.1571C34.1056 49.1527 38.5086 49.1482 42.9056 49.1453C45.1049 49.1453 47.3027 49.1453 49.499 49.1453C50.5912 49.1453 51.6834 49.1467 52.7741 49.1482L52.7356 49.1527L52.7385 49.1779V49.1898L52.743 48.2623C52.7459 46.8495 52.7489 45.4397 52.7534 44.0285C52.7623 41.2074 52.7712 38.3908 52.7816 35.5757C52.8112 29.9469 52.8409 25.2486 52.8721 19.6495L53.9287 18.6463L53.9361 18.6493Z" fill="#0AAD59"/>
<path d="M60.9008 4.64192L60.1321 5.08564L59.7477 5.30823C59.6201 5.38243 59.4954 5.46554 59.3693 5.5427L57.8601 6.48949C53.8682 9.07311 50.0899 12.05 46.5387 15.2999C44.7654 16.9279 43.041 18.6181 41.3715 20.3633C39.7079 22.1144 38.0948 23.9175 36.5352 25.7665C34.977 27.6156 33.4737 29.5106 32.0313 31.4413L31.4955 32.1684L31.2284 32.532L30.7758 33.1672L30.2994 33.8379L30.0605 34.1733C29.9804 34.2846 29.9047 34.3914 29.8112 34.5309L28.7472 36.1069C28.6582 36.2346 28.5706 36.3741 28.483 36.5135L28.2219 36.9305L27.698 37.7645L26.6444 39.4622C25.9573 40.5723 25.2702 41.6838 24.5831 42.7923C23.8619 40.8883 23.1407 38.9859 22.4209 37.0834L22.1523 36.3711C22.1078 36.2449 22.0603 36.1529 22.0129 36.0461L21.8719 35.7359L21.5899 35.1141L21.4489 34.804L21.3777 34.6482L21.3421 34.571L21.302 34.5042L20.6535 33.4313C20.5452 33.2532 20.4398 33.0722 20.3241 32.9015L20.0852 32.5587C19.2615 31.3715 18.3014 30.2096 17.2864 29.0802C15.2459 26.8246 12.9487 24.6876 10.5802 22.7169C10.3146 22.4839 10.1127 22.2969 9.9688 22.15C9.82634 22.0046 9.73285 21.8918 9.71207 21.831C9.66458 21.7493 9.66755 21.7004 9.71356 21.6796C9.7373 21.6692 9.76995 21.6662 9.81447 21.6692C9.83969 21.6737 9.85008 21.6662 9.87383 21.6692C9.89757 21.6722 9.9228 21.6766 9.95099 21.6811C10.4051 21.7746 11.3994 22.2628 12.3565 22.8074C11.7169 22.4483 11.9692 22.1411 11.3222 21.7894C11.4454 21.6351 11.8935 21.6514 12.6058 21.9408C13.3152 22.2302 14.2917 22.7896 15.4239 23.7364C14.8793 23.2393 14.3288 22.751 13.7678 22.2717C13.2915 21.693 14.026 21.969 14.1982 21.7701C14.7651 22.2539 15.3186 22.7496 15.4061 22.6516C15.4937 22.5537 15.6703 22.3563 15.7578 22.2569C15.2013 21.7538 14.0602 20.7758 13.477 20.3039C14.0572 20.7803 14.6285 21.267 14.7131 21.1676C14.7992 21.0667 14.9713 20.8664 15.0574 20.7655C15.6762 21.2077 16.3663 21.8592 17.0415 22.527C17.7167 23.1933 18.3741 23.8774 18.9588 24.3686L19.2393 24.0881C18.7451 23.5005 18.0565 22.8327 17.3442 22.199C16.6319 21.5638 15.8959 20.9599 15.3156 20.4642C15.9804 20.8604 16.0665 20.7655 16.2401 20.5651C17.1498 21.273 17.9571 22.101 18.7644 22.9261C19.5732 23.7527 20.3805 24.5749 21.3169 25.3005C20.79 24.7277 20.2528 24.1682 19.7053 23.6207C20.4858 23.9323 21.4667 24.8909 22.412 26.0292C22.6465 26.3156 22.8854 26.605 23.1125 26.9062C23.2268 27.0561 23.341 27.2045 23.4553 27.3529C23.5666 27.5043 23.6779 27.6541 23.7862 27.801C24.0073 28.0934 24.2151 28.3902 24.4199 28.6647C24.5238 28.8013 24.6217 28.9378 24.7182 29.0699C24.7671 29.1352 24.8146 29.199 24.8621 29.2628C24.8859 29.2939 24.9096 29.3251 24.9333 29.3563L24.9512 29.3785C24.9512 29.3785 24.9645 29.3963 24.963 29.3934H24.966C25.242 29.6442 25.426 29.8668 25.5447 30.1354L25.567 30.1843C25.57 30.2007 25.5759 30.1843 25.5818 30.1754L25.5982 30.1472L25.6635 30.0359C25.708 29.9632 25.751 29.8935 25.797 29.8267C25.8415 29.7584 25.889 29.6931 25.935 29.6264L26.0909 29.4156C26.447 28.9422 26.8061 28.4659 27.1638 27.991C27.6758 27.3262 28.1877 26.6613 28.7116 26.0099C30.7862 23.3877 32.9306 20.8871 34.8761 18.5365C36.3304 16.7631 37.8886 15.0076 39.5536 13.3158C39.7614 13.1036 39.9676 12.8899 40.1754 12.6777L40.815 12.053C41.2439 11.6374 41.6683 11.2175 42.1061 10.8079C42.5483 10.4028 42.9905 9.99764 43.4327 9.59102L43.7652 9.28681L44.1065 8.99149L44.7906 8.40087C45.6929 7.60396 46.6411 6.85752 47.576 6.0992C48.0494 5.72672 48.5332 5.36759 49.0111 5.00253C49.25 4.82149 49.4904 4.64044 49.7293 4.45939C49.9712 4.28131 50.2175 4.11065 50.4609 3.93554C50.9506 3.58977 51.4389 3.24401 51.9256 2.89972C52.4242 2.57027 52.9199 2.24231 53.4155 1.91584C53.6634 1.7526 53.9112 1.59084 54.1575 1.4276C54.4068 1.26882 54.6606 1.11745 54.9114 0.963115C55.4145 0.655929 55.9161 0.350228 56.4132 0.0474939C56.5453 0.276028 56.0897 1.01802 56.8154 0.731613C58.2578 0.139501 59.0413 -0.0252215 59.4925 0.00297428C59.9451 0.035622 60.0727 0.277512 60.1959 0.50753C60.3131 0.725677 58.2118 2.18741 58.9968 2.04643C58.9968 2.04643 59.6201 1.80899 60.0386 1.7986C60.8755 1.78376 59.7759 2.8552 60.6099 2.84184C60.7717 2.75429 60.9676 2.63409 61.1916 2.5213C61.4157 2.40704 61.6606 2.2809 61.904 2.15624C62.3922 1.90545 62.8819 1.65465 63.2069 1.48845C63.9711 1.39644 63.1935 3.35382 63.8406 3.02289L60.9008 4.64192Z" fill="#0AAD59"/>
</g>
<defs>
<clipPath id="clip0_308_105">
<rect width="63.8397" height="55.24" fill="white"/>
</clipPath>
</defs>
</svg>
