<svg width="369" height="130" viewBox="0 0 369 130" fill="none" xmlns="http://www.w3.org/2000/svg">
<path d="M8.216 97V39.88H44.672V49.96H19.808V66.76H40.136V76.84H19.808V97H8.216ZM52.7065 59.788C55.6745 55.924 60.6305 53.992 67.5745 53.992C74.5185 53.992 79.4745 55.924 82.4425 59.788C85.4105 63.596 86.8945 68.972 86.8945 75.916C86.8945 90.644 80.4545 98.008 67.5745 98.008C54.6945 98.008 48.2545 90.644 48.2545 75.916C48.2545 68.972 49.7385 63.596 52.7065 59.788ZM61.3585 85.408C62.5345 87.424 64.6065 88.432 67.5745 88.432C70.5425 88.432 72.5865 87.424 73.7065 85.408C74.8825 83.392 75.4705 80.228 75.4705 75.916C75.4705 71.604 74.8825 68.468 73.7065 66.508C72.5865 64.548 70.5425 63.568 67.5745 63.568C64.6065 63.568 62.5345 64.548 61.3585 66.508C60.2385 68.468 59.6785 71.604 59.6785 75.916C59.6785 80.228 60.2385 83.392 61.3585 85.408ZM95.1455 97V55H106.318V59.452C111.022 56.652 115.502 54.832 119.758 53.992V65.332C115.222 66.284 111.33 67.264 108.082 68.272L106.402 68.86V97H95.1455ZM145.864 39.88H168.292C174.228 39.88 178.68 41.084 181.648 43.492C184.616 45.844 186.1 49.68 186.1 55C186.1 58.192 185.624 60.74 184.672 62.644C183.72 64.492 182.096 66.144 179.8 67.6C182.32 68.664 184.168 70.204 185.344 72.22C186.576 74.236 187.192 77.036 187.192 80.62C187.192 86.164 185.568 90.28 182.32 92.968C179.072 95.656 174.508 97 168.628 97H145.864V39.88ZM168.04 73.144H157.456V87.088H168.04C170.56 87.088 172.408 86.584 173.584 85.576C174.816 84.568 175.432 82.72 175.432 80.032C175.432 75.44 172.968 73.144 168.04 73.144ZM167.704 49.792H157.456V63.4H167.788C172.156 63.4 174.34 61.132 174.34 56.596C174.34 52.06 172.128 49.792 167.704 49.792ZM205.284 80.788C205.34 83.364 206.012 85.24 207.3 86.416C208.644 87.536 210.548 88.096 213.012 88.096C218.22 88.096 222.868 87.928 226.956 87.592L229.308 87.34L229.476 95.656C223.036 97.224 217.212 98.008 212.004 98.008C205.676 98.008 201.084 96.328 198.228 92.968C195.372 89.608 193.944 84.148 193.944 76.588C193.944 61.524 200.132 53.992 212.508 53.992C224.716 53.992 230.82 60.32 230.82 72.976L229.98 80.788H205.284ZM219.732 72.22C219.732 68.86 219.2 66.536 218.136 65.248C217.072 63.904 215.196 63.232 212.508 63.232C209.876 63.232 208 63.932 206.88 65.332C205.816 66.676 205.256 68.972 205.2 72.22H219.732ZM262.132 64.576H251.8V81.796C251.8 83.476 251.828 84.68 251.884 85.408C251.996 86.08 252.304 86.668 252.808 87.172C253.368 87.676 254.208 87.928 255.328 87.928L261.712 87.76L262.216 96.748C258.464 97.588 255.608 98.008 253.648 98.008C248.608 98.008 245.164 96.888 243.316 94.648C241.468 92.352 240.544 88.152 240.544 82.048V64.576H235.588V55H240.544V43.324H251.8V55H262.132V64.576ZM292.73 64.576H282.398V81.796C282.398 83.476 282.426 84.68 282.482 85.408C282.594 86.08 282.902 86.668 283.406 87.172C283.966 87.676 284.806 87.928 285.926 87.928L292.31 87.76L292.814 96.748C289.062 97.588 286.206 98.008 284.246 98.008C279.206 98.008 275.762 96.888 273.914 94.648C272.066 92.352 271.142 88.152 271.142 82.048V64.576H266.186V55H271.142V43.324H282.398V55H292.73V64.576ZM309.3 80.788C309.356 83.364 310.028 85.24 311.316 86.416C312.66 87.536 314.564 88.096 317.028 88.096C322.236 88.096 326.884 87.928 330.972 87.592L333.324 87.34L333.492 95.656C327.052 97.224 321.228 98.008 316.02 98.008C309.692 98.008 305.1 96.328 302.244 92.968C299.388 89.608 297.96 84.148 297.96 76.588C297.96 61.524 304.148 53.992 316.524 53.992C328.732 53.992 334.836 60.32 334.836 72.976L333.996 80.788H309.3ZM323.748 72.22C323.748 68.86 323.216 66.536 322.152 65.248C321.088 63.904 319.212 63.232 316.524 63.232C313.892 63.232 312.016 63.932 310.896 65.332C309.832 66.676 309.272 68.972 309.216 72.22H323.748ZM342.88 97V55H354.052V59.452C358.756 56.652 363.236 54.832 367.492 53.992V65.332C362.956 66.284 359.064 67.264 355.816 68.272L354.136 68.86V97H342.88Z" fill="#FCD444" fill-opacity="0.2"/>
<path d="M8.216 97H7.216V98H8.216V97ZM8.216 39.88V38.88H7.216V39.88H8.216ZM44.672 39.88H45.672V38.88H44.672V39.88ZM44.672 49.96V50.96H45.672V49.96H44.672ZM19.808 49.96V48.96H18.808V49.96H19.808ZM19.808 66.76H18.808V67.76H19.808V66.76ZM40.136 66.76H41.136V65.76H40.136V66.76ZM40.136 76.84V77.84H41.136V76.84H40.136ZM19.808 76.84V75.84H18.808V76.84H19.808ZM19.808 97V98H20.808V97H19.808ZM9.216 97V39.88H7.216V97H9.216ZM8.216 40.88H44.672V38.88H8.216V40.88ZM43.672 39.88V49.96H45.672V39.88H43.672ZM44.672 48.96H19.808V50.96H44.672V48.96ZM18.808 49.96V66.76H20.808V49.96H18.808ZM19.808 67.76H40.136V65.76H19.808V67.76ZM39.136 66.76V76.84H41.136V66.76H39.136ZM40.136 75.84H19.808V77.84H40.136V75.84ZM18.808 76.84V97H20.808V76.84H18.808ZM19.808 96H8.216V98H19.808V96ZM52.7065 59.788L53.4952 60.4028L53.4995 60.3972L52.7065 59.788ZM82.4425 59.788L81.6494 60.3972L81.6537 60.4027L82.4425 59.788ZM61.3585 85.408L60.4843 85.8936L60.4894 85.9028L60.4947 85.9119L61.3585 85.408ZM73.7065 85.408L72.8427 84.9041L72.8374 84.9132L72.8323 84.9224L73.7065 85.408ZM73.7065 66.508L72.8382 67.0041L72.8435 67.0134L72.849 67.0225L73.7065 66.508ZM61.3585 66.508L60.501 65.9935L60.4955 66.0026L60.4902 66.0119L61.3585 66.508ZM53.4995 60.3972C56.2071 56.8722 60.802 54.992 67.5745 54.992V52.992C60.4589 52.992 55.1418 54.9758 51.9134 59.1788L53.4995 60.3972ZM67.5745 54.992C74.3469 54.992 78.9418 56.8722 81.6494 60.3972L83.2355 59.1788C80.0071 54.9758 74.69 52.992 67.5745 52.992V54.992ZM81.6537 60.4027C84.4362 63.9727 85.8945 69.1 85.8945 75.916H87.8945C87.8945 68.844 86.3848 63.2193 83.2312 59.1733L81.6537 60.4027ZM85.8945 75.916C85.8945 83.1563 84.3086 88.3998 81.3117 91.8267C78.3372 95.228 73.8229 97.008 67.5745 97.008V99.008C74.2061 99.008 79.3517 97.106 82.8172 93.1433C86.2603 89.2062 87.8945 83.4037 87.8945 75.916H85.8945ZM67.5745 97.008C61.3261 97.008 56.8117 95.228 53.8372 91.8267C50.8403 88.3998 49.2545 83.1563 49.2545 75.916H47.2545C47.2545 83.4037 48.8886 89.2062 52.3317 93.1433C55.7972 97.106 60.9429 99.008 67.5745 99.008V97.008ZM49.2545 75.916C49.2545 69.1 50.7128 63.9727 53.4952 60.4027L51.9177 59.1733C48.7642 63.2193 47.2545 68.844 47.2545 75.916H49.2545ZM60.4947 85.9119C61.8998 88.3207 64.3625 89.432 67.5745 89.432V87.432C64.8505 87.432 63.1691 86.5273 62.2222 84.9041L60.4947 85.9119ZM67.5745 89.432C70.7846 89.432 73.2324 88.3204 74.5806 85.8936L72.8323 84.9224C71.9405 86.5276 70.3003 87.432 67.5745 87.432V89.432ZM74.5703 85.9119C75.883 83.6615 76.4705 80.2778 76.4705 75.916H74.4705C74.4705 80.1782 73.882 83.1225 72.8427 84.9041L74.5703 85.9119ZM76.4705 75.916C76.4705 71.558 75.8843 68.1941 74.564 65.9935L72.849 67.0225C73.8806 68.7419 74.4705 71.65 74.4705 75.916H76.4705ZM74.5747 66.0119C73.2206 63.6421 70.7718 62.568 67.5745 62.568V64.568C70.3131 64.568 71.9524 65.4539 72.8382 67.0041L74.5747 66.0119ZM67.5745 62.568C64.3748 62.568 61.9118 63.6422 60.501 65.9935L62.216 67.0225C63.1572 65.4538 64.8381 64.568 67.5745 64.568V62.568ZM60.4902 66.0119C59.2361 68.2066 58.6785 71.562 58.6785 75.916H60.6785C60.6785 71.646 61.2409 68.7294 62.2267 67.0041L60.4902 66.0119ZM58.6785 75.916C58.6785 80.2738 59.2373 83.6491 60.4843 85.8936L62.2326 84.9224C61.2396 83.1349 60.6785 80.1822 60.6785 75.916H58.6785ZM95.1455 97H94.1455V98H95.1455V97ZM95.1455 55V54H94.1455V55H95.1455ZM106.317 55H107.317V54H106.317V55ZM106.317 59.452H105.317V61.211L106.829 60.3113L106.317 59.452ZM119.757 53.992H120.757V52.7753L119.564 53.0109L119.757 53.992ZM119.757 65.332L119.963 66.3107L120.757 66.1439V65.332H119.757ZM108.081 68.272L107.785 67.3169L107.768 67.3222L107.751 67.3281L108.081 68.272ZM106.402 68.86L106.071 67.9161L105.402 68.1505V68.86H106.402ZM106.402 97V98H107.402V97H106.402ZM96.1455 97V55H94.1455V97H96.1455ZM95.1455 56H106.317V54H95.1455V56ZM105.317 55V59.452H107.317V55H105.317ZM106.829 60.3113C111.459 57.5551 115.832 55.786 119.951 54.9731L119.564 53.0109C115.171 53.878 110.584 55.7489 105.806 58.5927L106.829 60.3113ZM118.757 53.992V65.332H120.757V53.992H118.757ZM119.552 64.3533C114.996 65.3096 111.072 66.297 107.785 67.3169L108.378 69.2271C111.587 68.231 115.447 67.2584 119.963 66.3107L119.552 64.3533ZM107.751 67.3281L106.071 67.9161L106.732 69.8039L108.412 69.2159L107.751 67.3281ZM105.402 68.86V97H107.402V68.86H105.402ZM106.402 96H95.1455V98H106.402V96ZM145.864 39.88V38.88H144.864V39.88H145.864ZM181.648 43.492L181.018 44.2686L181.027 44.2757L181.648 43.492ZM184.672 62.644L185.561 63.102L185.567 63.0912L184.672 62.644ZM179.8 67.6L179.265 66.7555L177.652 67.7783L179.411 68.5212L179.8 67.6ZM185.344 72.22L184.481 72.7239L184.486 72.7327L184.491 72.7414L185.344 72.22ZM182.32 92.968L181.683 92.1976L182.32 92.968ZM145.864 97H144.864V98H145.864V97ZM157.456 73.144V72.144H156.456V73.144H157.456ZM157.456 87.088H156.456V88.088H157.456V87.088ZM173.584 85.576L172.951 84.802L172.942 84.8093L172.934 84.8167L173.584 85.576ZM157.456 49.792V48.792H156.456V49.792H157.456ZM157.456 63.4H156.456V64.4H157.456V63.4ZM145.864 40.88H168.292V38.88H145.864V40.88ZM168.292 40.88C174.119 40.88 178.304 42.066 181.018 44.2686L182.278 42.7154C179.057 40.102 174.338 38.88 168.292 38.88V40.88ZM181.027 44.2757C183.67 46.3697 185.1 49.8552 185.1 55H187.1C187.1 49.5048 185.563 45.3183 182.27 42.7083L181.027 44.2757ZM185.1 55C185.1 58.1078 184.635 60.4836 183.778 62.1968L185.567 63.0912C186.614 60.9964 187.1 58.2762 187.1 55H185.1ZM183.783 62.186C182.934 63.8346 181.456 65.3661 179.265 66.7555L180.336 68.4445C182.737 66.9219 184.507 65.1494 185.561 63.102L183.783 62.186ZM179.411 68.5212C181.768 69.5161 183.432 70.9254 184.481 72.7239L186.208 71.7161C184.905 69.4826 182.873 67.8119 180.189 66.6787L179.411 68.5212ZM184.491 72.7414C185.59 74.5393 186.192 77.1319 186.192 80.62H188.192C188.192 76.9401 187.563 73.9327 186.198 71.6985L184.491 72.7414ZM186.192 80.62C186.192 85.9666 184.634 89.7555 181.683 92.1976L182.958 93.7384C186.503 90.8045 188.192 86.3614 188.192 80.62H186.192ZM181.683 92.1976C178.674 94.6881 174.367 96 168.628 96V98C174.65 98 179.471 96.6239 182.958 93.7384L181.683 92.1976ZM168.628 96H145.864V98H168.628V96ZM146.864 97V39.88H144.864V97H146.864ZM168.04 72.144H157.456V74.144H168.04V72.144ZM156.456 73.144V87.088H158.456V73.144H156.456ZM157.456 88.088H168.04V86.088H157.456V88.088ZM168.04 88.088C170.659 88.088 172.794 87.5703 174.235 86.3353L172.934 84.8167C172.023 85.5977 170.462 86.088 168.04 86.088V88.088ZM174.218 86.35C175.802 85.0538 176.432 82.8195 176.432 80.032H174.432C174.432 82.6205 173.831 84.0822 172.951 84.802L174.218 86.35ZM176.432 80.032C176.432 77.563 175.767 75.5326 174.266 74.1344C172.779 72.7486 170.642 72.144 168.04 72.144V74.144C170.367 74.144 171.926 74.6874 172.903 75.5976C173.866 76.4954 174.432 77.909 174.432 80.032H176.432ZM167.704 48.792H157.456V50.792H167.704V48.792ZM156.456 49.792V63.4H158.456V49.792H156.456ZM157.456 64.4H167.788V62.4H157.456V64.4ZM167.788 64.4C170.136 64.4 172.079 63.7884 173.423 62.3926C174.76 61.0039 175.34 59.0089 175.34 56.596H173.34C173.34 58.7191 172.829 60.1261 171.982 61.0054C171.142 61.8776 169.808 62.4 167.788 62.4V64.4ZM175.34 56.596C175.34 54.18 174.751 52.1832 173.397 50.7948C172.039 49.4017 170.077 48.792 167.704 48.792V50.792C169.756 50.792 171.112 51.3163 171.966 52.1912C172.823 53.0708 173.34 54.476 173.34 56.596H175.34ZM205.284 80.788V79.788H204.262L204.284 80.8097L205.284 80.788ZM207.3 86.416L206.626 87.1545L206.642 87.1697L206.66 87.1842L207.3 86.416ZM226.956 87.592L227.038 88.5886L227.05 88.5876L227.062 88.5863L226.956 87.592ZM229.308 87.34L230.308 87.3198L230.286 86.2295L229.201 86.3457L229.308 87.34ZM229.476 95.656L229.713 96.6276L230.492 96.4378L230.476 95.6358L229.476 95.656ZM198.228 92.968L197.466 93.6156L198.228 92.968ZM230.82 72.976L231.814 73.0829L231.82 73.0296V72.976H230.82ZM229.98 80.788V81.788H230.878L230.974 80.8949L229.98 80.788ZM219.732 72.22V73.22H220.732V72.22H219.732ZM218.136 65.248L217.352 65.8687L217.358 65.8769L217.365 65.8849L218.136 65.248ZM206.88 65.332L206.099 64.7073L206.096 64.7113L206.88 65.332ZM205.2 72.22L204.2 72.2028L204.183 73.22H205.2V72.22ZM204.284 80.8097C204.343 83.5284 205.056 85.7214 206.626 87.1545L207.974 85.6775C206.968 84.7586 206.337 83.1996 206.284 80.7663L204.284 80.8097ZM206.66 87.1842C208.245 88.5049 210.408 89.096 213.012 89.096V87.096C210.688 87.096 209.043 86.5671 207.94 85.6478L206.66 87.1842ZM213.012 89.096C218.24 89.096 222.917 88.9274 227.038 88.5886L226.874 86.5954C222.819 86.9286 218.199 87.096 213.012 87.096V89.096ZM227.062 88.5863L229.414 88.3343L229.201 86.3457L226.849 86.5977L227.062 88.5863ZM228.308 87.3602L228.476 95.6762L230.476 95.6358L230.308 87.3198L228.308 87.3602ZM229.239 94.6844C222.857 96.2384 217.114 97.008 212.004 97.008V99.008C217.31 99.008 223.215 98.2096 229.713 96.6276L229.239 94.6844ZM212.004 97.008C205.838 97.008 201.585 95.3729 198.99 92.3204L197.466 93.6156C200.583 97.2831 205.514 99.008 212.004 99.008V97.008ZM198.99 92.3204C196.365 89.2317 194.944 84.0655 194.944 76.588H192.944C192.944 84.2305 194.379 89.9843 197.466 93.6156L198.99 92.3204ZM194.944 76.588C194.944 69.1676 196.472 63.7881 199.358 60.2758C202.212 56.8011 206.532 54.992 212.508 54.992V52.992C206.108 52.992 201.146 54.9489 197.812 59.0062C194.51 63.0259 192.944 68.9444 192.944 76.588H194.944ZM212.508 54.992C218.448 54.992 222.722 56.5297 225.522 59.4323C228.329 62.3415 229.82 66.7933 229.82 72.976H231.82C231.82 66.5027 230.259 61.4625 226.962 58.0437C223.658 54.6183 218.775 52.992 212.508 52.992V54.992ZM229.826 72.8691L228.986 80.6811L230.974 80.8949L231.814 73.0829L229.826 72.8691ZM229.98 79.788H205.284V81.788H229.98V79.788ZM220.732 72.22C220.732 68.8258 220.209 66.1874 218.907 64.6111L217.365 65.8849C218.191 66.8846 218.732 68.8942 218.732 72.22H220.732ZM218.92 64.6273C217.579 62.9338 215.327 62.232 212.508 62.232V64.232C215.065 64.232 216.565 64.8742 217.352 65.8687L218.92 64.6273ZM212.508 62.232C209.719 62.232 207.485 62.9752 206.099 64.7073L207.661 65.9567C208.515 64.8888 210.033 64.232 212.508 64.232V62.232ZM206.096 64.7113C204.819 66.3244 204.257 68.9043 204.2 72.2028L206.2 72.2372C206.255 69.0397 206.813 67.0276 207.664 65.9527L206.096 64.7113ZM205.2 73.22H219.732V71.22H205.2V73.22ZM262.132 64.576V65.576H263.132V64.576H262.132ZM251.8 64.576V63.576H250.8V64.576H251.8ZM251.884 85.408L250.887 85.4847L250.891 85.5288L250.898 85.5724L251.884 85.408ZM252.808 87.172L252.101 87.8791L252.12 87.8977L252.139 87.9153L252.808 87.172ZM255.328 87.928V88.928H255.341L255.355 88.9277L255.328 87.928ZM261.712 87.76L262.711 87.704L262.656 86.7348L261.686 86.7603L261.712 87.76ZM262.216 96.748L262.435 97.7238L263.262 97.5386L263.215 96.692L262.216 96.748ZM243.316 94.648L242.537 95.2751L242.545 95.2844L243.316 94.648ZM240.544 64.576H241.544V63.576H240.544V64.576ZM235.588 64.576H234.588V65.576H235.588V64.576ZM235.588 55V54H234.588V55H235.588ZM240.544 55V56H241.544V55H240.544ZM240.544 43.324V42.324H239.544V43.324H240.544ZM251.8 43.324H252.8V42.324H251.8V43.324ZM251.8 55H250.8V56H251.8V55ZM262.132 55H263.132V54H262.132V55ZM262.132 63.576H251.8V65.576H262.132V63.576ZM250.8 64.576V81.796H252.8V64.576H250.8ZM250.8 81.796C250.8 83.4774 250.828 84.715 250.887 85.4847L252.881 85.3313C252.829 84.645 252.8 83.4746 252.8 81.796H250.8ZM250.898 85.5724C251.046 86.4599 251.457 87.235 252.101 87.8791L253.515 86.4649C253.151 86.101 252.947 85.7001 252.871 85.2436L250.898 85.5724ZM252.139 87.9153C252.955 88.6491 254.079 88.928 255.328 88.928V86.928C254.338 86.928 253.782 86.7029 253.477 86.4287L252.139 87.9153ZM255.355 88.9277L261.739 88.7597L261.686 86.7603L255.302 86.9283L255.355 88.9277ZM260.714 87.816L261.218 96.804L263.215 96.692L262.711 87.704L260.714 87.816ZM261.998 95.7722C258.263 96.6083 255.494 97.008 253.648 97.008V99.008C255.722 99.008 258.666 98.5677 262.435 97.7238L261.998 95.7722ZM253.648 97.008C248.697 97.008 245.643 95.8975 244.088 94.0116L242.545 95.2844C244.685 97.8785 248.52 99.008 253.648 99.008V97.008ZM244.095 94.021C242.48 92.0137 241.544 88.1263 241.544 82.048H239.544C239.544 88.1777 240.457 92.6903 242.537 95.275L244.095 94.021ZM241.544 82.048V64.576H239.544V82.048H241.544ZM240.544 63.576H235.588V65.576H240.544V63.576ZM236.588 64.576V55H234.588V64.576H236.588ZM235.588 56H240.544V54H235.588V56ZM241.544 55V43.324H239.544V55H241.544ZM240.544 44.324H251.8V42.324H240.544V44.324ZM250.8 43.324V55H252.8V43.324H250.8ZM251.8 56H262.132V54H251.8V56ZM261.132 55V64.576H263.132V55H261.132ZM292.73 64.576V65.576H293.73V64.576H292.73ZM282.398 64.576V63.576H281.398V64.576H282.398ZM282.482 85.408L281.485 85.4847L281.488 85.5288L281.496 85.5724L282.482 85.408ZM283.406 87.172L282.699 87.8791L282.717 87.8977L282.737 87.9153L283.406 87.172ZM285.926 87.928V88.928H285.939L285.952 88.9277L285.926 87.928ZM292.31 87.76L293.308 87.704L293.254 86.7348L292.284 86.7603L292.31 87.76ZM292.814 96.748L293.032 97.7238L293.86 97.5386L293.812 96.692L292.814 96.748ZM273.914 94.648L273.135 95.2751L273.143 95.2844L273.914 94.648ZM271.142 64.576H272.142V63.576H271.142V64.576ZM266.186 64.576H265.186V65.576H266.186V64.576ZM266.186 55V54H265.186V55H266.186ZM271.142 55V56H272.142V55H271.142ZM271.142 43.324V42.324H270.142V43.324H271.142ZM282.398 43.324H283.398V42.324H282.398V43.324ZM282.398 55H281.398V56H282.398V55ZM292.73 55H293.73V54H292.73V55ZM292.73 63.576H282.398V65.576H292.73V63.576ZM281.398 64.576V81.796H283.398V64.576H281.398ZM281.398 81.796C281.398 83.4774 281.426 84.715 281.485 85.4847L283.479 85.3313C283.426 84.645 283.398 83.4746 283.398 81.796H281.398ZM281.496 85.5724C281.643 86.4599 282.055 87.235 282.699 87.8791L284.113 86.4649C283.749 86.101 283.544 85.7001 283.468 85.2436L281.496 85.5724ZM282.737 87.9153C283.552 88.6491 284.676 88.928 285.926 88.928V86.928C284.936 86.928 284.38 86.7029 284.075 86.4287L282.737 87.9153ZM285.952 88.9277L292.336 88.7597L292.284 86.7603L285.9 86.9283L285.952 88.9277ZM291.311 87.816L291.815 96.804L293.812 96.692L293.308 87.704L291.311 87.816ZM292.595 95.7722C288.861 96.6083 286.092 97.008 284.246 97.008V99.008C286.32 99.008 289.263 98.5677 293.032 97.7238L292.595 95.7722ZM284.246 97.008C279.294 97.008 276.241 95.8975 274.685 94.0116L273.143 95.2844C275.283 97.8785 279.118 99.008 284.246 99.008V97.008ZM274.693 94.021C273.077 92.0137 272.142 88.1263 272.142 82.048H270.142C270.142 88.1777 271.055 92.6903 273.135 95.275L274.693 94.021ZM272.142 82.048V64.576H270.142V82.048H272.142ZM271.142 63.576H266.186V65.576H271.142V63.576ZM267.186 64.576V55H265.186V64.576H267.186ZM266.186 56H271.142V54H266.186V56ZM272.142 55V43.324H270.142V55H272.142ZM271.142 44.324H282.398V42.324H271.142V44.324ZM281.398 43.324V55H283.398V43.324H281.398ZM282.398 56H292.73V54H282.398V56ZM291.73 55V64.576H293.73V55H291.73ZM309.3 80.788V79.788H308.278L308.3 80.8097L309.3 80.788ZM311.316 86.416L310.641 87.1545L310.658 87.1697L310.675 87.1842L311.316 86.416ZM330.972 87.592L331.053 88.5886L331.066 88.5876L331.078 88.5863L330.972 87.592ZM333.324 87.34L334.323 87.3198L334.301 86.2295L333.217 86.3457L333.324 87.34ZM333.492 95.656L333.728 96.6276L334.508 96.4378L334.491 95.6358L333.492 95.656ZM302.244 92.968L301.482 93.6156L302.244 92.968ZM334.836 72.976L335.83 73.0829L335.836 73.0296V72.976H334.836ZM333.996 80.788V81.788H334.894L334.99 80.8949L333.996 80.788ZM323.748 72.22V73.22H324.748V72.22H323.748ZM322.152 65.248L321.368 65.8687L321.374 65.8769L321.381 65.8849L322.152 65.248ZM310.896 65.332L310.115 64.7073L310.112 64.7113L310.896 65.332ZM309.216 72.22L308.216 72.2028L308.198 73.22H309.216V72.22ZM308.3 80.8097C308.359 83.5284 309.072 85.7214 310.641 87.1545L311.99 85.6775C310.983 84.7586 310.352 83.1996 310.299 80.7663L308.3 80.8097ZM310.675 87.1842C312.26 88.5049 314.424 89.096 317.028 89.096V87.096C314.703 87.096 313.059 86.5671 311.956 85.6478L310.675 87.1842ZM317.028 89.096C322.256 89.096 326.932 88.9274 331.053 88.5886L330.89 86.5954C326.835 86.9286 322.215 87.096 317.028 87.096V89.096ZM331.078 88.5863L333.43 88.3343L333.217 86.3457L330.865 86.5977L331.078 88.5863ZM332.324 87.3602L332.492 95.6762L334.491 95.6358L334.323 87.3198L332.324 87.3602ZM333.255 94.6844C326.873 96.2384 321.13 97.008 316.02 97.008V99.008C321.325 99.008 327.231 98.2096 333.728 96.6276L333.255 94.6844ZM316.02 97.008C309.853 97.008 305.6 95.3729 303.005 92.3204L301.482 93.6156C304.599 97.2831 309.53 99.008 316.02 99.008V97.008ZM303.005 92.3204C300.38 89.2317 298.96 84.0655 298.96 76.588H296.96C296.96 84.2305 298.395 89.9843 301.482 93.6156L303.005 92.3204ZM298.96 76.588C298.96 69.1676 300.488 63.7881 303.373 60.2758C306.228 56.8011 310.547 54.992 316.524 54.992V52.992C310.124 52.992 305.161 54.9489 301.828 59.0062C298.525 63.0259 296.96 68.9444 296.96 76.588H298.96ZM316.524 54.992C322.464 54.992 326.738 56.5297 329.538 59.4323C332.344 62.3415 333.836 66.7933 333.836 72.976H335.836C335.836 66.5027 334.275 61.4625 330.977 58.0437C327.673 54.6183 322.791 52.992 316.524 52.992V54.992ZM333.841 72.8691L333.001 80.6811L334.99 80.8949L335.83 73.0829L333.841 72.8691ZM333.996 79.788H309.3V81.788H333.996V79.788ZM324.748 72.22C324.748 68.8258 324.225 66.1874 322.923 64.6111L321.381 65.8849C322.206 66.8846 322.748 68.8942 322.748 72.22H324.748ZM322.936 64.6273C321.595 62.9338 319.342 62.232 316.524 62.232V64.232C319.081 64.232 320.58 64.8742 321.368 65.8687L322.936 64.6273ZM316.524 62.232C313.735 62.232 311.5 62.9752 310.115 64.7073L311.676 65.9567C312.531 64.8888 314.048 64.232 316.524 64.232V62.232ZM310.112 64.7113C308.834 66.3244 308.273 68.9043 308.216 72.2028L310.215 72.2372C310.271 69.0397 310.829 67.0276 311.68 65.9527L310.112 64.7113ZM309.216 73.22H323.748V71.22H309.216V73.22ZM342.88 97H341.88V98H342.88V97ZM342.88 55V54H341.88V55H342.88ZM354.052 55H355.052V54H354.052V55ZM354.052 59.452H353.052V61.211L354.563 60.3113L354.052 59.452ZM367.492 53.992H368.492V52.7753L367.298 53.0109L367.492 53.992ZM367.492 65.332L367.697 66.3107L368.492 66.1439V65.332H367.492ZM355.816 68.272L355.519 67.3169L355.502 67.3222L355.486 67.3281L355.816 68.272ZM354.136 68.86L353.806 67.9161L353.136 68.1505V68.86H354.136ZM354.136 97V98H355.136V97H354.136ZM343.88 97V55H341.88V97H343.88ZM342.88 56H354.052V54H342.88V56ZM353.052 55V59.452H355.052V55H353.052ZM354.563 60.3113C359.194 57.5551 363.567 55.786 367.686 54.9731L367.298 53.0109C362.905 53.878 358.318 55.7489 353.54 58.5927L354.563 60.3113ZM366.492 53.992V65.332H368.492V53.992H366.492ZM367.286 64.3533C362.73 65.3096 358.806 66.297 355.519 67.3169L356.112 69.2271C359.322 68.231 363.182 67.2584 367.697 66.3107L367.286 64.3533ZM355.486 67.3281L353.806 67.9161L354.466 69.8039L356.146 69.2159L355.486 67.3281ZM353.136 68.86V97H355.136V68.86H353.136ZM354.136 96H342.88V98H354.136V96Z" fill="#FCD444"/>
<path d="M6.216 95V37.88H42.672V47.96H17.808V64.76H38.136V74.84H17.808V95H6.216ZM50.7065 57.788C53.6745 53.924 58.6305 51.992 65.5745 51.992C72.5185 51.992 77.4745 53.924 80.4425 57.788C83.4105 61.596 84.8945 66.972 84.8945 73.916C84.8945 88.644 78.4545 96.008 65.5745 96.008C52.6945 96.008 46.2545 88.644 46.2545 73.916C46.2545 66.972 47.7385 61.596 50.7065 57.788ZM59.3585 83.408C60.5345 85.424 62.6065 86.432 65.5745 86.432C68.5425 86.432 70.5865 85.424 71.7065 83.408C72.8825 81.392 73.4705 78.228 73.4705 73.916C73.4705 69.604 72.8825 66.468 71.7065 64.508C70.5865 62.548 68.5425 61.568 65.5745 61.568C62.6065 61.568 60.5345 62.548 59.3585 64.508C58.2385 66.468 57.6785 69.604 57.6785 73.916C57.6785 78.228 58.2385 81.392 59.3585 83.408ZM93.1455 95V53H104.318V57.452C109.022 54.652 113.502 52.832 117.758 51.992V63.332C113.222 64.284 109.33 65.264 106.082 66.272L104.402 66.86V95H93.1455ZM143.864 37.88H166.292C172.228 37.88 176.68 39.084 179.648 41.492C182.616 43.844 184.1 47.68 184.1 53C184.1 56.192 183.624 58.74 182.672 60.644C181.72 62.492 180.096 64.144 177.8 65.6C180.32 66.664 182.168 68.204 183.344 70.22C184.576 72.236 185.192 75.036 185.192 78.62C185.192 84.164 183.568 88.28 180.32 90.968C177.072 93.656 172.508 95 166.628 95H143.864V37.88ZM166.04 71.144H155.456V85.088H166.04C168.56 85.088 170.408 84.584 171.584 83.576C172.816 82.568 173.432 80.72 173.432 78.032C173.432 73.44 170.968 71.144 166.04 71.144ZM165.704 47.792H155.456V61.4H165.788C170.156 61.4 172.34 59.132 172.34 54.596C172.34 50.06 170.128 47.792 165.704 47.792ZM203.284 78.788C203.34 81.364 204.012 83.24 205.3 84.416C206.644 85.536 208.548 86.096 211.012 86.096C216.22 86.096 220.868 85.928 224.956 85.592L227.308 85.34L227.476 93.656C221.036 95.224 215.212 96.008 210.004 96.008C203.676 96.008 199.084 94.328 196.228 90.968C193.372 87.608 191.944 82.148 191.944 74.588C191.944 59.524 198.132 51.992 210.508 51.992C222.716 51.992 228.82 58.32 228.82 70.976L227.98 78.788H203.284ZM217.732 70.22C217.732 66.86 217.2 64.536 216.136 63.248C215.072 61.904 213.196 61.232 210.508 61.232C207.876 61.232 206 61.932 204.88 63.332C203.816 64.676 203.256 66.972 203.2 70.22H217.732ZM260.132 62.576H249.8V79.796C249.8 81.476 249.828 82.68 249.884 83.408C249.996 84.08 250.304 84.668 250.808 85.172C251.368 85.676 252.208 85.928 253.328 85.928L259.712 85.76L260.216 94.748C256.464 95.588 253.608 96.008 251.648 96.008C246.608 96.008 243.164 94.888 241.316 92.648C239.468 90.352 238.544 86.152 238.544 80.048V62.576H233.588V53H238.544V41.324H249.8V53H260.132V62.576ZM290.73 62.576H280.398V79.796C280.398 81.476 280.426 82.68 280.482 83.408C280.594 84.08 280.902 84.668 281.406 85.172C281.966 85.676 282.806 85.928 283.926 85.928L290.31 85.76L290.814 94.748C287.062 95.588 284.206 96.008 282.246 96.008C277.206 96.008 273.762 94.888 271.914 92.648C270.066 90.352 269.142 86.152 269.142 80.048V62.576H264.186V53H269.142V41.324H280.398V53H290.73V62.576ZM307.3 78.788C307.356 81.364 308.028 83.24 309.316 84.416C310.66 85.536 312.564 86.096 315.028 86.096C320.236 86.096 324.884 85.928 328.972 85.592L331.324 85.34L331.492 93.656C325.052 95.224 319.228 96.008 314.02 96.008C307.692 96.008 303.1 94.328 300.244 90.968C297.388 87.608 295.96 82.148 295.96 74.588C295.96 59.524 302.148 51.992 314.524 51.992C326.732 51.992 332.836 58.32 332.836 70.976L331.996 78.788H307.3ZM321.748 70.22C321.748 66.86 321.216 64.536 320.152 63.248C319.088 61.904 317.212 61.232 314.524 61.232C311.892 61.232 310.016 61.932 308.896 63.332C307.832 64.676 307.272 66.972 307.216 70.22H321.748ZM340.88 95V53H352.052V57.452C356.756 54.652 361.236 52.832 365.492 51.992V63.332C360.956 64.284 357.064 65.264 353.816 66.272L352.136 66.86V95H340.88Z" fill="#FCD444"/>
</svg>
