<svg width="228" height="129" viewBox="0 0 228 129" fill="none" xmlns="http://www.w3.org/2000/svg">
<path d="M221.818 8.71287C220.555 6.0519 217.374 4.91865 214.713 6.18169C212.052 7.44473 210.919 10.6258 212.182 13.2868C213.445 15.9477 216.626 17.081 219.287 15.8179C221.948 14.5549 223.081 11.3739 221.818 8.71287ZM0.000289556 85.9998L9.93521 91.8846L10.0641 80.3383L0.000289556 85.9998ZM216 10.9998C216 12.4084 215.996 13.801 215.987 15.178L217.987 15.1905C217.996 13.8093 218 12.4125 218 10.9998L216 10.9998ZM215.672 31.147C215.575 33.9353 215.458 36.6487 215.32 39.2886L217.317 39.393C217.456 36.7407 217.574 34.0156 217.67 31.216L215.672 31.147ZM214.151 55.2545C213.887 57.984 213.595 60.6179 213.276 63.1587L215.261 63.4079C215.582 60.8471 215.876 58.1944 216.142 55.4471L214.151 55.2545ZM210.699 78.9919C210.14 81.7024 209.538 84.272 208.894 86.7065L210.828 87.2176C211.481 84.745 212.092 82.1396 212.658 79.3961L210.699 78.9919ZM203.709 101.639C202.547 104.196 201.309 106.513 199.999 108.606L201.694 109.668C203.056 107.492 204.335 105.096 205.53 102.467L203.709 101.639ZM189.395 120.022C187.221 121.508 184.923 122.68 182.503 123.571L183.194 125.448C185.765 124.502 188.21 123.255 190.524 121.673L189.395 120.022ZM167.09 125.832C164.555 125.769 161.927 125.539 159.208 125.162L158.933 127.143C161.715 127.529 164.419 127.767 167.041 127.832L167.09 125.832ZM143.625 121.814C141.123 121.124 138.564 120.362 135.951 119.54L135.351 121.448C137.983 122.276 140.564 123.045 143.094 123.742L143.625 121.814ZM120.752 114.388C118.268 113.503 115.745 112.589 113.184 111.656L112.499 113.536C115.063 114.469 117.591 115.384 120.08 116.272L120.752 114.388ZM98.0637 106.152C95.5706 105.254 93.0465 104.354 90.4925 103.459L89.8312 105.347C92.3784 106.239 94.8968 107.137 97.386 108.034L98.0637 106.152ZM75.2098 98.3304C72.6656 97.5208 70.0957 96.728 67.501 95.9582L66.9322 97.8756C69.5132 98.6413 72.0704 99.4302 74.6033 100.236L75.2098 98.3304ZM51.9497 91.7392C49.3467 91.104 46.7217 90.5015 44.0755 89.9371L43.6583 91.8931C46.2844 92.4532 48.8904 93.0514 51.4756 93.6822L51.9497 91.7392ZM28.1966 87.0883C25.543 86.7063 22.8705 86.3706 20.1798 86.0864L19.9698 88.0754C22.6344 88.3568 25.2819 88.6893 27.9116 89.0679L28.1966 87.0883ZM226.636 6.42593C224.11 1.10398 217.748 -1.16252 212.426 1.36357C207.104 3.88966 204.838 10.2518 207.364 15.5737C209.89 20.8957 216.252 23.1622 221.574 20.6361C226.896 18.11 229.163 11.7479 226.636 6.42593ZM0.000289556 85.9998L19.8701 97.7694L20.128 74.6768L0.000289556 85.9998ZM215 10.9998C215 12.4063 214.996 13.7969 214.987 15.1717L218.987 15.1968C218.996 13.8134 219 12.4145 219 10.9998L215 10.9998ZM214.672 31.1125C214.576 33.8952 214.459 36.6026 214.321 39.2364L218.316 39.4452C218.455 36.7867 218.573 34.0557 218.67 31.2505L214.672 31.1125ZM213.156 55.1582C212.892 57.8789 212.602 60.5032 212.284 63.0341L216.253 63.5325C216.576 60.9617 216.87 58.2995 217.137 55.5434L213.156 55.1582ZM209.72 78.7897C209.164 81.4838 208.566 84.0356 207.927 86.4509L211.795 87.4731C212.453 84.9815 213.068 82.3582 213.637 79.5982L209.72 78.7897ZM202.799 101.225C201.653 103.746 200.436 106.023 199.151 108.076L202.542 110.198C203.93 107.981 205.229 105.546 206.44 102.881L202.799 101.225ZM188.831 119.197C186.727 120.635 184.503 121.769 182.157 122.633L183.539 126.386C186.185 125.412 188.705 124.128 191.088 122.499L188.831 119.197ZM167.115 124.832C164.623 124.771 162.033 124.544 159.345 124.171L158.795 128.134C161.61 128.524 164.352 128.765 167.016 128.831L167.115 124.832ZM143.891 120.85C141.402 120.164 138.855 119.405 136.251 118.586L135.051 122.402C137.692 123.233 140.285 124.005 142.828 124.706L143.891 120.85ZM121.087 113.446C118.607 112.562 116.086 111.649 113.526 110.717L112.157 114.475C114.722 115.409 117.252 116.325 119.744 117.214L121.087 113.446ZM98.4025 105.211C95.9074 104.312 93.3805 103.412 90.8232 102.515L89.5005 106.29C92.0443 107.182 94.56 108.079 97.0471 108.974L98.4025 105.211ZM75.513 97.3775C72.9632 96.566 70.387 95.7713 67.7854 94.9995L66.6478 98.8343C69.2219 99.598 71.7729 100.385 74.3 101.189L75.513 97.3775ZM52.1868 90.7678C49.5749 90.1304 46.9404 89.5256 44.2841 88.9591L43.4497 92.8711C46.0658 93.4291 48.6622 94.025 51.2385 94.6537L52.1868 90.7678ZM28.3391 86.0985C25.6735 85.7147 22.9885 85.3775 20.2848 85.092L19.8647 89.0698C22.5163 89.3499 25.1513 89.6808 27.7691 90.0577L28.3391 86.0985Z" fill="#FCD444"/>
</svg>
