<svg width="300" height="164" viewBox="0 0 300 164" fill="none" xmlns="http://www.w3.org/2000/svg">
<g clip-path="url(#clip0_39_340)">
<rect width="300" height="164" rx="12" fill="#EA4335"/>
<path d="M223.489 115.778C221.008 115.778 218.628 116.764 216.874 118.518C215.119 120.273 214.133 122.652 214.133 125.133V143.845C214.133 146.326 215.119 148.705 216.874 150.46C218.628 152.214 221.008 153.2 223.489 153.2C225.97 153.2 228.35 152.214 230.104 150.46C231.859 148.705 232.845 146.326 232.845 143.845V125.133C232.845 122.652 231.859 120.273 230.104 118.518C228.35 116.764 225.97 115.778 223.489 115.778ZM335.756 125.133C338.237 125.133 340.617 124.148 342.371 122.393C344.126 120.639 345.111 118.259 345.111 115.778V78.3556C345.111 75.8743 344.126 73.4947 342.371 71.7402C340.617 69.9857 338.237 69 335.756 69H167.356C164.874 69 162.495 69.9857 160.74 71.7402C158.986 73.4947 158 75.8743 158 78.3556V115.778C158 118.259 158.986 120.639 160.74 122.393C162.495 124.148 164.874 125.133 167.356 125.133C169.837 125.133 172.216 126.119 173.971 127.874C175.725 129.628 176.711 132.008 176.711 134.489C176.711 136.97 175.725 139.35 173.971 141.104C172.216 142.859 169.837 143.845 167.356 143.845C164.874 143.845 162.495 144.83 160.74 146.585C158.986 148.339 158 150.719 158 153.2V190.622C158 193.104 158.986 195.483 160.74 197.238C162.495 198.992 164.874 199.978 167.356 199.978H335.756C338.237 199.978 340.617 198.992 342.371 197.238C344.126 195.483 345.111 193.104 345.111 190.622V153.2C345.111 150.719 344.126 148.339 342.371 146.585C340.617 144.83 338.237 143.845 335.756 143.845C333.274 143.845 330.895 142.859 329.14 141.104C327.386 139.35 326.4 136.97 326.4 134.489C326.4 132.008 327.386 129.628 329.14 127.874C330.895 126.119 333.274 125.133 335.756 125.133ZM326.4 108.106C320.982 110.073 316.3 113.66 312.992 118.38C309.684 123.1 307.909 128.725 307.909 134.489C307.909 140.253 309.684 145.877 312.992 150.598C316.3 155.318 320.982 158.905 326.4 160.872V181.267H232.845C232.845 178.786 231.859 176.406 230.104 174.651C228.35 172.897 225.97 171.911 223.489 171.911C221.008 171.911 218.628 172.897 216.874 174.651C215.119 176.406 214.133 178.786 214.133 181.267H176.711V160.872C182.129 158.905 186.811 155.318 190.119 150.598C193.427 145.877 195.202 140.253 195.202 134.489C195.202 128.725 193.427 123.1 190.119 118.38C186.811 113.66 182.129 110.073 176.711 108.106V87.7111H214.133C214.133 90.1924 215.119 92.572 216.874 94.3265C218.628 96.081 221.008 97.0667 223.489 97.0667C225.97 97.0667 228.35 96.081 230.104 94.3265C231.859 92.572 232.845 90.1924 232.845 87.7111H326.4V108.106Z" fill="#FFB3B3" fill-opacity="0.2"/>
<path d="M16 76V66.6667C16 64.8333 16.4528 63.1111 17.3584 61.5C18.2641 59.8889 19.516 58.6667 21.1142 57.8333C23.831 56.3889 26.8942 55.1667 30.3037 54.1667C33.7131 53.1667 37.4688 52.6667 41.5708 52.6667C45.6728 52.6667 49.4285 53.1667 52.8379 54.1667C56.2473 55.1667 59.3105 56.3889 62.0274 57.8333C63.6256 58.6667 64.8775 59.8889 65.7831 61.5C66.6887 63.1111 67.1415 64.8333 67.1415 66.6667V76H16ZM41.5708 49.3333C38.0548 49.3333 35.0449 48.0278 32.5411 45.4167C30.0373 42.8056 28.7854 39.6667 28.7854 36H27.9863C27.5068 36 27.1212 35.8467 26.8292 35.54C26.5373 35.2333 26.3903 34.8311 26.3881 34.3333C26.3881 33.8333 26.5352 33.43 26.8292 33.1233C27.1233 32.8167 27.509 32.6644 27.9863 32.6667H28.7854C28.7854 30.1667 29.3714 27.9167 30.5434 25.9167C31.7154 23.9167 33.2603 22.3333 35.1781 21.1667V24.3333C35.1781 24.8333 35.3251 25.2367 35.6192 25.5433C35.9132 25.85 36.2989 26.0022 36.7763 26C37.2557 26 37.6425 25.8467 37.9365 25.54C38.2306 25.2333 38.3766 24.8311 38.3744 24.3333V19.8333C38.8539 19.6667 39.36 19.5411 39.8927 19.4567C40.4254 19.3722 40.9848 19.3311 41.5708 19.3333C42.1568 19.3333 42.7161 19.3756 43.2489 19.46C43.7816 19.5444 44.2877 19.6689 44.7671 19.8333V24.3333C44.7671 24.8333 44.9142 25.2367 45.2082 25.5433C45.5023 25.85 45.888 26.0022 46.3653 26C46.8447 26 47.2315 25.8467 47.5256 25.54C47.8196 25.2333 47.9656 24.8311 47.9635 24.3333V21.1667C49.8813 22.3333 51.4262 23.9167 52.5982 25.9167C53.7702 27.9167 54.3562 30.1667 54.3562 32.6667H55.1552C55.6347 32.6667 56.0215 32.82 56.3155 33.1267C56.6096 33.4333 56.7556 33.8356 56.7534 34.3333C56.7534 34.8333 56.6064 35.2367 56.3123 35.5433C56.0183 35.85 55.6326 36.0022 55.1552 36H54.3562C54.3562 39.6667 53.1043 42.8056 50.6005 45.4167C48.0966 48.0278 45.0868 49.3333 41.5708 49.3333ZM41.5708 42.6667C43.3288 42.6667 44.8342 42.0133 46.0872 40.7067C47.3402 39.4 47.9656 37.8311 47.9635 36H35.1781C35.1781 37.8333 35.8046 39.4033 37.0575 40.71C38.3105 42.0167 39.8149 42.6689 41.5708 42.6667ZM65.5434 56L65.0639 53.5C64.7443 53.3889 64.4385 53.2633 64.1466 53.1233C63.8546 52.9833 63.5744 52.7756 63.3059 52.5L61.0685 53.3333L59.4703 50.3333L61.2283 48.6667V46.6667L59.4703 45L61.0685 42L63.3059 42.8333C63.519 42.6111 63.7854 42.4167 64.105 42.25C64.4247 42.0833 64.7443 41.9444 65.0639 41.8333L65.5434 39.3333H68.7397L69.2192 41.8333C69.5388 41.9444 69.8584 42.0833 70.1781 42.25C70.4977 42.4167 70.7641 42.6111 70.9772 42.8333L73.2146 42L74.8128 45L73.0548 46.6667V48.6667L74.8128 50.3333L73.2146 53.3333L70.9772 52.5C70.7108 52.7778 70.4306 52.9867 70.1365 53.1267C69.8425 53.2667 69.5367 53.3911 69.2192 53.5L68.7397 56H65.5434ZM67.1415 50.1667C67.7808 50.1667 68.3402 49.9167 68.8196 49.4167C69.2991 48.9167 69.5388 48.3333 69.5388 47.6667C69.5388 47 69.2991 46.4167 68.8196 45.9167C68.3402 45.4167 67.7808 45.1667 67.1415 45.1667C66.5023 45.1667 65.9429 45.4167 65.4635 45.9167C64.984 46.4167 64.7443 47 64.7443 47.6667C64.7443 48.3333 64.984 48.9167 65.4635 49.4167C65.9429 49.9167 66.5023 50.1667 67.1415 50.1667ZM72.895 39.3333L72.2557 35.8333C71.7763 35.6667 71.3373 35.4578 70.9388 35.2067C70.5403 34.9556 70.1802 34.6644 69.8584 34.3333L66.5023 35.5L64.2648 31.5L66.9817 29C66.8752 28.7222 66.8219 28.5 66.8219 28.3333V27C66.8219 26.8333 66.8752 26.6111 66.9817 26.3333L64.2648 23.8333L66.5023 19.8333L69.8584 21C70.1781 20.6667 70.5382 20.3744 70.9388 20.1233C71.3394 19.8722 71.7784 19.6644 72.2557 19.5L72.895 16H77.3699L78.0091 19.5C78.4886 19.6667 78.9286 19.8756 79.3292 20.1267C79.7298 20.3778 80.0889 20.6689 80.4064 21L83.7626 19.8333L86 23.8333L83.2831 26.3333C83.3896 26.6111 83.4429 26.8333 83.4429 27V28.3333C83.4429 28.5 83.3896 28.7222 83.2831 29L86 31.5L83.7626 35.5L80.4064 34.3333C80.0868 34.6667 79.7277 34.9589 79.3292 35.21C78.9307 35.4611 78.4907 35.6689 78.0091 35.8333L77.3699 39.3333H72.895ZM75.1324 31.8333C76.2511 31.8333 77.1973 31.43 77.9708 30.6233C78.7443 29.8167 79.13 28.8311 79.1278 27.6667C79.1278 26.5 78.7411 25.5133 77.9676 24.7067C77.1941 23.9 76.249 23.4978 75.1324 23.5C74.0137 23.5 73.0676 23.9033 72.2941 24.71C71.5205 25.5167 71.1348 26.5022 71.137 27.6667C71.137 28.8333 71.5237 29.82 72.2973 30.6267C73.0708 31.4333 74.0158 31.8356 75.1324 31.8333Z" fill="white"/>
<path d="M18.532 117.988V115.244C19.5213 115.244 20.1933 115.095 20.548 114.796C20.9213 114.497 21.108 113.835 21.108 112.808V96.82H24.188L24.216 113.032C24.216 115.029 23.796 116.355 22.956 117.008C22.116 117.661 20.6413 117.988 18.532 117.988ZM37.9644 113.48L38.7484 113.396L38.8044 115.664C36.6764 116.093 34.7911 116.308 33.1484 116.308C31.0764 116.308 29.5831 115.739 28.6684 114.6C27.7724 113.461 27.3244 111.641 27.3244 109.14C27.3244 104.175 29.3498 101.692 33.4004 101.692C37.3204 101.692 39.2804 103.829 39.2804 108.104L39.0844 110.288H30.4044C30.4231 111.445 30.6751 112.295 31.1604 112.836C31.6458 113.377 32.5511 113.648 33.8764 113.648C35.2018 113.648 36.5644 113.592 37.9644 113.48ZM36.2844 107.936C36.2844 106.555 36.0604 105.593 35.6124 105.052C35.1831 104.492 34.4458 104.212 33.4004 104.212C32.3551 104.212 31.5898 104.501 31.1044 105.08C30.6378 105.659 30.3951 106.611 30.3764 107.936H36.2844ZM52.1832 113.48L52.9672 113.396L53.0232 115.664C50.8952 116.093 49.0099 116.308 47.3672 116.308C45.2952 116.308 43.8019 115.739 42.8872 114.6C41.9912 113.461 41.5432 111.641 41.5432 109.14C41.5432 104.175 43.5685 101.692 47.6192 101.692C51.5392 101.692 53.4992 103.829 53.4992 108.104L53.3032 110.288H44.6232C44.6419 111.445 44.8939 112.295 45.3792 112.836C45.8645 113.377 46.7699 113.648 48.0952 113.648C49.4205 113.648 50.7832 113.592 52.1832 113.48ZM50.5032 107.936C50.5032 106.555 50.2792 105.593 49.8312 105.052C49.4019 104.492 48.6645 104.212 47.6192 104.212C46.5739 104.212 45.8085 104.501 45.3232 105.08C44.8565 105.659 44.6139 106.611 44.5952 107.936H50.5032ZM66.1423 101.272C65.5823 103.848 65.3023 105.948 65.3023 107.572C65.3023 109.196 65.5169 111.007 65.9463 113.004C66.3943 114.983 66.8423 116.56 67.2903 117.736L67.9623 119.5H65.0783C64.8169 119.071 64.4809 118.352 64.0703 117.344C63.6596 116.355 63.3143 115.421 63.0343 114.544C62.7543 113.648 62.5023 112.565 62.2783 111.296C62.0543 110.008 61.9423 108.589 61.9423 107.04C61.9423 105.491 62.2036 103.671 62.7263 101.58C63.2489 99.4893 63.7716 97.8747 64.2943 96.736L65.0783 95H67.9623C67.3276 96.6053 66.7209 98.696 66.1423 101.272ZM71.044 116V96.82H76.448L80.732 111.8L85.016 96.82H90.448V116H87.312V100.264H86.892L82.356 115.216H79.108L74.572 100.264H74.152V116H71.044ZM104.829 106.312V112.696C104.848 113.107 104.95 113.415 105.137 113.62C105.342 113.807 105.65 113.928 106.061 113.984L105.977 116.308C104.372 116.308 103.13 115.963 102.253 115.272C100.76 115.963 99.2571 116.308 97.7451 116.308C94.9638 116.308 93.5731 114.824 93.5731 111.856C93.5731 110.437 93.9464 109.411 94.6931 108.776C95.4584 108.141 96.6251 107.759 98.1931 107.628L101.805 107.32V106.312C101.805 105.565 101.637 105.043 101.301 104.744C100.984 104.445 100.508 104.296 99.8731 104.296C98.6784 104.296 97.1851 104.371 95.3931 104.52L94.4971 104.576L94.3851 102.42C96.4198 101.935 98.2864 101.692 99.9851 101.692C101.702 101.692 102.934 102.065 103.681 102.812C104.446 103.54 104.829 104.707 104.829 106.312ZM98.5571 109.784C97.2691 109.896 96.6251 110.596 96.6251 111.884C96.6251 113.172 97.1944 113.816 98.3331 113.816C99.2664 113.816 100.256 113.667 101.301 113.368L101.805 113.2V109.476L98.5571 109.784ZM108.66 116V102H111.713V116H108.66ZM108.66 99.62V96.4H111.713V99.62H108.66ZM118.466 116H115.414V102H118.438V102.868C119.801 102.084 121.089 101.692 122.302 101.692C124.169 101.692 125.438 102.224 126.11 103.288C126.801 104.333 127.146 106.069 127.146 108.496V116H124.122V108.58C124.122 107.068 123.954 105.995 123.618 105.36C123.301 104.725 122.638 104.408 121.63 104.408C120.678 104.408 119.764 104.595 118.886 104.968L118.466 105.136V116ZM136.46 110.344V107.6H141.444V102.588H144.188V107.6H149.228V110.344H144.188V115.412H141.444V110.344H136.46ZM157.384 116L162.116 96.82H168.304L173.064 116H169.928L168.892 111.884H161.528L160.492 116H157.384ZM164.524 99.424L162.144 109.14H168.276L165.924 99.424H164.524ZM186.721 96.176V116H183.697V115.272C182.335 115.963 181.084 116.308 179.945 116.308C178.116 116.308 176.772 115.757 175.913 114.656C175.073 113.555 174.653 111.707 174.653 109.112C174.653 106.517 175.12 104.632 176.053 103.456C177.005 102.28 178.48 101.692 180.477 101.692C181.149 101.692 182.213 101.813 183.669 102.056V96.176H186.721ZM183.193 113.088L183.669 112.892V104.604C182.549 104.417 181.513 104.324 180.561 104.324C178.676 104.324 177.733 105.892 177.733 109.028C177.733 110.745 177.948 111.94 178.377 112.612C178.825 113.265 179.525 113.592 180.477 113.592C181.429 113.592 182.335 113.424 183.193 113.088ZM189.102 102H192.294L194.982 113.396H195.878L198.678 102H201.786L198.146 116H192.714L189.102 102ZM214.341 106.312V112.696C214.359 113.107 214.462 113.415 214.649 113.62C214.854 113.807 215.162 113.928 215.573 113.984L215.489 116.308C213.883 116.308 212.642 115.963 211.765 115.272C210.271 115.963 208.769 116.308 207.257 116.308C204.475 116.308 203.085 114.824 203.085 111.856C203.085 110.437 203.458 109.411 204.205 108.776C204.97 108.141 206.137 107.759 207.705 107.628L211.317 107.32V106.312C211.317 105.565 211.149 105.043 210.813 104.744C210.495 104.445 210.019 104.296 209.385 104.296C208.19 104.296 206.697 104.371 204.905 104.52L204.009 104.576L203.897 102.42C205.931 101.935 207.798 101.692 209.497 101.692C211.214 101.692 212.446 102.065 213.193 102.812C213.958 103.54 214.341 104.707 214.341 106.312ZM208.069 109.784C206.781 109.896 206.137 110.596 206.137 111.884C206.137 113.172 206.706 113.816 207.845 113.816C208.778 113.816 209.767 113.667 210.813 113.368L211.317 113.2V109.476L208.069 109.784ZM221.224 116H218.172V102H221.196V102.868C222.559 102.084 223.847 101.692 225.06 101.692C226.927 101.692 228.196 102.224 228.868 103.288C229.559 104.333 229.904 106.069 229.904 108.496V116H226.88V108.58C226.88 107.068 226.712 105.995 226.376 105.36C226.059 104.725 225.396 104.408 224.388 104.408C223.436 104.408 222.522 104.595 221.644 104.968L221.224 105.136V116ZM238.693 101.692C239.683 101.692 240.849 101.823 242.193 102.084L242.893 102.224L242.781 104.632C241.307 104.483 240.215 104.408 239.505 104.408C238.087 104.408 237.135 104.725 236.649 105.36C236.164 105.995 235.921 107.189 235.921 108.944C235.921 110.699 236.155 111.912 236.621 112.584C237.088 113.256 238.059 113.592 239.533 113.592L242.809 113.368L242.893 115.804C241.008 116.14 239.589 116.308 238.637 116.308C236.509 116.308 235.007 115.739 234.129 114.6C233.271 113.443 232.841 111.557 232.841 108.944C232.841 106.331 233.299 104.473 234.213 103.372C235.128 102.252 236.621 101.692 238.693 101.692ZM255.675 113.48L256.459 113.396L256.515 115.664C254.387 116.093 252.502 116.308 250.859 116.308C248.787 116.308 247.294 115.739 246.379 114.6C245.483 113.461 245.035 111.641 245.035 109.14C245.035 104.175 247.061 101.692 251.111 101.692C255.031 101.692 256.991 103.829 256.991 108.104L256.795 110.288H248.115C248.134 111.445 248.386 112.295 248.871 112.836C249.357 113.377 250.262 113.648 251.587 113.648C252.913 113.648 254.275 113.592 255.675 113.48ZM253.995 107.936C253.995 106.555 253.771 105.593 253.323 105.052C252.894 104.492 252.157 104.212 251.111 104.212C250.066 104.212 249.301 104.501 248.815 105.08C248.349 105.659 248.106 106.611 248.087 107.936H253.995ZM271.35 96.176V116H268.326V115.272C266.963 115.963 265.713 116.308 264.574 116.308C262.745 116.308 261.401 115.757 260.542 114.656C259.702 113.555 259.282 111.707 259.282 109.112C259.282 106.517 259.749 104.632 260.682 103.456C261.634 102.28 263.109 101.692 265.106 101.692C265.778 101.692 266.842 101.813 268.298 102.056V96.176H271.35ZM267.822 113.088L268.298 112.892V104.604C267.178 104.417 266.142 104.324 265.19 104.324C263.305 104.324 262.362 105.892 262.362 109.028C262.362 110.745 262.577 111.94 263.006 112.612C263.454 113.265 264.154 113.592 265.106 113.592C266.058 113.592 266.963 113.424 267.822 113.088ZM279.751 103.792C279.975 105.117 280.087 106.377 280.087 107.572C280.087 108.767 279.975 109.999 279.751 111.268C279.546 112.519 279.285 113.611 278.967 114.544C278.333 116.523 277.773 117.979 277.287 118.912L276.951 119.5H274.067C274.273 119.015 274.515 118.361 274.795 117.54C275.094 116.737 275.486 115.281 275.971 113.172C276.475 111.063 276.727 109.196 276.727 107.572C276.727 105.948 276.503 104.091 276.055 102C275.626 99.8907 275.187 98.192 274.739 96.904L274.067 95H276.951C277.213 95.4853 277.549 96.2693 277.959 97.352C278.37 98.4347 278.715 99.452 278.995 100.404C279.275 101.337 279.527 102.467 279.751 103.792Z" fill="white"/>
<path d="M95.06 148.78C93.6867 149.06 92.4533 149.2 91.36 149.2C90.2667 149.2 89.38 149.053 88.7 148.76C88.0333 148.453 87.5133 147.987 87.14 147.36C86.78 146.72 86.5267 145.993 86.38 145.18C86.2467 144.353 86.18 143.327 86.18 142.1C86.18 140.873 86.2467 139.847 86.38 139.02C86.5267 138.18 86.78 137.44 87.14 136.8C87.5133 136.16 88.0333 135.693 88.7 135.4C89.3667 135.107 90.2333 134.96 91.3 134.96C92.3667 134.96 93.62 135.107 95.06 135.4L95 136.7C93.6533 136.46 92.4533 136.34 91.4 136.34C89.9333 136.34 88.96 136.78 88.48 137.66C88.0133 138.527 87.78 140.013 87.78 142.12C87.78 143.173 87.82 144.02 87.9 144.66C87.9933 145.3 88.1667 145.88 88.42 146.4C88.6733 146.907 89.04 147.273 89.52 147.5C90.0133 147.713 90.7267 147.82 91.66 147.82C92.6067 147.82 93.72 147.7 95 147.46L95.06 148.78ZM97.4389 149V134.64H98.9389V149H97.4389ZM109.008 142.02V147.14C109.048 147.633 109.434 147.927 110.168 148.02L110.108 149.2C109.054 149.2 108.261 148.933 107.728 148.4C106.528 148.933 105.328 149.2 104.128 149.2C103.208 149.2 102.508 148.94 102.028 148.42C101.548 147.9 101.308 147.153 101.308 146.18C101.308 145.207 101.554 144.493 102.048 144.04C102.541 143.573 103.314 143.287 104.368 143.18L107.508 142.88V142.02C107.508 141.34 107.361 140.853 107.068 140.56C106.774 140.267 106.374 140.12 105.868 140.12C104.801 140.12 103.694 140.187 102.548 140.32L101.928 140.38L101.868 139.24C103.334 138.947 104.634 138.8 105.768 138.8C106.901 138.8 107.721 139.06 108.228 139.58C108.748 140.1 109.008 140.913 109.008 142.02ZM102.848 146.1C102.848 147.327 103.354 147.94 104.368 147.94C105.274 147.94 106.168 147.787 107.048 147.48L107.508 147.32V144.02L104.548 144.3C103.948 144.353 103.514 144.527 103.248 144.82C102.981 145.113 102.848 145.54 102.848 146.1ZM115.107 140.14C113.654 140.14 112.927 140.647 112.927 141.66C112.927 142.127 113.094 142.46 113.427 142.66C113.761 142.847 114.521 143.047 115.707 143.26C116.894 143.46 117.734 143.747 118.227 144.12C118.721 144.493 118.967 145.193 118.967 146.22C118.967 147.247 118.634 148 117.967 148.48C117.314 148.96 116.354 149.2 115.087 149.2C114.261 149.2 113.287 149.107 112.167 148.92L111.567 148.82L111.647 147.52C113.167 147.747 114.314 147.86 115.087 147.86C115.861 147.86 116.447 147.74 116.847 147.5C117.261 147.247 117.467 146.833 117.467 146.26C117.467 145.673 117.294 145.28 116.947 145.08C116.601 144.867 115.841 144.667 114.667 144.48C113.494 144.293 112.661 144.02 112.167 143.66C111.674 143.3 111.427 142.633 111.427 141.66C111.427 140.687 111.767 139.967 112.447 139.5C113.141 139.033 114.001 138.8 115.027 138.8C115.841 138.8 116.861 138.893 118.087 139.08L118.647 139.18L118.607 140.46C117.127 140.247 115.961 140.14 115.107 140.14ZM124.404 140.14C122.951 140.14 122.224 140.647 122.224 141.66C122.224 142.127 122.391 142.46 122.724 142.66C123.058 142.847 123.818 143.047 125.004 143.26C126.191 143.46 127.031 143.747 127.524 144.12C128.018 144.493 128.264 145.193 128.264 146.22C128.264 147.247 127.931 148 127.264 148.48C126.611 148.96 125.651 149.2 124.384 149.2C123.558 149.2 122.584 149.107 121.464 148.92L120.864 148.82L120.944 147.52C122.464 147.747 123.611 147.86 124.384 147.86C125.158 147.86 125.744 147.74 126.144 147.5C126.558 147.247 126.764 146.833 126.764 146.26C126.764 145.673 126.591 145.28 126.244 145.08C125.898 144.867 125.138 144.667 123.964 144.48C122.791 144.293 121.958 144.02 121.464 143.66C120.971 143.3 120.724 142.633 120.724 141.66C120.724 140.687 121.064 139.967 121.744 139.5C122.438 139.033 123.298 138.8 124.324 138.8C125.138 138.8 126.158 138.893 127.384 139.08L127.944 139.18L127.904 140.46C126.424 140.247 125.258 140.14 124.404 140.14ZM135.636 135.16L139.136 141.08L142.656 135.16H144.316L140.056 142.18L144.316 149H142.576L139.096 143.26L135.556 149H133.896L138.176 142.22L133.896 135.16H135.636ZM146.368 149V135.16H147.908V149H146.368ZM150.27 151.46L151.19 146.86H152.85L151.51 151.46H150.27ZM160.558 135.16L164.058 141.08L167.578 135.16H169.238L164.978 142.18L169.238 149H167.498L164.018 143.26L160.478 149H158.818L163.098 142.22L158.818 135.16H160.558ZM171.29 149V135.16H172.83V149H171.29ZM176.212 149V135.16H177.752V149H176.212ZM180.114 151.46L181.034 146.86H182.694L181.354 151.46H180.114ZM190.401 135.16L193.901 141.08L197.421 135.16H199.081L194.821 142.18L199.081 149H197.341L193.861 143.26L190.321 149H188.661L192.941 142.22L188.661 135.16H190.401ZM201.134 149V135.16H202.674V149H201.134ZM206.055 149V135.16H207.595V149H206.055ZM210.977 149V135.16H212.517V149H210.977Z" fill="white"/>
</g>
<defs>
<clipPath id="clip0_39_340">
<rect width="300" height="164" rx="12" fill="white"/>
</clipPath>
</defs>
</svg>
