<svg width="300" height="164" viewBox="0 0 300 164" fill="none" xmlns="http://www.w3.org/2000/svg">
<g clip-path="url(#clip0_39_374)">
<rect width="300" height="164" rx="12" fill="#4285F4"/>
<g opacity="0.1">
<path d="M307.937 28.188C268.98 53.6676 220.511 65.2347 162.881 63.7096V69.592C224.875 71.1995 277.066 57.8301 318.333 28.188H307.937ZM316.387 39.7682L288.9 54.8771L317.753 74.8098L316.388 39.7682H316.387ZM280.608 58.5486L250.537 67.4676L274.491 93.0792L280.608 58.5489V58.5486ZM238.624 70.1445L207.596 74.7373L227.703 103.469L238.624 70.1445ZM195.058 75.4917L163.706 76.4451L180.335 107.32L195.057 75.4917H195.058ZM162.881 112.308V118.405C238.526 139.079 283.404 144.973 318.404 146.153V140.272C283.628 139.097 239.023 133.21 162.881 112.307V112.308ZM177.054 129.051L184.913 163.227L207.539 136.435L177.054 129.051ZM226.407 141.3L236.19 174.975L257.26 146.943L226.407 141.3ZM276.425 149.287L289.695 181.748L307.701 151.656L276.425 149.287Z" fill="white"/>
</g>
<path d="M75.2077 53.6265L70.5744 49.8762C70.7937 48.6038 70.9069 47.3046 70.9069 46.0054C70.9069 44.7062 70.7937 43.407 70.5744 42.1346L75.2077 38.3844C75.5572 38.1011 75.8073 37.7239 75.9248 37.3028C76.0424 36.8817 76.0217 36.4368 75.8656 36.0271L75.8019 35.8529C74.5264 32.4779 72.6163 29.3492 70.1641 26.6179L70.0368 26.4773C69.7393 26.1461 69.3428 25.9081 68.8996 25.7945C68.4563 25.681 67.9872 25.6972 67.5539 25.8411L61.8029 27.7765C59.6807 26.1291 57.311 24.8299 54.7503 23.9191L53.6397 18.2267C53.5559 17.7984 53.3364 17.4044 53.0105 17.0969C52.6845 16.7895 52.2674 16.5833 51.8147 16.5056L51.6237 16.4721C47.9382 15.8426 44.0618 15.8426 40.3763 16.4721L40.1853 16.5056C39.7326 16.5833 39.3155 16.7895 38.9895 17.0969C38.6636 17.4044 38.4441 17.7984 38.3603 18.2267L37.2426 23.9459C34.7024 24.8568 32.3367 26.1553 30.2396 27.7899L24.4461 25.8411C24.013 25.696 23.5434 25.6792 23.1 25.7929C22.6565 25.9065 22.26 26.1452 21.9632 26.4773L21.8359 26.6179C19.3866 29.3511 17.4769 32.4793 16.1981 35.8529L16.1344 36.0271C15.8161 36.8642 16.0778 37.8017 16.7923 38.3844L21.4822 42.1748C21.2629 43.4338 21.1568 44.7196 21.1568 45.9987C21.1568 47.2845 21.2629 48.5703 21.4822 49.8227L16.7923 53.6131C16.4428 53.8963 16.1927 54.2736 16.0752 54.6947C15.9577 55.1157 15.9783 55.5607 16.1344 55.9704L16.1981 56.1445C17.4784 59.5198 19.3742 62.6338 21.8359 65.3795L21.9632 65.5202C22.2607 65.8513 22.6572 66.0894 23.1004 66.2029C23.5437 66.3165 24.0128 66.3003 24.4461 66.1564L30.2396 64.2076C32.3476 65.8483 34.7031 67.1475 37.2426 68.0516L38.3603 73.7708C38.4441 74.1991 38.6636 74.5931 38.9895 74.9005C39.3155 75.208 39.7326 75.4142 40.1853 75.4919L40.3763 75.5253C44.0956 76.1582 47.9044 76.1582 51.6237 75.5253L51.8147 75.4919C52.2674 75.4142 52.6845 75.208 53.0105 74.9005C53.3364 74.5931 53.5559 74.1991 53.6397 73.7708L54.7503 68.0784C57.31 67.17 59.6931 65.8666 61.8029 64.221L67.5539 66.1564C67.987 66.3014 68.4566 66.3182 68.9001 66.2046C69.3435 66.091 69.74 65.8522 70.0368 65.5202L70.1641 65.3795C72.6258 62.6271 74.5216 59.5198 75.8019 56.1445L75.8656 55.9704C76.1839 55.1467 75.9222 54.2091 75.2077 53.6265ZM65.552 42.9249C65.7288 43.9361 65.8208 44.9741 65.8208 46.0121C65.8208 47.0501 65.7288 48.0882 65.552 49.0994L65.0851 51.7849L70.3692 56.0642C69.5682 57.8113 68.557 59.4652 67.3558 60.9931L60.7913 58.7898L58.5701 60.5176C56.8795 61.8302 54.9979 62.8615 52.9606 63.5848L50.2655 64.5424L48.9993 71.0384C47.0014 71.2527 44.9844 71.2527 42.9866 71.0384L41.7204 64.529L39.0465 63.558C37.0304 62.8347 35.1559 61.8034 33.4794 60.4975L31.2582 58.763L24.6513 60.9864C23.4487 59.4528 22.4442 57.7987 21.6378 56.0575L26.9786 51.738L26.5188 49.0592C26.349 48.0614 26.257 47.0301 26.257 46.0121C26.257 44.9875 26.3419 43.9629 26.5188 42.965L26.9786 40.2863L21.6378 35.9668C22.4372 34.2189 23.4487 32.5715 24.6513 31.0379L31.2582 33.2612L33.4794 31.5267C35.1559 30.2209 37.0304 29.1895 39.0465 28.4663L41.7274 27.5086L42.9936 20.9992C44.9814 20.7849 47.0116 20.7849 49.0064 20.9992L50.2726 27.4952L52.9677 28.4529C54.9979 29.1761 56.8866 30.2075 58.5772 31.5201L60.7984 33.2478L67.3629 31.0446C68.5654 32.5782 69.5699 34.2323 70.3763 35.9735L65.0922 40.2528L65.552 42.9249ZM46.0071 33.5559C39.1313 33.5559 33.5572 38.8331 33.5572 45.3424C33.5572 51.8518 39.1313 57.129 46.0071 57.129C52.8828 57.129 58.457 51.8518 58.457 45.3424C58.457 38.8331 52.8828 33.5559 46.0071 33.5559ZM51.6095 50.6464C50.8747 51.344 50.0014 51.8973 49.04 52.2742C48.0785 52.6512 47.0478 52.8445 46.0071 52.843C43.892 52.843 41.9043 52.0594 40.4046 50.6464C39.6677 49.9507 39.0833 49.124 38.6851 48.2137C38.287 47.3035 38.0828 46.3277 38.0844 45.3424C38.0844 43.3401 38.9121 41.4582 40.4046 40.0385C41.9043 38.6188 43.892 37.8419 46.0071 37.8419C48.1221 37.8419 50.1099 38.6188 51.6095 40.0385C52.3465 40.7342 52.9308 41.5609 53.329 42.4712C53.7272 43.3814 53.9314 44.3572 53.9297 45.3424C53.9297 47.3448 53.1021 49.2266 51.6095 50.6464Z" fill="white"/>
<path d="M106.532 117.988V115.244C107.521 115.244 108.193 115.095 108.548 114.796C108.921 114.497 109.108 113.835 109.108 112.808V96.82H112.188L112.216 113.032C112.216 115.029 111.796 116.355 110.956 117.008C110.116 117.661 108.641 117.988 106.532 117.988ZM125.964 113.48L126.748 113.396L126.804 115.664C124.676 116.093 122.791 116.308 121.148 116.308C119.076 116.308 117.583 115.739 116.668 114.6C115.772 113.461 115.324 111.641 115.324 109.14C115.324 104.175 117.35 101.692 121.4 101.692C125.32 101.692 127.28 103.829 127.28 108.104L127.084 110.288H118.404C118.423 111.445 118.675 112.295 119.16 112.836C119.646 113.377 120.551 113.648 121.876 113.648C123.202 113.648 124.564 113.592 125.964 113.48ZM124.284 107.936C124.284 106.555 124.06 105.593 123.612 105.052C123.183 104.492 122.446 104.212 121.4 104.212C120.355 104.212 119.59 104.501 119.104 105.08C118.638 105.659 118.395 106.611 118.376 107.936H124.284ZM140.183 113.48L140.967 113.396L141.023 115.664C138.895 116.093 137.01 116.308 135.367 116.308C133.295 116.308 131.802 115.739 130.887 114.6C129.991 113.461 129.543 111.641 129.543 109.14C129.543 104.175 131.569 101.692 135.619 101.692C139.539 101.692 141.499 103.829 141.499 108.104L141.303 110.288H132.623C132.642 111.445 132.894 112.295 133.379 112.836C133.865 113.377 134.77 113.648 136.095 113.648C137.421 113.648 138.783 113.592 140.183 113.48ZM138.503 107.936C138.503 106.555 138.279 105.593 137.831 105.052C137.402 104.492 136.665 104.212 135.619 104.212C134.574 104.212 133.809 104.501 133.323 105.08C132.857 105.659 132.614 106.611 132.595 107.936H138.503ZM150.95 116V96.82H156.354L160.638 111.8L164.922 96.82H170.354V116H167.218V100.264H166.798L162.262 115.216H159.014L154.478 100.264H154.058V116H150.95ZM184.735 106.312V112.696C184.754 113.107 184.857 113.415 185.043 113.62C185.249 113.807 185.557 113.928 185.967 113.984L185.883 116.308C184.278 116.308 183.037 115.963 182.159 115.272C180.666 115.963 179.163 116.308 177.651 116.308C174.87 116.308 173.479 114.824 173.479 111.856C173.479 110.437 173.853 109.411 174.599 108.776C175.365 108.141 176.531 107.759 178.099 107.628L181.711 107.32V106.312C181.711 105.565 181.543 105.043 181.207 104.744C180.89 104.445 180.414 104.296 179.779 104.296C178.585 104.296 177.091 104.371 175.299 104.52L174.403 104.576L174.291 102.42C176.326 101.935 178.193 101.692 179.891 101.692C181.609 101.692 182.841 102.065 183.587 102.812C184.353 103.54 184.735 104.707 184.735 106.312ZM178.463 109.784C177.175 109.896 176.531 110.596 176.531 111.884C176.531 113.172 177.101 113.816 178.239 113.816C179.173 113.816 180.162 113.667 181.207 113.368L181.711 113.2V109.476L178.463 109.784ZM188.567 116V102H191.619V116H188.567ZM188.567 99.62V96.4H191.619V99.62H188.567ZM198.373 116H195.321V102H198.345V102.868C199.707 102.084 200.995 101.692 202.209 101.692C204.075 101.692 205.345 102.224 206.017 103.288C206.707 104.333 207.053 106.069 207.053 108.496V116H204.029V108.58C204.029 107.068 203.861 105.995 203.525 105.36C203.207 104.725 202.545 104.408 201.537 104.408C200.585 104.408 199.67 104.595 198.793 104.968L198.373 105.136V116Z" fill="white"/>
<path d="M102.06 148.78C100.687 149.06 99.4533 149.2 98.36 149.2C97.2667 149.2 96.38 149.053 95.7 148.76C95.0333 148.453 94.5133 147.987 94.14 147.36C93.78 146.72 93.5267 145.993 93.38 145.18C93.2467 144.353 93.18 143.327 93.18 142.1C93.18 140.873 93.2467 139.847 93.38 139.02C93.5267 138.18 93.78 137.44 94.14 136.8C94.5133 136.16 95.0333 135.693 95.7 135.4C96.3667 135.107 97.2333 134.96 98.3 134.96C99.3667 134.96 100.62 135.107 102.06 135.4L102 136.7C100.653 136.46 99.4533 136.34 98.4 136.34C96.9333 136.34 95.96 136.78 95.48 137.66C95.0133 138.527 94.78 140.013 94.78 142.12C94.78 143.173 94.82 144.02 94.9 144.66C94.9933 145.3 95.1667 145.88 95.42 146.4C95.6733 146.907 96.04 147.273 96.52 147.5C97.0133 147.713 97.7267 147.82 98.66 147.82C99.6067 147.82 100.72 147.7 102 147.46L102.06 148.78ZM104.439 149V134.64H105.939V149H104.439ZM116.008 142.02V147.14C116.048 147.633 116.434 147.927 117.168 148.02L117.108 149.2C116.054 149.2 115.261 148.933 114.728 148.4C113.528 148.933 112.328 149.2 111.128 149.2C110.208 149.2 109.508 148.94 109.028 148.42C108.548 147.9 108.308 147.153 108.308 146.18C108.308 145.207 108.554 144.493 109.048 144.04C109.541 143.573 110.314 143.287 111.368 143.18L114.508 142.88V142.02C114.508 141.34 114.361 140.853 114.068 140.56C113.774 140.267 113.374 140.12 112.868 140.12C111.801 140.12 110.694 140.187 109.548 140.32L108.928 140.38L108.868 139.24C110.334 138.947 111.634 138.8 112.768 138.8C113.901 138.8 114.721 139.06 115.228 139.58C115.748 140.1 116.008 140.913 116.008 142.02ZM109.848 146.1C109.848 147.327 110.354 147.94 111.368 147.94C112.274 147.94 113.168 147.787 114.048 147.48L114.508 147.32V144.02L111.548 144.3C110.948 144.353 110.514 144.527 110.248 144.82C109.981 145.113 109.848 145.54 109.848 146.1ZM122.107 140.14C120.654 140.14 119.927 140.647 119.927 141.66C119.927 142.127 120.094 142.46 120.427 142.66C120.761 142.847 121.521 143.047 122.707 143.26C123.894 143.46 124.734 143.747 125.227 144.12C125.721 144.493 125.967 145.193 125.967 146.22C125.967 147.247 125.634 148 124.967 148.48C124.314 148.96 123.354 149.2 122.087 149.2C121.261 149.2 120.287 149.107 119.167 148.92L118.567 148.82L118.647 147.52C120.167 147.747 121.314 147.86 122.087 147.86C122.861 147.86 123.447 147.74 123.847 147.5C124.261 147.247 124.467 146.833 124.467 146.26C124.467 145.673 124.294 145.28 123.947 145.08C123.601 144.867 122.841 144.667 121.667 144.48C120.494 144.293 119.661 144.02 119.167 143.66C118.674 143.3 118.427 142.633 118.427 141.66C118.427 140.687 118.767 139.967 119.447 139.5C120.141 139.033 121.001 138.8 122.027 138.8C122.841 138.8 123.861 138.893 125.087 139.08L125.647 139.18L125.607 140.46C124.127 140.247 122.961 140.14 122.107 140.14ZM131.404 140.14C129.951 140.14 129.224 140.647 129.224 141.66C129.224 142.127 129.391 142.46 129.724 142.66C130.058 142.847 130.818 143.047 132.004 143.26C133.191 143.46 134.031 143.747 134.524 144.12C135.018 144.493 135.264 145.193 135.264 146.22C135.264 147.247 134.931 148 134.264 148.48C133.611 148.96 132.651 149.2 131.384 149.2C130.558 149.2 129.584 149.107 128.464 148.92L127.864 148.82L127.944 147.52C129.464 147.747 130.611 147.86 131.384 147.86C132.158 147.86 132.744 147.74 133.144 147.5C133.558 147.247 133.764 146.833 133.764 146.26C133.764 145.673 133.591 145.28 133.244 145.08C132.898 144.867 132.138 144.667 130.964 144.48C129.791 144.293 128.958 144.02 128.464 143.66C127.971 143.3 127.724 142.633 127.724 141.66C127.724 140.687 128.064 139.967 128.744 139.5C129.438 139.033 130.298 138.8 131.324 138.8C132.138 138.8 133.158 138.893 134.384 139.08L134.944 139.18L134.904 140.46C133.424 140.247 132.258 140.14 131.404 140.14ZM142.636 135.16L146.136 141.08L149.656 135.16H151.316L147.056 142.18L151.316 149H149.576L146.096 143.26L142.556 149H140.896L145.176 142.22L140.896 135.16H142.636ZM153.368 149V135.16H154.908V149H153.368ZM157.27 151.46L158.19 146.86H159.85L158.51 151.46H157.27ZM167.558 135.16L171.058 141.08L174.578 135.16H176.238L171.978 142.18L176.238 149H174.498L171.018 143.26L167.478 149H165.818L170.098 142.22L165.818 135.16H167.558ZM178.29 149V135.16H179.83V149H178.29ZM183.212 149V135.16H184.752V149H183.212ZM187.114 151.46L188.034 146.86H189.694L188.354 151.46H187.114ZM197.401 135.16L200.901 141.08L204.421 135.16H206.081L201.821 142.18L206.081 149H204.341L200.861 143.26L197.321 149H195.661L199.941 142.22L195.661 135.16H197.401ZM208.134 149V135.16H209.674V149H208.134ZM213.055 149V135.16H214.595V149H213.055ZM217.977 149V135.16H219.517V149H217.977Z" fill="white"/>
</g>
<defs>
<clipPath id="clip0_39_374">
<rect width="300" height="164" rx="12" fill="white"/>
</clipPath>
</defs>
</svg>
