<svg width="300" height="164" viewBox="0 0 300 164" fill="none" xmlns="http://www.w3.org/2000/svg">
<g clip-path="url(#clip0_39_408)">
<rect width="300" height="164" rx="12" fill="#FBBC04"/>
<g opacity="0.2" clip-path="url(#clip1_39_408)">
<path d="M172.565 64.0372H257.88C267.576 64.0372 275.445 71.9063 275.445 81.6021V136.806C275.445 141.465 273.595 145.932 270.3 149.226C267.006 152.521 262.539 154.371 257.88 154.371H225.872L200.036 180.197C197.989 182.236 195.384 183.623 192.55 184.185C189.715 184.746 186.778 184.455 184.109 183.349C181.439 182.244 179.157 180.373 177.549 177.972C175.941 175.571 175.08 172.748 175.074 169.858V154.371H172.565C167.906 154.371 163.439 152.521 160.145 149.226C156.851 145.932 155 141.465 155 136.806V81.6021C155 71.9063 162.869 64.0372 172.565 64.0372ZM170.056 81.6021V136.806C170.056 138.191 171.18 139.315 172.565 139.315H182.602C184.599 139.315 186.513 140.109 187.925 141.52C189.337 142.932 190.13 144.847 190.13 146.843V168.824L217.431 141.524C218.129 140.824 218.958 140.269 219.871 139.89C220.784 139.511 221.762 139.316 222.75 139.315H257.88C258.546 139.315 259.184 139.051 259.655 138.58C260.125 138.11 260.389 137.472 260.389 136.806V81.6021C260.389 80.9366 260.125 80.2984 259.655 79.8278C259.184 79.3572 258.546 79.0929 257.88 79.0929H172.565C171.899 79.0929 171.261 79.3572 170.791 79.8278C170.32 80.2984 170.056 80.9366 170.056 81.6021ZM300.538 101.676C300.538 101.011 300.274 100.373 299.803 99.902C299.332 99.4314 298.694 99.1671 298.029 99.1671H293.01C291.014 99.1671 289.099 98.374 287.687 96.9622C286.275 95.5505 285.482 93.6357 285.482 91.6392C285.482 89.6427 286.275 87.728 287.687 86.3163C289.099 84.9045 291.014 84.1114 293.01 84.1114H298.029C307.724 84.1114 315.594 91.9805 315.594 101.676V156.88C315.594 161.539 313.743 166.007 310.449 169.301C307.155 172.595 302.687 174.445 298.029 174.445H295.519V189.933C295.514 192.822 294.653 195.645 293.045 198.046C291.437 200.447 289.154 202.318 286.485 203.424C283.815 204.529 280.878 204.82 278.044 204.259C275.209 203.698 272.604 202.31 270.557 200.271L247.542 177.256C246.551 176.336 245.827 175.165 245.445 173.868C245.064 172.571 245.039 171.194 245.374 169.884C245.709 168.574 246.391 167.379 247.349 166.424C248.306 165.469 249.503 164.79 250.814 164.458C252.123 164.123 253.498 164.146 254.794 164.526C256.09 164.906 257.261 165.628 258.181 166.616L280.464 188.899V166.917C280.464 164.921 281.257 163.006 282.669 161.594C284.08 160.183 285.995 159.39 287.992 159.39H298.029C298.694 159.39 299.332 159.125 299.803 158.655C300.274 158.184 300.538 157.546 300.538 156.88V101.676Z" fill="white"/>
</g>
<path d="M27.2481 23.5C27.2481 21.5109 28.0383 19.6032 29.4448 18.1967C30.8513 16.7902 32.759 16 34.7481 16C36.7372 16 38.6449 16.7902 40.0514 18.1967C41.4579 19.6032 42.2481 21.5109 42.2481 23.5C42.2481 25.4891 41.4579 27.3968 40.0514 28.8033C38.6449 30.2098 36.7372 31 34.7481 31C32.759 31 30.8513 30.2098 29.4448 28.8033C28.0383 27.3968 27.2481 25.4891 27.2481 23.5ZM32.8731 61V72.25C32.8731 74.3242 31.1973 76 29.1231 76C27.0489 76 25.3731 74.3242 25.3731 72.25V49.7266L22.9239 53.6172C21.8223 55.375 19.502 55.8906 17.7559 54.7891C16.0098 53.6875 15.4708 51.3789 16.5723 49.6328L21.2481 42.2148C24.1661 37.5625 29.2637 34.75 34.7481 34.75C40.2325 34.75 45.3301 37.5625 48.2481 42.2031L52.9239 49.6328C54.0254 51.3906 53.4981 53.6992 51.752 54.8008C50.0059 55.9023 47.6856 55.375 46.584 53.6289L44.1231 49.7266V72.25C44.1231 74.3242 42.4473 76 40.3731 76C38.2989 76 36.6231 74.3242 36.6231 72.25V61H32.8731Z" fill="white"/>
<path d="M64.532 117.988V115.244C65.5213 115.244 66.1933 115.095 66.548 114.796C66.9213 114.497 67.108 113.835 67.108 112.808V96.82H70.188L70.216 113.032C70.216 115.029 69.796 116.355 68.956 117.008C68.116 117.661 66.6413 117.988 64.532 117.988ZM82.6172 102H85.6412V116H82.6172V115.132C81.2545 115.916 79.9945 116.308 78.8372 116.308C76.9145 116.308 75.6265 115.795 74.9732 114.768C74.3198 113.723 73.9932 111.903 73.9932 109.308V102H77.0452V109.336C77.0452 111.016 77.1852 112.145 77.4652 112.724C77.7452 113.303 78.3985 113.592 79.4252 113.592C80.4332 113.592 81.3572 113.405 82.1972 113.032L82.6172 112.864V102ZM92.3883 116H89.3363V102H92.3603V102.868C93.7229 102.084 95.0109 101.692 96.2243 101.692C98.0909 101.692 99.3603 102.224 100.032 103.288C100.723 104.333 101.068 106.069 101.068 108.496V116H98.0443V108.58C98.0443 107.068 97.8763 105.995 97.5403 105.36C97.2229 104.725 96.5603 104.408 95.5523 104.408C94.6003 104.408 93.6856 104.595 92.8083 104.968L92.3883 105.136V116ZM104.621 116V102H107.673V116H104.621ZM104.621 99.62V96.4H107.673V99.62H104.621ZM112.131 103.512C113.102 102.299 114.707 101.692 116.947 101.692C119.187 101.692 120.783 102.299 121.735 103.512C122.706 104.725 123.191 106.545 123.191 108.972C123.191 111.399 122.725 113.228 121.791 114.46C120.858 115.692 119.243 116.308 116.947 116.308C114.651 116.308 113.037 115.692 112.103 114.46C111.17 113.228 110.703 111.399 110.703 108.972C110.703 106.545 111.179 104.725 112.131 103.512ZM114.427 112.612C114.857 113.359 115.697 113.732 116.947 113.732C118.198 113.732 119.038 113.359 119.467 112.612C119.897 111.865 120.111 110.643 120.111 108.944C120.111 107.245 119.878 106.041 119.411 105.332C118.963 104.623 118.142 104.268 116.947 104.268C115.753 104.268 114.922 104.623 114.455 105.332C114.007 106.041 113.783 107.245 113.783 108.944C113.783 110.643 113.998 111.865 114.427 112.612ZM126.223 116V102H129.247V103.68C130.834 102.653 132.42 101.991 134.007 101.692V104.744C132.402 105.061 131.03 105.472 129.891 105.976L129.275 106.228V116H126.223ZM149.493 116H142.857V96.82H149.493C152.442 96.82 154.458 97.5667 155.541 99.06C156.623 100.553 157.165 102.896 157.165 106.088C157.165 107.712 157.053 109.093 156.829 110.232C156.623 111.352 156.25 112.369 155.709 113.284C154.645 115.095 152.573 116 149.493 116ZM153.945 106.088C153.945 103.773 153.655 102.103 153.077 101.076C152.498 100.049 151.303 99.536 149.493 99.536H145.965V113.256H149.493C151.341 113.256 152.573 112.575 153.189 111.212C153.487 110.521 153.683 109.784 153.777 109C153.889 108.216 153.945 107.245 153.945 106.088ZM160.43 116V102H163.482V116H160.43ZM160.43 99.62V96.4H163.482V99.62H160.43ZM165.868 102H169.06L171.748 113.396H172.644L175.444 102H178.552L174.912 116H169.48L165.868 102ZM180.938 116V102H183.99V116H180.938ZM180.938 99.62V96.4H183.99V99.62H180.938ZM197.408 104.884C195.205 104.585 193.609 104.436 192.62 104.436C191.63 104.436 190.94 104.557 190.548 104.8C190.174 105.024 189.988 105.388 189.988 105.892C189.988 106.396 190.193 106.751 190.604 106.956C191.033 107.161 192.022 107.404 193.572 107.684C195.14 107.945 196.25 108.365 196.904 108.944C197.557 109.523 197.884 110.549 197.884 112.024C197.884 113.499 197.408 114.581 196.456 115.272C195.522 115.963 194.15 116.308 192.34 116.308C191.201 116.308 189.764 116.149 188.028 115.832L187.16 115.692L187.272 113.144C189.512 113.443 191.126 113.592 192.116 113.592C193.105 113.592 193.805 113.471 194.216 113.228C194.645 112.985 194.86 112.584 194.86 112.024C194.86 111.464 194.654 111.081 194.244 110.876C193.852 110.652 192.89 110.419 191.36 110.176C189.848 109.915 188.737 109.513 188.028 108.972C187.318 108.431 186.964 107.441 186.964 106.004C186.964 104.567 187.449 103.493 188.42 102.784C189.409 102.075 190.669 101.72 192.2 101.72C193.394 101.72 194.86 101.869 196.596 102.168L197.464 102.336L197.408 104.884ZM200.817 116V102H203.869V116H200.817ZM200.817 99.62V96.4H203.869V99.62H200.817ZM208.327 103.512C209.297 102.299 210.903 101.692 213.143 101.692C215.383 101.692 216.979 102.299 217.931 103.512C218.901 104.725 219.387 106.545 219.387 108.972C219.387 111.399 218.92 113.228 217.987 114.46C217.053 115.692 215.439 116.308 213.143 116.308C210.847 116.308 209.232 115.692 208.299 114.46C207.365 113.228 206.899 111.399 206.899 108.972C206.899 106.545 207.375 104.725 208.327 103.512ZM210.623 112.612C211.052 113.359 211.892 113.732 213.143 113.732C214.393 113.732 215.233 113.359 215.663 112.612C216.092 111.865 216.307 110.643 216.307 108.944C216.307 107.245 216.073 106.041 215.607 105.332C215.159 104.623 214.337 104.268 213.143 104.268C211.948 104.268 211.117 104.623 210.651 105.332C210.203 106.041 209.979 107.245 209.979 108.944C209.979 110.643 210.193 111.865 210.623 112.612ZM225.47 116H222.418V102H225.442V102.868C226.805 102.084 228.093 101.692 229.306 101.692C231.173 101.692 232.442 102.224 233.114 103.288C233.805 104.333 234.15 106.069 234.15 108.496V116H231.126V108.58C231.126 107.068 230.958 105.995 230.622 105.36C230.305 104.725 229.642 104.408 228.634 104.408C227.682 104.408 226.768 104.595 225.89 104.968L225.47 105.136V116Z" fill="white"/>
<path d="M111.06 148.78C109.687 149.06 108.453 149.2 107.36 149.2C106.267 149.2 105.38 149.053 104.7 148.76C104.033 148.453 103.513 147.987 103.14 147.36C102.78 146.72 102.527 145.993 102.38 145.18C102.247 144.353 102.18 143.327 102.18 142.1C102.18 140.873 102.247 139.847 102.38 139.02C102.527 138.18 102.78 137.44 103.14 136.8C103.513 136.16 104.033 135.693 104.7 135.4C105.367 135.107 106.233 134.96 107.3 134.96C108.367 134.96 109.62 135.107 111.06 135.4L111 136.7C109.653 136.46 108.453 136.34 107.4 136.34C105.933 136.34 104.96 136.78 104.48 137.66C104.013 138.527 103.78 140.013 103.78 142.12C103.78 143.173 103.82 144.02 103.9 144.66C103.993 145.3 104.167 145.88 104.42 146.4C104.673 146.907 105.04 147.273 105.52 147.5C106.013 147.713 106.727 147.82 107.66 147.82C108.607 147.82 109.72 147.7 111 147.46L111.06 148.78ZM113.439 149V134.64H114.939V149H113.439ZM125.008 142.02V147.14C125.048 147.633 125.434 147.927 126.168 148.02L126.108 149.2C125.054 149.2 124.261 148.933 123.728 148.4C122.528 148.933 121.328 149.2 120.128 149.2C119.208 149.2 118.508 148.94 118.028 148.42C117.548 147.9 117.308 147.153 117.308 146.18C117.308 145.207 117.554 144.493 118.048 144.04C118.541 143.573 119.314 143.287 120.368 143.18L123.508 142.88V142.02C123.508 141.34 123.361 140.853 123.068 140.56C122.774 140.267 122.374 140.12 121.868 140.12C120.801 140.12 119.694 140.187 118.548 140.32L117.928 140.38L117.868 139.24C119.334 138.947 120.634 138.8 121.768 138.8C122.901 138.8 123.721 139.06 124.228 139.58C124.748 140.1 125.008 140.913 125.008 142.02ZM118.848 146.1C118.848 147.327 119.354 147.94 120.368 147.94C121.274 147.94 122.168 147.787 123.048 147.48L123.508 147.32V144.02L120.548 144.3C119.948 144.353 119.514 144.527 119.248 144.82C118.981 145.113 118.848 145.54 118.848 146.1ZM131.107 140.14C129.654 140.14 128.927 140.647 128.927 141.66C128.927 142.127 129.094 142.46 129.427 142.66C129.761 142.847 130.521 143.047 131.707 143.26C132.894 143.46 133.734 143.747 134.227 144.12C134.721 144.493 134.967 145.193 134.967 146.22C134.967 147.247 134.634 148 133.967 148.48C133.314 148.96 132.354 149.2 131.087 149.2C130.261 149.2 129.287 149.107 128.167 148.92L127.567 148.82L127.647 147.52C129.167 147.747 130.314 147.86 131.087 147.86C131.861 147.86 132.447 147.74 132.847 147.5C133.261 147.247 133.467 146.833 133.467 146.26C133.467 145.673 133.294 145.28 132.947 145.08C132.601 144.867 131.841 144.667 130.667 144.48C129.494 144.293 128.661 144.02 128.167 143.66C127.674 143.3 127.427 142.633 127.427 141.66C127.427 140.687 127.767 139.967 128.447 139.5C129.141 139.033 130.001 138.8 131.027 138.8C131.841 138.8 132.861 138.893 134.087 139.08L134.647 139.18L134.607 140.46C133.127 140.247 131.961 140.14 131.107 140.14ZM140.404 140.14C138.951 140.14 138.224 140.647 138.224 141.66C138.224 142.127 138.391 142.46 138.724 142.66C139.058 142.847 139.818 143.047 141.004 143.26C142.191 143.46 143.031 143.747 143.524 144.12C144.018 144.493 144.264 145.193 144.264 146.22C144.264 147.247 143.931 148 143.264 148.48C142.611 148.96 141.651 149.2 140.384 149.2C139.558 149.2 138.584 149.107 137.464 148.92L136.864 148.82L136.944 147.52C138.464 147.747 139.611 147.86 140.384 147.86C141.158 147.86 141.744 147.74 142.144 147.5C142.558 147.247 142.764 146.833 142.764 146.26C142.764 145.673 142.591 145.28 142.244 145.08C141.898 144.867 141.138 144.667 139.964 144.48C138.791 144.293 137.958 144.02 137.464 143.66C136.971 143.3 136.724 142.633 136.724 141.66C136.724 140.687 137.064 139.967 137.744 139.5C138.438 139.033 139.298 138.8 140.324 138.8C141.138 138.8 142.158 138.893 143.384 139.08L143.944 139.18L143.904 140.46C142.424 140.247 141.258 140.14 140.404 140.14ZM159.076 135.16H160.676L157.056 149H153.616L149.996 135.16H151.596L154.776 147.64H155.896L159.076 135.16ZM172.171 140.3H168.991V145.08C168.991 146.227 169.071 146.98 169.231 147.34C169.404 147.7 169.804 147.88 170.431 147.88L172.211 147.76L172.311 149C171.417 149.147 170.737 149.22 170.271 149.22C169.231 149.22 168.511 148.967 168.111 148.46C167.711 147.953 167.511 146.987 167.511 145.56V140.3H166.091V139H167.511V135.94H168.991V139H172.171V140.3ZM173.563 143.98C173.563 142.153 173.889 140.833 174.543 140.02C175.196 139.207 176.296 138.8 177.842 138.8C179.403 138.8 180.503 139.207 181.143 140.02C181.796 140.833 182.123 142.153 182.123 143.98C182.123 145.807 181.816 147.133 181.203 147.96C180.589 148.787 179.469 149.2 177.842 149.2C176.216 149.2 175.096 148.787 174.483 147.96C173.869 147.133 173.563 145.807 173.563 143.98ZM175.103 143.96C175.103 145.413 175.276 146.433 175.623 147.02C175.983 147.607 176.723 147.9 177.842 147.9C178.976 147.9 179.716 147.613 180.063 147.04C180.409 146.453 180.583 145.427 180.583 143.96C180.583 142.493 180.389 141.487 180.003 140.94C179.616 140.38 178.896 140.1 177.842 140.1C176.803 140.1 176.083 140.38 175.683 140.94C175.296 141.487 175.103 142.493 175.103 143.96ZM189.643 135.16L193.143 141.08L196.663 135.16H198.323L194.063 142.18L198.323 149H196.583L193.103 143.26L189.563 149H187.903L192.183 142.22L187.903 135.16H189.643Z" fill="white"/>
</g>
<defs>
<clipPath id="clip0_39_408">
<rect width="300" height="164" rx="12" fill="white"/>
</clipPath>
<clipPath id="clip1_39_408">
<rect width="160.594" height="160.594" fill="white" transform="translate(155 54)"/>
</clipPath>
</defs>
</svg>
