<svg width="704" height="130" viewBox="0 0 704 130" fill="none" xmlns="http://www.w3.org/2000/svg">
<path d="M40.724 97H8.216V39.88H19.808V86.752H40.724V97ZM56.0691 80.788C56.1251 83.364 56.7971 85.24 58.0851 86.416C59.4291 87.536 61.3331 88.096 63.7971 88.096C69.0051 88.096 73.6531 87.928 77.7411 87.592L80.0931 87.34L80.2611 95.656C73.8211 97.224 67.9971 98.008 62.7891 98.008C56.4611 98.008 51.8691 96.328 49.0131 92.968C46.1571 89.608 44.7291 84.148 44.7291 76.588C44.7291 61.524 50.9171 53.992 63.2931 53.992C75.5011 53.992 81.6051 60.32 81.6051 72.976L80.7651 80.788H56.0691ZM70.5171 72.22C70.5171 68.86 69.9851 66.536 68.9211 65.248C67.8571 63.904 65.9811 63.232 63.2931 63.232C60.6611 63.232 58.7851 63.932 57.6651 65.332C56.6011 66.676 56.0411 68.972 55.9851 72.22H70.5171ZM112.917 64.576H102.585V81.796C102.585 83.476 102.613 84.68 102.669 85.408C102.781 86.08 103.089 86.668 103.593 87.172C104.153 87.676 104.993 87.928 106.113 87.928L112.497 87.76L113.001 96.748C109.249 97.588 106.393 98.008 104.433 98.008C99.3934 98.008 95.9494 96.888 94.1014 94.648C92.2534 92.352 91.3294 88.152 91.3294 82.048V64.576H86.3734V55H91.3294V43.324H102.585V55H112.917V64.576ZM118.483 60.628L122.431 39.88H134.275L127.135 60.628H118.483ZM170.337 65.5C163.393 64.604 158.521 64.156 155.721 64.156C152.977 64.156 151.185 64.408 150.345 64.912C149.561 65.416 149.169 66.228 149.169 67.348C149.169 68.412 149.701 69.168 150.765 69.616C151.885 70.008 154.685 70.624 159.165 71.464C163.701 72.248 166.921 73.564 168.825 75.412C170.729 77.26 171.681 80.256 171.681 84.4C171.681 93.472 166.053 98.008 154.797 98.008C151.101 98.008 146.621 97.504 141.357 96.496L138.669 95.992L139.005 86.584C145.949 87.48 150.765 87.928 153.453 87.928C156.197 87.928 158.045 87.676 158.997 87.172C160.005 86.612 160.509 85.8 160.509 84.736C160.509 83.672 159.977 82.888 158.913 82.384C157.905 81.88 155.217 81.264 150.849 80.536C146.537 79.808 143.317 78.576 141.189 76.84C139.061 75.104 137.997 72.024 137.997 67.6C137.997 63.12 139.509 59.76 142.533 57.52C145.557 55.224 149.449 54.076 154.209 54.076C157.513 54.076 162.021 54.608 167.733 55.672L170.505 56.176L170.337 65.5ZM220.267 80.368H210.859V97H199.267V39.88H220.267C233.819 39.88 240.595 46.488 240.595 59.704C240.595 66.368 238.859 71.492 235.387 75.076C231.971 78.604 226.931 80.368 220.267 80.368ZM210.859 70.456H220.183C225.951 70.456 228.835 66.872 228.835 59.704C228.835 56.176 228.135 53.656 226.735 52.144C225.335 50.576 223.151 49.792 220.183 49.792H210.859V70.456ZM247.724 97V55H258.896V59.452C263.6 56.652 268.08 54.832 272.336 53.992V65.332C267.8 66.284 263.908 67.264 260.66 68.272L258.98 68.86V97H247.724ZM288.218 80.788C288.274 83.364 288.946 85.24 290.234 86.416C291.578 87.536 293.482 88.096 295.946 88.096C301.154 88.096 305.802 87.928 309.89 87.592L312.242 87.34L312.41 95.656C305.97 97.224 300.146 98.008 294.938 98.008C288.61 98.008 284.018 96.328 281.162 92.968C278.306 89.608 276.878 84.148 276.878 76.588C276.878 61.524 283.066 53.992 295.442 53.992C307.65 53.992 313.754 60.32 313.754 72.976L312.914 80.788H288.218ZM302.666 72.22C302.666 68.86 302.134 66.536 301.07 65.248C300.006 63.904 298.13 63.232 295.442 63.232C292.81 63.232 290.934 63.932 289.814 65.332C288.75 66.676 288.19 68.972 288.134 72.22H302.666ZM321.798 114.64V55H332.97V57.268C336.61 55.084 339.802 53.992 342.546 53.992C348.202 53.992 352.374 55.7 355.062 59.116C357.75 62.476 359.094 68.216 359.094 76.336C359.094 84.456 357.61 90.112 354.642 93.304C351.674 96.44 346.802 98.008 340.026 98.008C338.178 98.008 336.19 97.84 334.062 97.504L333.054 97.336V114.64H321.798ZM340.362 64.072C338.29 64.072 336.19 64.492 334.062 65.332L333.054 65.752V87.76C335.574 88.096 337.618 88.264 339.186 88.264C342.434 88.264 344.646 87.312 345.822 85.408C347.054 83.504 347.67 80.256 347.67 75.664C347.67 67.936 345.234 64.072 340.362 64.072ZM399.661 68.104V85.576C399.773 86.92 399.997 87.872 400.333 88.432C400.669 88.936 401.369 89.3 402.433 89.524L402.097 98.008C399.241 98.008 396.945 97.812 395.209 97.42C393.529 97.028 391.821 96.244 390.085 95.068C386.053 97.028 381.937 98.008 377.737 98.008C369.057 98.008 364.717 93.416 364.717 84.232C364.717 79.752 365.921 76.588 368.329 74.74C370.737 72.836 374.433 71.716 379.417 71.38L388.405 70.708V68.104C388.405 66.368 388.013 65.192 387.229 64.576C386.445 63.904 385.185 63.568 383.449 63.568L367.657 64.24L367.321 56.428C373.313 54.804 378.997 53.992 384.373 53.992C389.805 53.992 393.697 55.112 396.049 57.352C398.457 59.592 399.661 63.176 399.661 68.104ZM380.761 79.192C377.625 79.472 376.057 81.152 376.057 84.232C376.057 87.312 377.429 88.852 380.173 88.852C382.301 88.852 384.625 88.516 387.145 87.844L388.405 87.508V78.52L380.761 79.192ZM410.392 97V55H421.564V59.452C426.268 56.652 430.748 54.832 435.004 53.992V65.332C430.468 66.284 426.576 67.264 423.328 68.272L421.648 68.86V97H410.392ZM450.886 80.788C450.942 83.364 451.614 85.24 452.902 86.416C454.246 87.536 456.15 88.096 458.613 88.096C463.822 88.096 468.47 87.928 472.558 87.592L474.91 87.34L475.078 95.656C468.638 97.224 462.814 98.008 457.606 98.008C451.278 98.008 446.686 96.328 443.83 92.968C440.974 89.608 439.546 84.148 439.546 76.588C439.546 61.524 445.734 53.992 458.11 53.992C470.318 53.992 476.422 60.32 476.422 72.976L475.582 80.788H450.886ZM465.334 72.22C465.334 68.86 464.802 66.536 463.738 65.248C462.674 63.904 460.798 63.232 458.11 63.232C455.478 63.232 453.602 63.932 452.482 65.332C451.418 66.676 450.858 68.972 450.802 72.22H465.334ZM526.191 64.576H515.859V81.796C515.859 83.476 515.887 84.68 515.943 85.408C516.055 86.08 516.363 86.668 516.867 87.172C517.427 87.676 518.267 87.928 519.387 87.928L525.771 87.76L526.275 96.748C522.523 97.588 519.667 98.008 517.707 98.008C512.667 98.008 509.223 96.888 507.375 94.648C505.527 92.352 504.603 88.152 504.603 82.048V64.576H499.647V55H504.603V43.324H515.859V55H526.191V64.576ZM535.789 59.788C538.757 55.924 543.713 53.992 550.657 53.992C557.601 53.992 562.557 55.924 565.525 59.788C568.493 63.596 569.977 68.972 569.977 75.916C569.977 90.644 563.537 98.008 550.657 98.008C537.777 98.008 531.337 90.644 531.337 75.916C531.337 68.972 532.821 63.596 535.789 59.788ZM544.441 85.408C545.617 87.424 547.689 88.432 550.657 88.432C553.625 88.432 555.669 87.424 556.789 85.408C557.965 83.392 558.553 80.228 558.553 75.916C558.553 71.604 557.965 68.468 556.789 66.508C555.669 64.548 553.625 63.568 550.657 63.568C547.689 63.568 545.617 64.548 544.441 66.508C543.321 68.468 542.761 71.604 542.761 75.916C542.761 80.228 543.321 83.392 544.441 85.408ZM613.928 38.2V97H602.756V95.236C598.836 97.084 595.448 98.008 592.592 98.008C586.488 98.008 582.232 96.244 579.824 92.716C577.416 89.188 576.212 83.616 576.212 76C576.212 68.328 577.64 62.756 580.496 59.284C583.408 55.756 587.776 53.992 593.6 53.992C595.392 53.992 597.884 54.272 601.076 54.832L602.672 55.168V38.2H613.928ZM601.496 86.92L602.672 86.668V64.576C599.592 64.016 596.848 63.736 594.44 63.736C589.904 63.736 587.636 67.768 587.636 75.832C587.636 80.2 588.14 83.308 589.148 85.156C590.156 87.004 591.808 87.928 594.104 87.928C596.456 87.928 598.92 87.592 601.496 86.92ZM656.501 68.104V85.576C656.613 86.92 656.837 87.872 657.173 88.432C657.509 88.936 658.209 89.3 659.273 89.524L658.937 98.008C656.081 98.008 653.785 97.812 652.049 97.42C650.369 97.028 648.661 96.244 646.925 95.068C642.893 97.028 638.777 98.008 634.577 98.008C625.897 98.008 621.557 93.416 621.557 84.232C621.557 79.752 622.761 76.588 625.169 74.74C627.577 72.836 631.273 71.716 636.257 71.38L645.245 70.708V68.104C645.245 66.368 644.853 65.192 644.069 64.576C643.285 63.904 642.025 63.568 640.289 63.568L624.497 64.24L624.161 56.428C630.153 54.804 635.837 53.992 641.213 53.992C646.645 53.992 650.537 55.112 652.889 57.352C655.297 59.592 656.501 63.176 656.501 68.104ZM637.601 79.192C634.465 79.472 632.897 81.152 632.897 84.232C632.897 87.312 634.269 88.852 637.013 88.852C639.141 88.852 641.465 88.516 643.985 87.844L645.245 87.508V78.52L637.601 79.192ZM662.793 55H673.881L681.525 87.424H683.457L691.101 55H702.189L687.405 114.64H676.401L681.021 97H673.125L662.793 55Z" fill="white" fill-opacity="0.2"/>
<path d="M40.724 97V98H41.724V97H40.724ZM8.216 97H7.216V98H8.216V97ZM8.216 39.88V38.88H7.216V39.88H8.216ZM19.808 39.88H20.808V38.88H19.808V39.88ZM19.808 86.752H18.808V87.752H19.808V86.752ZM40.724 86.752H41.724V85.752H40.724V86.752ZM40.724 96H8.216V98H40.724V96ZM9.216 97V39.88H7.216V97H9.216ZM8.216 40.88H19.808V38.88H8.216V40.88ZM18.808 39.88V86.752H20.808V39.88H18.808ZM19.808 87.752H40.724V85.752H19.808V87.752ZM39.724 86.752V97H41.724V86.752H39.724ZM56.0691 80.788V79.788H55.0471L55.0693 80.8097L56.0691 80.788ZM58.0851 86.416L57.4108 87.1545L57.4275 87.1697L57.4449 87.1842L58.0851 86.416ZM77.7411 87.592L77.823 88.5886L77.8353 88.5876L77.8476 88.5863L77.7411 87.592ZM80.0931 87.34L81.0929 87.3198L81.0709 86.2295L79.9866 86.3457L80.0931 87.34ZM80.2611 95.656L80.4977 96.6276L81.2771 96.4378L81.2609 95.6358L80.2611 95.656ZM49.0131 92.968L48.2512 93.6156L49.0131 92.968ZM81.6051 72.976L82.5994 73.0829L82.6051 73.0296V72.976H81.6051ZM80.7651 80.788V81.788H81.6633L81.7594 80.8949L80.7651 80.788ZM70.5171 72.22V73.22H71.5171V72.22H70.5171ZM68.9211 65.248L68.137 65.8687L68.1435 65.8769L68.1501 65.8849L68.9211 65.248ZM57.6651 65.332L56.8842 64.7073L56.8811 64.7113L57.6651 65.332ZM55.9851 72.22L54.9852 72.2028L54.9677 73.22H55.9851V72.22ZM55.0693 80.8097C55.1284 83.5284 55.8413 85.7214 57.4108 87.1545L58.7594 85.6775C57.7529 84.7586 57.1218 83.1996 57.0689 80.7663L55.0693 80.8097ZM57.4449 87.1842C59.0297 88.5049 61.1934 89.096 63.7971 89.096V87.096C61.4728 87.096 59.8285 86.5671 58.7253 85.6478L57.4449 87.1842ZM63.7971 89.096C69.0255 89.096 73.7017 88.9274 77.823 88.5886L77.6592 86.5954C73.6045 86.9286 68.9846 87.096 63.7971 87.096V89.096ZM77.8476 88.5863L80.1996 88.3343L79.9866 86.3457L77.6346 86.5977L77.8476 88.5863ZM79.0933 87.3602L79.2613 95.6762L81.2609 95.6358L81.0929 87.3198L79.0933 87.3602ZM80.0245 94.6844C73.6421 96.2384 67.8992 97.008 62.7891 97.008V99.008C68.095 99.008 74.0001 98.2096 80.4977 96.6276L80.0245 94.6844ZM62.7891 97.008C56.6227 97.008 52.3697 95.3729 49.775 92.3204L48.2512 93.6156C51.3685 97.2831 56.2995 99.008 62.7891 99.008V97.008ZM49.775 92.3204C47.1497 89.2317 45.7291 84.0655 45.7291 76.588H43.7291C43.7291 84.2305 45.1645 89.9843 48.2512 93.6156L49.775 92.3204ZM45.7291 76.588C45.7291 69.1676 47.2572 63.7881 50.1428 60.2758C52.9975 56.8011 57.3167 54.992 63.2931 54.992V52.992C56.8934 52.992 51.9307 54.9489 48.5974 59.0062C45.295 63.0259 43.7291 68.9444 43.7291 76.588H45.7291ZM63.2931 54.992C69.2336 54.992 73.5075 56.5297 76.3074 59.4323C79.1137 62.3415 80.6051 66.7933 80.6051 72.976H82.6051C82.6051 66.5027 81.0445 61.4625 77.7468 58.0437C74.4427 54.6183 69.5606 52.992 63.2931 52.992V54.992ZM80.6108 72.8691L79.7708 80.6811L81.7594 80.8949L82.5994 73.0829L80.6108 72.8691ZM80.7651 79.788H56.0691V81.788H80.7651V79.788ZM71.5171 72.22C71.5171 68.8258 70.9942 66.1874 69.6921 64.6111L68.1501 65.8849C68.976 66.8846 69.5171 68.8942 69.5171 72.22H71.5171ZM69.7051 64.6273C68.3644 62.9338 66.1117 62.232 63.2931 62.232V64.232C65.8505 64.232 67.3498 64.8742 68.137 65.8687L69.7051 64.6273ZM63.2931 62.232C60.5043 62.232 58.2699 62.9752 56.8842 64.7073L58.446 65.9567C59.3002 64.8888 60.8179 64.232 63.2931 64.232V62.232ZM56.8811 64.7113C55.604 66.3244 55.0421 68.9043 54.9852 72.2028L56.9849 72.2372C57.0401 69.0397 57.5982 67.0276 58.4491 65.9527L56.8811 64.7113ZM55.9851 73.22H70.5171V71.22H55.9851V73.22ZM112.917 64.576V65.576H113.917V64.576H112.917ZM102.585 64.576V63.576H101.585V64.576H102.585ZM102.669 85.408L101.672 85.4847L101.676 85.5288L101.683 85.5724L102.669 85.408ZM103.593 87.172L102.886 87.8791L102.905 87.8977L102.924 87.9153L103.593 87.172ZM106.113 87.928V88.928H106.127L106.14 88.9277L106.113 87.928ZM112.497 87.76L113.496 87.704L113.441 86.7348L112.471 86.7603L112.497 87.76ZM113.001 96.748L113.22 97.7238L114.047 97.5386L114 96.692L113.001 96.748ZM94.1014 94.648L93.3223 95.2751L93.33 95.2844L94.1014 94.648ZM91.3294 64.576H92.3294V63.576H91.3294V64.576ZM86.3734 64.576H85.3734V65.576H86.3734V64.576ZM86.3734 55V54H85.3734V55H86.3734ZM91.3294 55V56H92.3294V55H91.3294ZM91.3294 43.324V42.324H90.3294V43.324H91.3294ZM102.585 43.324H103.585V42.324H102.585V43.324ZM102.585 55H101.585V56H102.585V55ZM112.917 55H113.917V54H112.917V55ZM112.917 63.576H102.585V65.576H112.917V63.576ZM101.585 64.576V81.796H103.585V64.576H101.585ZM101.585 81.796C101.585 83.4774 101.613 84.715 101.672 85.4847L103.666 85.3313C103.614 84.645 103.585 83.4746 103.585 81.796H101.585ZM101.683 85.5724C101.831 86.4599 102.242 87.235 102.886 87.8791L104.301 86.4649C103.937 86.101 103.732 85.7001 103.656 85.2436L101.683 85.5724ZM102.924 87.9153C103.74 88.6491 104.864 88.928 106.113 88.928V86.928C105.123 86.928 104.567 86.7029 104.262 86.4287L102.924 87.9153ZM106.14 88.9277L112.524 88.7597L112.471 86.7603L106.087 86.9283L106.14 88.9277ZM111.499 87.816L112.003 96.804L114 96.692L113.496 87.704L111.499 87.816ZM112.783 95.7722C109.048 96.6083 106.28 97.008 104.433 97.008V99.008C106.507 99.008 109.451 98.5677 113.22 97.7238L112.783 95.7722ZM104.433 97.008C99.4817 97.008 96.4286 95.8975 94.8728 94.0116L93.33 95.2844C95.4702 97.8785 99.3051 99.008 104.433 99.008V97.008ZM94.8804 94.021C93.2648 92.0137 92.3294 88.1263 92.3294 82.048H90.3294C90.3294 88.1777 91.242 92.6903 93.3224 95.275L94.8804 94.021ZM92.3294 82.048V64.576H90.3294V82.048H92.3294ZM91.3294 63.576H86.3734V65.576H91.3294V63.576ZM87.3734 64.576V55H85.3734V64.576H87.3734ZM86.3734 56H91.3294V54H86.3734V56ZM92.3294 55V43.324H90.3294V55H92.3294ZM91.3294 44.324H102.585V42.324H91.3294V44.324ZM101.585 43.324V55H103.585V43.324H101.585ZM102.585 56H112.917V54H102.585V56ZM111.917 55V64.576H113.917V55H111.917ZM118.483 60.628L117.501 60.4411L117.275 61.628H118.483V60.628ZM122.431 39.88V38.88H121.603L121.449 39.6931L122.431 39.88ZM134.275 39.88L135.221 40.2054L135.677 38.88H134.275V39.88ZM127.135 60.628V61.628H127.848L128.081 60.9534L127.135 60.628ZM119.465 60.8149L123.413 40.0669L121.449 39.6931L117.501 60.4411L119.465 60.8149ZM122.431 40.88H134.275V38.88H122.431V40.88ZM133.329 39.5546L126.189 60.3026L128.081 60.9534L135.221 40.2054L133.329 39.5546ZM127.135 59.628H118.483V61.628H127.135V59.628ZM170.337 65.5L170.209 66.4918L171.316 66.6347L171.337 65.518L170.337 65.5ZM150.345 64.912L149.83 64.0545L149.817 64.0625L149.804 64.0708L150.345 64.912ZM150.765 69.616L150.377 70.5376L150.405 70.5496L150.434 70.5599L150.765 69.616ZM159.165 71.464L158.98 72.4469L158.987 72.4482L158.994 72.4494L159.165 71.464ZM168.825 75.412L168.128 76.1296L168.825 75.412ZM141.357 96.496L141.545 95.5138L141.541 95.5131L141.357 96.496ZM138.669 95.992L137.669 95.9563L137.639 96.8163L138.484 96.9749L138.669 95.992ZM139.005 86.584L139.133 85.5922L138.044 85.4518L138.005 86.5483L139.005 86.584ZM158.997 87.172L159.465 88.0558L159.473 88.0511L159.482 88.0462L158.997 87.172ZM158.913 82.384L158.465 83.2784L158.475 83.2832L158.485 83.2877L158.913 82.384ZM150.849 80.536L150.682 81.522L150.684 81.5224L150.849 80.536ZM141.189 76.84L140.557 77.6149L141.189 76.84ZM142.533 57.52L143.128 58.3236L143.137 58.3164L142.533 57.52ZM167.733 55.672L167.55 56.6551L167.554 56.6559L167.733 55.672ZM170.505 56.176L171.505 56.194L171.52 55.3442L170.684 55.1921L170.505 56.176ZM170.465 64.5082C163.522 63.6125 158.592 63.156 155.721 63.156V65.156C158.449 65.156 163.263 65.5955 170.209 66.4918L170.465 64.5082ZM155.721 63.156C154.323 63.156 153.139 63.2199 152.179 63.3547C151.244 63.4863 150.425 63.6976 149.83 64.0545L150.859 65.7695C151.104 65.6224 151.601 65.4557 152.458 65.3353C153.291 65.2181 154.374 65.156 155.721 65.156V63.156ZM149.804 64.0708C148.673 64.798 148.169 65.9671 148.169 67.348H150.169C150.169 66.4889 150.449 66.034 150.885 65.7532L149.804 64.0708ZM148.169 67.348C148.169 68.0539 148.348 68.7175 148.75 69.2885C149.148 69.8539 149.715 70.2589 150.377 70.5376L151.153 68.6944C150.751 68.5251 150.52 68.3281 150.385 68.1375C150.255 67.9525 150.169 67.7061 150.169 67.348H148.169ZM150.434 70.5599C151.642 70.9824 154.526 71.6117 158.98 72.4469L159.349 70.4811C154.843 69.6363 152.128 69.0336 151.095 68.6721L150.434 70.5599ZM158.994 72.4494C163.461 73.2214 166.44 74.4914 168.128 76.1296L169.521 74.6944C167.401 72.6366 163.94 71.2746 159.335 70.4786L158.994 72.4494ZM168.128 76.1296C169.753 77.7063 170.681 80.378 170.681 84.4H172.681C172.681 80.1339 171.705 76.8137 169.521 74.6944L168.128 76.1296ZM170.681 84.4C170.681 88.7179 169.352 91.7965 166.832 93.8274C164.271 95.8915 160.317 97.008 154.797 97.008V99.008C160.533 99.008 165.02 97.8565 168.087 95.3846C171.195 92.8795 172.681 89.1541 172.681 84.4H170.681ZM154.797 97.008C151.185 97.008 146.772 96.5148 141.545 95.5138L141.169 97.4782C146.47 98.4932 151.016 99.008 154.797 99.008V97.008ZM141.541 95.5131L138.853 95.0091L138.484 96.9749L141.172 97.4789L141.541 95.5131ZM139.668 96.0277L140.004 86.6197L138.005 86.5483L137.669 95.9563L139.668 96.0277ZM138.877 87.5758C145.817 88.4713 150.692 88.928 153.453 88.928V86.928C150.837 86.928 146.081 86.4887 139.133 85.5922L138.877 87.5758ZM153.453 88.928C154.851 88.928 156.047 88.8641 157.032 88.7298C158 88.5978 158.836 88.3888 159.465 88.0558L158.529 86.2882C158.206 86.4592 157.641 86.6282 156.762 86.7482C155.898 86.866 154.798 86.928 153.453 86.928V88.928ZM159.482 88.0462C160.775 87.3279 161.509 86.199 161.509 84.736H159.509C159.509 85.401 159.234 85.8961 158.511 86.2978L159.482 88.0462ZM161.509 84.736C161.509 84.0293 161.329 83.3661 160.937 82.7885C160.549 82.2169 159.995 81.7903 159.341 81.4803L158.485 83.2877C158.894 83.4817 159.138 83.6991 159.282 83.9115C159.422 84.1179 159.509 84.3787 159.509 84.736H161.509ZM159.36 81.4896C158.737 81.1782 157.706 80.8768 156.364 80.5693C154.992 80.255 153.207 79.9152 151.013 79.5496L150.684 81.5224C152.859 81.8848 154.601 82.217 155.917 82.5187C157.263 82.8272 158.08 83.0858 158.465 83.2784L159.36 81.4896ZM151.015 79.55C146.783 78.8354 143.757 77.645 141.821 76.0651L140.557 77.6149C142.876 79.507 146.291 80.7806 150.682 81.522L151.015 79.55ZM141.821 76.0651C140.037 74.61 138.997 71.9055 138.997 67.6H136.997C136.997 72.1425 138.084 75.598 140.557 77.6149L141.821 76.0651ZM138.997 67.6C138.997 63.3687 140.409 60.3378 143.128 58.3236L141.937 56.7164C138.609 59.1822 136.997 62.8713 136.997 67.6H138.997ZM143.137 58.3164C145.947 56.1829 149.611 55.076 154.209 55.076V53.076C149.287 53.076 145.166 54.2651 141.928 56.7236L143.137 58.3164ZM154.209 55.076C157.422 55.076 161.86 55.5953 167.55 56.6551L167.916 54.6889C162.181 53.6207 157.603 53.076 154.209 53.076V55.076ZM167.554 56.6559L170.326 57.1599L170.684 55.1921L167.912 54.6881L167.554 56.6559ZM169.505 56.158L169.337 65.482L171.337 65.518L171.505 56.194L169.505 56.158ZM210.859 80.368V79.368H209.859V80.368H210.859ZM210.859 97V98H211.859V97H210.859ZM199.267 97H198.267V98H199.267V97ZM199.267 39.88V38.88H198.267V39.88H199.267ZM235.387 75.076L234.669 74.3802L234.668 74.3804L235.387 75.076ZM210.859 70.456H209.859V71.456H210.859V70.456ZM226.735 52.144L225.989 52.81L225.995 52.8168L226.001 52.8234L226.735 52.144ZM210.859 49.792V48.792H209.859V49.792H210.859ZM220.267 79.368H210.859V81.368H220.267V79.368ZM209.859 80.368V97H211.859V80.368H209.859ZM210.859 96H199.267V98H210.859V96ZM200.267 97V39.88H198.267V97H200.267ZM199.267 40.88H220.267V38.88H199.267V40.88ZM220.267 40.88C226.895 40.88 231.681 42.4961 234.815 45.5519C237.944 48.6032 239.595 53.2566 239.595 59.704H241.595C241.595 52.9354 239.858 47.6767 236.211 44.1201C232.569 40.5679 227.191 38.88 220.267 38.88V40.88ZM239.595 59.704C239.595 66.1978 237.906 71.0384 234.669 74.3802L236.105 75.7718C239.812 71.9456 241.595 66.5382 241.595 59.704H239.595ZM234.668 74.3804C231.5 77.6522 226.76 79.368 220.267 79.368V81.368C227.102 81.368 232.441 79.5557 236.105 75.7716L234.668 74.3804ZM210.859 71.456H220.183V69.456H210.859V71.456ZM220.183 71.456C223.285 71.456 225.772 70.4813 227.451 68.3949C229.096 66.35 229.835 63.3959 229.835 59.704H227.835C227.835 63.1801 227.131 65.602 225.893 67.1411C224.688 68.6386 222.848 69.456 220.183 69.456V71.456ZM229.835 59.704C229.835 56.0898 229.126 53.2549 227.469 51.4646L226.001 52.8234C227.143 54.0571 227.835 56.2622 227.835 59.704H229.835ZM227.481 51.478C225.823 49.6215 223.315 48.792 220.183 48.792V50.792C222.987 50.792 224.846 51.5305 225.989 52.81L227.481 51.478ZM220.183 48.792H210.859V50.792H220.183V48.792ZM209.859 49.792V70.456H211.859V49.792H209.859ZM247.724 97H246.724V98H247.724V97ZM247.724 55V54H246.724V55H247.724ZM258.896 55H259.896V54H258.896V55ZM258.896 59.452H257.896V61.211L259.407 60.3113L258.896 59.452ZM272.336 53.992H273.336V52.7753L272.142 53.0109L272.336 53.992ZM272.336 65.332L272.541 66.3107L273.336 66.1439V65.332H272.336ZM260.66 68.272L260.363 67.3169L260.346 67.3222L260.329 67.3281L260.66 68.272ZM258.98 68.86L258.649 67.9161L257.98 68.1505V68.86H258.98ZM258.98 97V98H259.98V97H258.98ZM248.724 97V55H246.724V97H248.724ZM247.724 56H258.896V54H247.724V56ZM257.896 55V59.452H259.896V55H257.896ZM259.407 60.3113C264.037 57.5551 268.41 55.786 272.529 54.9731L272.142 53.0109C267.749 53.878 263.162 55.7489 258.384 58.5927L259.407 60.3113ZM271.336 53.992V65.332H273.336V53.992H271.336ZM272.13 64.3533C267.574 65.3096 263.65 66.297 260.363 67.3169L260.956 69.2271C264.166 68.231 268.026 67.2584 272.541 66.3107L272.13 64.3533ZM260.329 67.3281L258.649 67.9161L259.31 69.8039L260.99 69.2159L260.329 67.3281ZM257.98 68.86V97H259.98V68.86H257.98ZM258.98 96H247.724V98H258.98V96ZM288.218 80.788V79.788H287.196L287.218 80.8097L288.218 80.788ZM290.234 86.416L289.559 87.1545L289.576 87.1697L289.593 87.1842L290.234 86.416ZM309.89 87.592L309.971 88.5886L309.984 88.5876L309.996 88.5863L309.89 87.592ZM312.242 87.34L313.241 87.3198L313.219 86.2295L312.135 86.3457L312.242 87.34ZM312.41 95.656L312.646 96.6276L313.426 96.4378L313.409 95.6358L312.41 95.656ZM281.162 92.968L280.4 93.6156L281.162 92.968ZM313.754 72.976L314.748 73.0829L314.754 73.0296V72.976H313.754ZM312.914 80.788V81.788H313.812L313.908 80.8949L312.914 80.788ZM302.666 72.22V73.22H303.666V72.22H302.666ZM301.07 65.248L300.285 65.8687L300.292 65.8769L300.299 65.8849L301.07 65.248ZM289.814 65.332L289.033 64.7073L289.029 64.7113L289.814 65.332ZM288.134 72.22L287.134 72.2028L287.116 73.22H288.134V72.22ZM287.218 80.8097C287.277 83.5284 287.99 85.7214 289.559 87.1545L290.908 85.6775C289.901 84.7586 289.27 83.1996 289.217 80.7663L287.218 80.8097ZM289.593 87.1842C291.178 88.5049 293.342 89.096 295.946 89.096V87.096C293.621 87.096 291.977 86.5671 290.874 85.6478L289.593 87.1842ZM295.946 89.096C301.174 89.096 305.85 88.9274 309.971 88.5886L309.808 86.5954C305.753 86.9286 301.133 87.096 295.946 87.096V89.096ZM309.996 88.5863L312.348 88.3343L312.135 86.3457L309.783 86.5977L309.996 88.5863ZM311.242 87.3602L311.41 95.6762L313.409 95.6358L313.241 87.3198L311.242 87.3602ZM312.173 94.6844C305.79 96.2384 300.048 97.008 294.938 97.008V99.008C300.243 99.008 306.149 98.2096 312.646 96.6276L312.173 94.6844ZM294.938 97.008C288.771 97.008 284.518 95.3729 281.923 92.3204L280.4 93.6156C283.517 97.2831 288.448 99.008 294.938 99.008V97.008ZM281.923 92.3204C279.298 89.2317 277.878 84.0655 277.878 76.588H275.878C275.878 84.2305 277.313 89.9843 280.4 93.6156L281.923 92.3204ZM277.878 76.588C277.878 69.1676 279.406 63.7881 282.291 60.2758C285.146 56.8011 289.465 54.992 295.442 54.992V52.992C289.042 52.992 284.079 54.9489 280.746 59.0062C277.443 63.0259 275.878 68.9444 275.878 76.588H277.878ZM295.442 54.992C301.382 54.992 305.656 56.5297 308.456 59.4323C311.262 62.3415 312.754 66.7933 312.754 72.976H314.754C314.754 66.5027 313.193 61.4625 309.895 58.0437C306.591 54.6183 301.709 52.992 295.442 52.992V54.992ZM312.759 72.8691L311.919 80.6811L313.908 80.8949L314.748 73.0829L312.759 72.8691ZM312.914 79.788H288.218V81.788H312.914V79.788ZM303.666 72.22C303.666 68.8258 303.143 66.1874 301.84 64.6111L300.299 65.8849C301.124 66.8846 301.666 68.8942 301.666 72.22H303.666ZM301.854 64.6273C300.513 62.9338 298.26 62.232 295.442 62.232V64.232C297.999 64.232 299.498 64.8742 300.285 65.8687L301.854 64.6273ZM295.442 62.232C292.653 62.232 290.418 62.9752 289.033 64.7073L290.594 65.9567C291.449 64.8888 292.966 64.232 295.442 64.232V62.232ZM289.029 64.7113C287.752 66.3244 287.191 68.9043 287.134 72.2028L289.133 72.2372C289.189 69.0397 289.747 67.0276 290.598 65.9527L289.029 64.7113ZM288.134 73.22H302.666V71.22H288.134V73.22ZM321.798 114.64H320.798V115.64H321.798V114.64ZM321.798 55V54H320.798V55H321.798ZM332.97 55H333.97V54H332.97V55ZM332.97 57.268H331.97V59.0342L333.484 58.1255L332.97 57.268ZM355.062 59.116L354.276 59.7344L354.281 59.7407L355.062 59.116ZM354.642 93.304L355.368 93.9914L355.374 93.9849L354.642 93.304ZM334.062 97.504L333.897 98.4904L333.906 98.4918L334.062 97.504ZM333.054 97.336L333.218 96.3496L332.054 96.1555V97.336H333.054ZM333.054 114.64V115.64H334.054V114.64H333.054ZM334.062 65.332L333.695 64.4018L333.686 64.4053L333.677 64.4089L334.062 65.332ZM333.054 65.752L332.669 64.8289L332.054 65.0853V65.752H333.054ZM333.054 87.76H332.054V88.6355L332.922 88.7512L333.054 87.76ZM345.822 85.408L344.982 84.8647L344.977 84.8736L344.971 84.8825L345.822 85.408ZM322.798 114.64V55H320.798V114.64H322.798ZM321.798 56H332.97V54H321.798V56ZM331.97 55V57.268H333.97V55H331.97ZM333.484 58.1255C337.047 55.9879 340.056 54.992 342.546 54.992V52.992C339.547 52.992 336.173 54.1801 332.455 56.4105L333.484 58.1255ZM342.546 54.992C347.995 54.992 351.832 56.6284 354.276 59.7344L355.848 58.4976C352.916 54.7716 348.408 52.992 342.546 52.992V54.992ZM354.281 59.7407C356.747 62.8233 358.094 68.2685 358.094 76.336H360.094C360.094 68.1635 358.753 62.1287 355.843 58.4913L354.281 59.7407ZM358.094 76.336C358.094 84.3972 356.608 89.721 353.91 92.6231L355.374 93.9849C358.612 90.503 360.094 84.5148 360.094 76.336H358.094ZM353.916 92.6166C351.221 95.464 346.68 97.008 340.026 97.008V99.008C346.924 99.008 352.127 97.416 355.368 93.9914L353.916 92.6166ZM340.026 97.008C338.238 97.008 336.302 96.8454 334.218 96.5162L333.906 98.4918C336.077 98.8346 338.118 99.008 340.026 99.008V97.008ZM334.226 96.5176L333.218 96.3496L332.889 98.3224L333.897 98.4904L334.226 96.5176ZM332.054 97.336V114.64H334.054V97.336H332.054ZM333.054 113.64H321.798V115.64H333.054V113.64ZM340.362 63.072C338.152 63.072 335.927 63.5205 333.695 64.4018L334.429 66.2622C336.452 65.4635 338.428 65.072 340.362 65.072V63.072ZM333.677 64.4089L332.669 64.8289L333.438 66.6751L334.446 66.2551L333.677 64.4089ZM332.054 65.752V87.76H334.054V65.752H332.054ZM332.922 88.7512C335.462 89.09 337.555 89.264 339.186 89.264V87.264C337.681 87.264 335.686 87.102 333.186 86.7688L332.922 88.7512ZM339.186 89.264C342.61 89.264 345.24 88.2529 346.673 85.9335L344.971 84.8825C344.052 86.371 342.257 87.264 339.186 87.264V89.264ZM346.661 85.9512C348.061 83.7888 348.67 80.287 348.67 75.664H346.67C346.67 80.225 346.047 83.2192 344.982 84.8647L346.661 85.9512ZM348.67 75.664C348.67 71.7272 348.055 68.6041 346.689 66.4367C345.273 64.1917 343.114 63.072 340.362 63.072V65.072C342.482 65.072 343.976 65.8843 344.997 67.5033C346.066 69.1999 346.67 71.8728 346.67 75.664H348.67ZM399.661 85.576H398.661V85.6176L398.665 85.659L399.661 85.576ZM400.333 88.432L399.476 88.9465L399.488 88.9669L399.501 88.9867L400.333 88.432ZM402.433 89.524L403.432 89.5636L403.466 88.7195L402.639 88.5454L402.433 89.524ZM402.097 98.008V99.008H403.058L403.096 98.0476L402.097 98.008ZM395.209 97.42L394.982 98.3939L394.989 98.3954L395.209 97.42ZM390.085 95.068L390.646 94.2401L390.168 93.916L389.648 94.1686L390.085 95.068ZM368.329 74.74L368.938 75.5333L368.944 75.5289L368.949 75.5244L368.329 74.74ZM379.417 71.38L379.485 72.3778L379.492 72.3772L379.417 71.38ZM388.405 70.708L388.48 71.7052L389.405 71.636V70.708H388.405ZM387.229 64.576L386.578 65.3353L386.595 65.3491L386.611 65.3623L387.229 64.576ZM383.449 63.568V62.568H383.428L383.407 62.5689L383.449 63.568ZM367.657 64.24L366.658 64.283L366.701 65.2816L367.7 65.2391L367.657 64.24ZM367.321 56.428L367.06 55.4628L366.288 55.672L366.322 56.471L367.321 56.428ZM396.049 57.352L395.36 58.0762L395.368 58.0842L396.049 57.352ZM380.761 79.192L380.674 78.1958L380.672 78.196L380.761 79.192ZM387.145 87.844L386.888 86.8778L387.145 87.844ZM388.405 87.508L388.663 88.4742L389.405 88.2763V87.508H388.405ZM388.405 78.52H389.405V77.4282L388.318 77.5238L388.405 78.52ZM398.661 68.104V85.576H400.661V68.104H398.661ZM398.665 85.659C398.779 87.0266 399.014 88.177 399.476 88.9465L401.191 87.9175C400.98 87.567 400.768 86.8134 400.658 85.493L398.665 85.659ZM399.501 88.9867C400.061 89.8271 401.093 90.2637 402.227 90.5025L402.639 88.5454C401.646 88.3363 401.277 88.0449 401.165 87.8773L399.501 88.9867ZM401.434 89.4844L401.098 97.9684L403.096 98.0476L403.432 89.5636L401.434 89.4844ZM402.097 97.008C399.277 97.008 397.063 96.8135 395.43 96.4446L394.989 98.3954C396.827 98.8105 399.206 99.008 402.097 99.008V97.008ZM395.436 96.4462C393.898 96.0872 392.302 95.3618 390.646 94.2401L389.524 95.8959C391.341 97.1262 393.16 97.9688 394.982 98.3938L395.436 96.4462ZM389.648 94.1686C385.743 96.067 381.776 97.008 377.737 97.008V99.008C382.099 99.008 386.364 97.989 390.522 95.9674L389.648 94.1686ZM377.737 97.008C373.566 97.008 370.618 95.9075 368.699 93.8771C366.77 91.8362 365.717 88.6835 365.717 84.232H363.717C363.717 88.9645 364.834 92.6998 367.245 95.2509C369.667 97.8125 373.228 99.008 377.737 99.008V97.008ZM365.717 84.232C365.717 79.9091 366.877 77.1148 368.938 75.5333L367.72 73.9467C364.965 76.0612 363.717 79.5949 363.717 84.232H365.717ZM368.949 75.5244C371.128 73.8021 374.587 72.7079 379.485 72.3777L379.35 70.3823C374.28 70.7241 370.347 71.8699 367.709 73.9556L368.949 75.5244ZM379.492 72.3772L388.48 71.7052L388.331 69.7108L379.343 70.3828L379.492 72.3772ZM389.405 70.708V68.104H387.405V70.708H389.405ZM389.405 68.104C389.405 66.2803 389.004 64.6985 387.847 63.7897L386.611 65.3623C387.023 65.6855 387.405 66.4557 387.405 68.104H389.405ZM387.88 63.8167C386.827 62.9138 385.274 62.568 383.449 62.568V64.568C385.096 64.568 386.064 64.8942 386.578 65.3353L387.88 63.8167ZM383.407 62.5689L367.615 63.2409L367.7 65.2391L383.492 64.5671L383.407 62.5689ZM368.656 64.197L368.32 56.385L366.322 56.471L366.658 64.283L368.656 64.197ZM367.583 57.3932C373.502 55.7888 379.098 54.992 384.373 54.992V52.992C378.896 52.992 373.124 53.8192 367.06 55.4628L367.583 57.3932ZM384.373 54.992C389.71 54.992 393.285 56.1 395.36 58.0761L396.739 56.6279C394.11 54.124 389.9 52.992 384.373 52.992V54.992ZM395.368 58.0842C397.49 60.0578 398.661 63.3153 398.661 68.104H400.661C400.661 63.0367 399.425 59.1262 396.73 56.6198L395.368 58.0842ZM380.672 78.196C378.95 78.3497 377.508 78.9022 376.502 79.9797C375.493 81.0604 375.057 82.5267 375.057 84.232H377.057C377.057 82.8573 377.405 81.9436 377.964 81.3443C378.527 80.7418 379.436 80.3143 380.85 80.188L380.672 78.196ZM375.057 84.232C375.057 85.8995 375.426 87.3369 376.34 88.3622C377.273 89.4095 378.615 89.852 380.173 89.852V87.852C378.987 87.852 378.272 87.5245 377.833 87.0318C377.374 86.5171 377.057 85.6445 377.057 84.232H375.057ZM380.173 89.852C382.405 89.852 384.817 89.4998 387.403 88.8102L386.888 86.8778C384.434 87.5322 382.197 87.852 380.173 87.852V89.852ZM387.403 88.8102L388.663 88.4742L388.148 86.5418L386.888 86.8778L387.403 88.8102ZM389.405 87.508V78.52H387.405V87.508H389.405ZM388.318 77.5238L380.674 78.1958L380.849 80.1882L388.493 79.5162L388.318 77.5238ZM410.392 97H409.392V98H410.392V97ZM410.392 55V54H409.392V55H410.392ZM421.564 55H422.564V54H421.564V55ZM421.564 59.452H420.564V61.211L422.075 60.3113L421.564 59.452ZM435.004 53.992H436.004V52.7753L434.81 53.0109L435.004 53.992ZM435.004 65.332L435.209 66.3107L436.004 66.1439V65.332H435.004ZM423.328 68.272L423.031 67.3169L423.014 67.3222L422.997 67.3281L423.328 68.272ZM421.648 68.86L421.317 67.9161L420.648 68.1505V68.86H421.648ZM421.648 97V98H422.648V97H421.648ZM411.392 97V55H409.392V97H411.392ZM410.392 56H421.564V54H410.392V56ZM420.564 55V59.452H422.564V55H420.564ZM422.075 60.3113C426.705 57.5551 431.078 55.786 435.197 54.9731L434.81 53.0109C430.417 53.878 425.83 55.7489 421.052 58.5927L422.075 60.3113ZM434.004 53.992V65.332H436.004V53.992H434.004ZM434.798 64.3533C430.242 65.3096 426.318 66.297 423.031 67.3169L423.624 69.2271C426.834 68.231 430.694 67.2584 435.209 66.3107L434.798 64.3533ZM422.997 67.3281L421.317 67.9161L421.978 69.8039L423.658 69.2159L422.997 67.3281ZM420.648 68.86V97H422.648V68.86H420.648ZM421.648 96H410.392V98H421.648V96ZM450.885 80.788V79.788H449.864L449.886 80.8097L450.885 80.788ZM452.901 86.416L452.227 87.1545L452.244 87.1697L452.261 87.1842L452.901 86.416ZM472.557 87.592L472.639 88.5886L472.652 88.5876L472.664 88.5863L472.557 87.592ZM474.91 87.34L475.909 87.3198L475.887 86.2295L474.803 86.3457L474.91 87.34ZM475.078 95.656L475.314 96.6276L476.094 96.4378L476.077 95.6358L475.078 95.656ZM443.829 92.968L443.068 93.6156L443.829 92.968ZM476.422 72.976L477.416 73.0829L477.422 73.0296V72.976H476.422ZM475.582 80.788V81.788H476.48L476.576 80.8949L475.582 80.788ZM465.333 72.22V73.22H466.333V72.22H465.333ZM463.737 65.248L462.953 65.8687L462.96 65.8769L462.967 65.8849L463.737 65.248ZM452.482 65.332L451.701 64.7073L451.697 64.7113L452.482 65.332ZM450.802 72.22L449.802 72.2028L449.784 73.22H450.802V72.22ZM449.886 80.8097C449.945 83.5284 450.658 85.7214 452.227 87.1545L453.576 85.6775C452.569 84.7586 451.938 83.1996 451.885 80.7663L449.886 80.8097ZM452.261 87.1842C453.846 88.5049 456.01 89.096 458.613 89.096V87.096C456.289 87.096 454.645 86.5671 453.542 85.6478L452.261 87.1842ZM458.613 89.096C463.842 89.096 468.518 88.9274 472.639 88.5886L472.476 86.5954C468.421 86.9286 463.801 87.096 458.613 87.096V89.096ZM472.664 88.5863L475.016 88.3343L474.803 86.3457L472.451 86.5977L472.664 88.5863ZM473.91 87.3602L474.078 95.6762L476.077 95.6358L475.909 87.3198L473.91 87.3602ZM474.841 94.6844C468.458 96.2384 462.716 97.008 457.605 97.008V99.008C462.911 99.008 468.817 98.2096 475.314 96.6276L474.841 94.6844ZM457.605 97.008C451.439 97.008 447.186 95.3729 444.591 92.3204L443.068 93.6156C446.185 97.2831 451.116 99.008 457.605 99.008V97.008ZM444.591 92.3204C441.966 89.2317 440.546 84.0655 440.546 76.588H438.546C438.546 84.2305 439.981 89.9843 443.068 93.6156L444.591 92.3204ZM440.546 76.588C440.546 69.1676 442.074 63.7881 444.959 60.2758C447.814 56.8011 452.133 54.992 458.109 54.992V52.992C451.71 52.992 446.747 54.9489 443.414 59.0062C440.111 63.0259 438.546 68.9444 438.546 76.588H440.546ZM458.109 54.992C464.05 54.992 468.324 56.5297 471.124 59.4323C473.93 62.3415 475.422 66.7933 475.422 72.976H477.422C477.422 66.5027 475.861 61.4625 472.563 58.0437C469.259 54.6183 464.377 52.992 458.109 52.992V54.992ZM475.427 72.8691L474.587 80.6811L476.576 80.8949L477.416 73.0829L475.427 72.8691ZM475.582 79.788H450.885V81.788H475.582V79.788ZM466.333 72.22C466.333 68.8258 465.811 66.1874 464.508 64.6111L462.967 65.8849C463.792 66.8846 464.333 68.8942 464.333 72.22H466.333ZM464.522 64.6273C463.181 62.9338 460.928 62.232 458.109 62.232V64.232C460.667 64.232 462.166 64.8742 462.953 65.8687L464.522 64.6273ZM458.109 62.232C455.321 62.232 453.086 62.9752 451.701 64.7073L453.262 65.9567C454.117 64.8888 455.634 64.232 458.109 64.232V62.232ZM451.697 64.7113C450.42 66.3244 449.859 68.9043 449.802 72.2028L451.801 72.2372C451.856 69.0397 452.415 67.0276 453.266 65.9527L451.697 64.7113ZM450.802 73.22H465.333V71.22H450.802V73.22ZM526.191 64.576V65.576H527.191V64.576H526.191ZM515.859 64.576V63.576H514.859V64.576H515.859ZM515.943 85.408L514.946 85.4847L514.949 85.5288L514.956 85.5724L515.943 85.408ZM516.867 87.172L516.16 87.8791L516.178 87.8977L516.198 87.9153L516.867 87.172ZM519.387 87.928V88.928H519.4L519.413 88.9277L519.387 87.928ZM525.771 87.76L526.769 87.704L526.715 86.7348L525.745 86.7603L525.771 87.76ZM526.275 96.748L526.493 97.7238L527.321 97.5386L527.273 96.692L526.275 96.748ZM507.375 94.648L506.596 95.2751L506.603 95.2844L507.375 94.648ZM504.603 64.576H505.603V63.576H504.603V64.576ZM499.647 64.576H498.647V65.576H499.647V64.576ZM499.647 55V54H498.647V55H499.647ZM504.603 55V56H505.603V55H504.603ZM504.603 43.324V42.324H503.603V43.324H504.603ZM515.859 43.324H516.859V42.324H515.859V43.324ZM515.859 55H514.859V56H515.859V55ZM526.191 55H527.191V54H526.191V55ZM526.191 63.576H515.859V65.576H526.191V63.576ZM514.859 64.576V81.796H516.859V64.576H514.859ZM514.859 81.796C514.859 83.4774 514.887 84.715 514.946 85.4847L516.94 85.3313C516.887 84.645 516.859 83.4746 516.859 81.796H514.859ZM514.956 85.5724C515.104 86.4599 515.516 87.235 516.16 87.8791L517.574 86.4649C517.21 86.101 517.005 85.7001 516.929 85.2436L514.956 85.5724ZM516.198 87.9153C517.013 88.6491 518.137 88.928 519.387 88.928V86.928C518.396 86.928 517.84 86.7029 517.536 86.4287L516.198 87.9153ZM519.413 88.9277L525.797 88.7597L525.745 86.7603L519.361 86.9283L519.413 88.9277ZM524.772 87.816L525.276 96.804L527.273 96.692L526.769 87.704L524.772 87.816ZM526.056 95.7722C522.321 96.6083 519.553 97.008 517.707 97.008V99.008C519.781 99.008 522.724 98.5677 526.493 97.7238L526.056 95.7722ZM517.707 97.008C512.755 97.008 509.702 95.8975 508.146 94.0116L506.603 95.2844C508.744 97.8785 512.579 99.008 517.707 99.008V97.008ZM508.154 94.021C506.538 92.0137 505.603 88.1263 505.603 82.048H503.603C503.603 88.1777 504.515 92.6903 506.596 95.275L508.154 94.021ZM505.603 82.048V64.576H503.603V82.048H505.603ZM504.603 63.576H499.647V65.576H504.603V63.576ZM500.647 64.576V55H498.647V64.576H500.647ZM499.647 56H504.603V54H499.647V56ZM505.603 55V43.324H503.603V55H505.603ZM504.603 44.324H515.859V42.324H504.603V44.324ZM514.859 43.324V55H516.859V43.324H514.859ZM515.859 56H526.191V54H515.859V56ZM525.191 55V64.576H527.191V55H525.191ZM535.789 59.788L536.577 60.4028L536.582 60.3972L535.789 59.788ZM565.524 59.788L564.731 60.3972L564.736 60.4027L565.524 59.788ZM544.44 85.408L543.566 85.8936L543.571 85.9028L543.577 85.9119L544.44 85.408ZM556.789 85.408L555.925 84.9041L555.919 84.9132L555.914 84.9224L556.789 85.408ZM556.789 66.508L555.92 67.0041L555.926 67.0134L555.931 67.0225L556.789 66.508ZM544.44 66.508L543.583 65.9935L543.578 66.0026L543.572 66.0119L544.44 66.508ZM536.582 60.3972C539.289 56.8722 543.884 54.992 550.656 54.992V52.992C543.541 52.992 538.224 54.9758 534.995 59.1788L536.582 60.3972ZM550.656 54.992C557.429 54.992 562.024 56.8722 564.731 60.3972L566.318 59.1788C563.089 54.9758 557.772 52.992 550.656 52.992V54.992ZM564.736 60.4027C567.518 63.9727 568.977 69.1 568.977 75.916H570.977C570.977 68.844 569.467 63.2193 566.313 59.1733L564.736 60.4027ZM568.977 75.916C568.977 83.1563 567.391 88.3998 564.394 91.8267C561.419 95.228 556.905 97.008 550.656 97.008V99.008C557.288 99.008 562.434 97.106 565.899 93.1433C569.342 89.2062 570.977 83.4037 570.977 75.916H568.977ZM550.656 97.008C544.408 97.008 539.894 95.228 536.919 91.8267C533.922 88.3998 532.336 83.1563 532.336 75.916H530.336C530.336 83.4037 531.971 89.2062 535.414 93.1433C538.879 97.106 544.025 99.008 550.656 99.008V97.008ZM532.336 75.916C532.336 69.1 533.795 63.9727 536.577 60.4027L535 59.1733C531.846 63.2193 530.336 68.844 530.336 75.916H532.336ZM543.577 85.9119C544.982 88.3207 547.445 89.432 550.656 89.432V87.432C547.932 87.432 546.251 86.5273 545.304 84.9041L543.577 85.9119ZM550.656 89.432C553.867 89.432 556.314 88.3204 557.663 85.8936L555.914 84.9224C555.023 86.5276 553.382 87.432 550.656 87.432V89.432ZM557.652 85.9119C558.965 83.6615 559.552 80.2778 559.552 75.916H557.552C557.552 80.1782 556.964 83.1225 555.925 84.9041L557.652 85.9119ZM559.552 75.916C559.552 71.558 558.966 68.1941 557.646 65.9935L555.931 67.0225C556.963 68.7419 557.552 71.65 557.552 75.916H559.552ZM557.657 66.0119C556.303 63.6421 553.854 62.568 550.656 62.568V64.568C553.395 64.568 555.034 65.4539 555.92 67.0041L557.657 66.0119ZM550.656 62.568C547.457 62.568 544.994 63.6422 543.583 65.9935L545.298 67.0225C546.239 65.4538 547.92 64.568 550.656 64.568V62.568ZM543.572 66.0119C542.318 68.2066 541.76 71.562 541.76 75.916H543.76C543.76 71.646 544.323 68.7294 545.309 67.0041L543.572 66.0119ZM541.76 75.916C541.76 80.2738 542.319 83.6491 543.566 85.8936L545.315 84.9224C544.322 83.1349 543.76 80.1822 543.76 75.916H541.76ZM613.928 38.2H614.928V37.2H613.928V38.2ZM613.928 97V98H614.928V97H613.928ZM602.756 97H601.756V98H602.756V97ZM602.756 95.236H603.756V93.659L602.329 94.3315L602.756 95.236ZM579.824 92.716L578.998 93.2797L579.824 92.716ZM580.496 59.284L579.724 58.6474L579.723 58.6487L580.496 59.284ZM601.076 54.832L601.282 53.8534L601.265 53.85L601.248 53.847L601.076 54.832ZM602.672 55.168L602.466 56.1465L603.672 56.4004V55.168H602.672ZM602.672 38.2V37.2H601.672V38.2H602.672ZM601.496 86.92L601.286 85.9422L601.264 85.9468L601.243 85.9524L601.496 86.92ZM602.672 86.668L602.881 87.6458L603.672 87.4764V86.668H602.672ZM602.672 64.576H603.672V63.7414L602.85 63.5921L602.672 64.576ZM589.148 85.156L588.27 85.6348L589.148 85.156ZM612.928 38.2V97H614.928V38.2H612.928ZM613.928 96H602.756V98H613.928V96ZM603.756 97V95.236H601.756V97H603.756ZM602.329 94.3315C598.48 96.1461 595.244 97.008 592.592 97.008V99.008C595.651 99.008 599.191 98.0219 603.182 96.1405L602.329 94.3315ZM592.592 97.008C586.666 97.008 582.799 95.3018 580.649 92.1523L578.998 93.2797C581.664 97.1862 586.309 99.008 592.592 99.008V97.008ZM580.649 92.1523C578.413 88.8761 577.212 83.5526 577.212 76H575.212C575.212 83.6794 576.418 89.4999 578.998 93.2797L580.649 92.1523ZM577.212 76C577.212 68.4106 578.632 63.1237 581.268 59.9193L579.723 58.6487C576.647 62.3883 575.212 68.2454 575.212 76H577.212ZM581.267 59.9206C583.939 56.6831 587.986 54.992 593.6 54.992V52.992C587.565 52.992 582.876 54.8289 579.724 58.6474L581.267 59.9206ZM593.6 54.992C595.305 54.992 597.73 55.2603 600.903 55.817L601.248 53.847C598.037 53.2837 595.478 52.992 593.6 52.992V54.992ZM600.87 55.8105L602.466 56.1465L602.878 54.1894L601.282 53.8534L600.87 55.8105ZM603.672 55.168V38.2H601.672V55.168H603.672ZM602.672 39.2H613.928V37.2H602.672V39.2ZM601.705 87.8978L602.881 87.6458L602.462 85.6902L601.286 85.9422L601.705 87.8978ZM603.672 86.668V64.576H601.672V86.668H603.672ZM602.85 63.5921C599.728 63.0244 596.922 62.736 594.44 62.736V64.736C596.773 64.736 599.455 65.0076 602.493 65.5599L602.85 63.5921ZM594.44 62.736C591.801 62.736 589.772 63.9466 588.465 66.2697C587.205 68.5089 586.636 71.739 586.636 75.832H588.636C588.636 71.861 589.2 69.043 590.208 67.2503C591.169 65.5414 592.542 64.736 594.44 64.736V62.736ZM586.636 75.832C586.636 80.2238 587.133 83.5514 588.27 85.6348L590.025 84.6771C589.146 83.0646 588.636 80.1762 588.636 75.832H586.636ZM588.27 85.6348C588.853 86.7051 589.646 87.5437 590.654 88.1078C591.658 88.6693 592.821 88.928 594.104 88.928V86.928C593.09 86.928 592.279 86.7248 591.631 86.3622C590.987 86.0023 590.45 85.4549 590.025 84.6771L588.27 85.6348ZM594.104 88.928C596.551 88.928 599.1 88.5783 601.748 87.8876L601.243 85.9524C598.739 86.6057 596.36 86.928 594.104 86.928V88.928ZM656.501 85.576H655.501V85.6176L655.505 85.659L656.501 85.576ZM657.173 88.432L656.316 88.9465L656.328 88.9669L656.341 88.9867L657.173 88.432ZM659.273 89.524L660.272 89.5636L660.306 88.7195L659.479 88.5454L659.273 89.524ZM658.937 98.008V99.008H659.898L659.936 98.0476L658.937 98.008ZM652.049 97.42L651.822 98.3939L651.829 98.3954L652.049 97.42ZM646.925 95.068L647.486 94.2401L647.008 93.916L646.488 94.1686L646.925 95.068ZM625.169 74.74L625.778 75.5333L625.784 75.5289L625.789 75.5244L625.169 74.74ZM636.257 71.38L636.324 72.3778L636.332 72.3772L636.257 71.38ZM645.245 70.708L645.32 71.7052L646.245 71.636V70.708H645.245ZM644.069 64.576L643.418 65.3353L643.435 65.3491L643.451 65.3623L644.069 64.576ZM640.289 63.568V62.568H640.268L640.247 62.5689L640.289 63.568ZM624.497 64.24L623.498 64.283L623.541 65.2816L624.54 65.2391L624.497 64.24ZM624.161 56.428L623.899 55.4628L623.128 55.672L623.162 56.471L624.161 56.428ZM652.889 57.352L652.199 58.0762L652.208 58.0842L652.889 57.352ZM637.601 79.192L637.514 78.1958L637.512 78.196L637.601 79.192ZM643.985 87.844L643.727 86.8778L643.985 87.844ZM645.245 87.508L645.503 88.4742L646.245 88.2763V87.508H645.245ZM645.245 78.52H646.245V77.4282L645.158 77.5238L645.245 78.52ZM655.501 68.104V85.576H657.501V68.104H655.501ZM655.505 85.659C655.619 87.0266 655.854 88.177 656.316 88.9465L658.031 87.9175C657.82 87.567 657.608 86.8134 657.498 85.493L655.505 85.659ZM656.341 88.9867C656.901 89.8271 657.933 90.2637 659.067 90.5025L659.479 88.5454C658.486 88.3363 658.117 88.0449 658.005 87.8773L656.341 88.9867ZM658.274 89.4844L657.938 97.9684L659.936 98.0476L660.272 89.5636L658.274 89.4844ZM658.937 97.008C656.116 97.008 653.903 96.8135 652.269 96.4446L651.829 98.3954C653.667 98.8105 656.046 99.008 658.937 99.008V97.008ZM652.276 96.4462C650.738 96.0872 649.142 95.3618 647.486 94.2401L646.364 95.8959C648.18 97.1262 650 97.9688 651.822 98.3938L652.276 96.4462ZM646.488 94.1686C642.583 96.067 638.616 97.008 634.577 97.008V99.008C638.939 99.008 643.203 97.989 647.362 95.9674L646.488 94.1686ZM634.577 97.008C630.406 97.008 627.458 95.9075 625.539 93.8771C623.61 91.8362 622.557 88.6835 622.557 84.232H620.557C620.557 88.9645 621.674 92.6998 624.085 95.2509C626.506 97.8125 630.068 99.008 634.577 99.008V97.008ZM622.557 84.232C622.557 79.9091 623.717 77.1148 625.778 75.5333L624.56 73.9467C621.805 76.0612 620.557 79.5949 620.557 84.232H622.557ZM625.789 75.5244C627.968 73.8021 631.427 72.7079 636.324 72.3777L636.19 70.3823C631.119 70.7241 627.187 71.8699 624.549 73.9556L625.789 75.5244ZM636.332 72.3772L645.32 71.7052L645.171 69.7108L636.183 70.3828L636.332 72.3772ZM646.245 70.708V68.104H644.245V70.708H646.245ZM646.245 68.104C646.245 66.2803 645.844 64.6985 644.687 63.7897L643.451 65.3623C643.863 65.6855 644.245 66.4557 644.245 68.104H646.245ZM644.72 63.8167C643.666 62.9138 642.114 62.568 640.289 62.568V64.568C641.936 64.568 642.904 64.8942 643.418 65.3353L644.72 63.8167ZM640.247 62.5689L624.455 63.2409L624.54 65.2391L640.332 64.5671L640.247 62.5689ZM625.496 64.197L625.16 56.385L623.162 56.471L623.498 64.283L625.496 64.197ZM624.423 57.3932C630.342 55.7888 635.938 54.992 641.213 54.992V52.992C635.736 52.992 629.964 53.8192 623.899 55.4628L624.423 57.3932ZM641.213 54.992C646.55 54.992 650.124 56.1 652.199 58.0761L653.579 56.6279C650.95 54.124 646.74 52.992 641.213 52.992V54.992ZM652.208 58.0842C654.33 60.0578 655.501 63.3153 655.501 68.104H657.501C657.501 63.0367 656.265 59.1262 653.57 56.6198L652.208 58.0842ZM637.512 78.196C635.79 78.3497 634.348 78.9022 633.342 79.9797C632.333 81.0604 631.897 82.5267 631.897 84.232H633.897C633.897 82.8573 634.245 81.9436 634.804 81.3443C635.367 80.7418 636.276 80.3143 637.69 80.188L637.512 78.196ZM631.897 84.232C631.897 85.8995 632.266 87.3369 633.179 88.3622C634.112 89.4095 635.455 89.852 637.013 89.852V87.852C635.827 87.852 635.112 87.5245 634.673 87.0318C634.214 86.5171 633.897 85.6445 633.897 84.232H631.897ZM637.013 89.852C639.245 89.852 641.657 89.4998 644.243 88.8102L643.727 86.8778C641.273 87.5322 639.037 87.852 637.013 87.852V89.852ZM644.243 88.8102L645.503 88.4742L644.987 86.5418L643.727 86.8778L644.243 88.8102ZM646.245 87.508V78.52H644.245V87.508H646.245ZM645.158 77.5238L637.514 78.1958L637.689 80.1882L645.333 79.5162L645.158 77.5238ZM662.793 55V54H661.517L661.822 55.2389L662.793 55ZM673.881 55L674.855 54.7705L674.673 54H673.881V55ZM681.525 87.424L680.552 87.6535L680.734 88.424H681.525V87.424ZM683.457 87.424V88.424H684.249L684.431 87.6535L683.457 87.424ZM691.101 55V54H690.31L690.128 54.7705L691.101 55ZM702.189 55L703.16 55.2406L703.467 54H702.189V55ZM687.405 114.64V115.64H688.188L688.376 114.881L687.405 114.64ZM676.401 114.64L675.434 114.387L675.106 115.64H676.401V114.64ZM681.021 97L681.989 97.2534L682.317 96H681.021V97ZM673.125 97L672.154 97.2389L672.341 98H673.125V97ZM662.793 56H673.881V54H662.793V56ZM672.908 55.2295L680.552 87.6535L682.499 87.1945L674.855 54.7705L672.908 55.2295ZM681.525 88.424H683.457V86.424H681.525V88.424ZM684.431 87.6535L692.075 55.2295L690.128 54.7705L682.484 87.1945L684.431 87.6535ZM691.101 56H702.189V54H691.101V56ZM701.219 54.7594L686.435 114.399L688.376 114.881L703.16 55.2406L701.219 54.7594ZM687.405 113.64H676.401V115.64H687.405V113.64ZM677.369 114.893L681.989 97.2534L680.054 96.7466L675.434 114.387L677.369 114.893ZM681.021 96H673.125V98H681.021V96ZM674.096 96.7611L663.764 54.7611L661.822 55.2389L672.154 97.2389L674.096 96.7611Z" fill="white"/>
<path d="M38.724 95H6.216V37.88H17.808V84.752H38.724V95ZM54.0691 78.788C54.1251 81.364 54.7971 83.24 56.0851 84.416C57.4291 85.536 59.3331 86.096 61.7971 86.096C67.0051 86.096 71.6531 85.928 75.7411 85.592L78.0931 85.34L78.2611 93.656C71.8211 95.224 65.9971 96.008 60.7891 96.008C54.4611 96.008 49.8691 94.328 47.0131 90.968C44.1571 87.608 42.7291 82.148 42.7291 74.588C42.7291 59.524 48.9171 51.992 61.2931 51.992C73.5011 51.992 79.6051 58.32 79.6051 70.976L78.7651 78.788H54.0691ZM68.5171 70.22C68.5171 66.86 67.9851 64.536 66.9211 63.248C65.8571 61.904 63.9811 61.232 61.2931 61.232C58.6611 61.232 56.7851 61.932 55.6651 63.332C54.6011 64.676 54.0411 66.972 53.9851 70.22H68.5171ZM110.917 62.576H100.585V79.796C100.585 81.476 100.613 82.68 100.669 83.408C100.781 84.08 101.089 84.668 101.593 85.172C102.153 85.676 102.993 85.928 104.113 85.928L110.497 85.76L111.001 94.748C107.249 95.588 104.393 96.008 102.433 96.008C97.3934 96.008 93.9494 94.888 92.1014 92.648C90.2534 90.352 89.3294 86.152 89.3294 80.048V62.576H84.3734V53H89.3294V41.324H100.585V53H110.917V62.576ZM116.483 58.628L120.431 37.88H132.275L125.135 58.628H116.483ZM168.337 63.5C161.393 62.604 156.521 62.156 153.721 62.156C150.977 62.156 149.185 62.408 148.345 62.912C147.561 63.416 147.169 64.228 147.169 65.348C147.169 66.412 147.701 67.168 148.765 67.616C149.885 68.008 152.685 68.624 157.165 69.464C161.701 70.248 164.921 71.564 166.825 73.412C168.729 75.26 169.681 78.256 169.681 82.4C169.681 91.472 164.053 96.008 152.797 96.008C149.101 96.008 144.621 95.504 139.357 94.496L136.669 93.992L137.005 84.584C143.949 85.48 148.765 85.928 151.453 85.928C154.197 85.928 156.045 85.676 156.997 85.172C158.005 84.612 158.509 83.8 158.509 82.736C158.509 81.672 157.977 80.888 156.913 80.384C155.905 79.88 153.217 79.264 148.849 78.536C144.537 77.808 141.317 76.576 139.189 74.84C137.061 73.104 135.997 70.024 135.997 65.6C135.997 61.12 137.509 57.76 140.533 55.52C143.557 53.224 147.449 52.076 152.209 52.076C155.513 52.076 160.021 52.608 165.733 53.672L168.505 54.176L168.337 63.5ZM218.267 78.368H208.859V95H197.267V37.88H218.267C231.819 37.88 238.595 44.488 238.595 57.704C238.595 64.368 236.859 69.492 233.387 73.076C229.971 76.604 224.931 78.368 218.267 78.368ZM208.859 68.456H218.183C223.951 68.456 226.835 64.872 226.835 57.704C226.835 54.176 226.135 51.656 224.735 50.144C223.335 48.576 221.151 47.792 218.183 47.792H208.859V68.456ZM245.724 95V53H256.896V57.452C261.6 54.652 266.08 52.832 270.336 51.992V63.332C265.8 64.284 261.908 65.264 258.66 66.272L256.98 66.86V95H245.724ZM286.218 78.788C286.274 81.364 286.946 83.24 288.234 84.416C289.578 85.536 291.482 86.096 293.946 86.096C299.154 86.096 303.802 85.928 307.89 85.592L310.242 85.34L310.41 93.656C303.97 95.224 298.146 96.008 292.938 96.008C286.61 96.008 282.018 94.328 279.162 90.968C276.306 87.608 274.878 82.148 274.878 74.588C274.878 59.524 281.066 51.992 293.442 51.992C305.65 51.992 311.754 58.32 311.754 70.976L310.914 78.788H286.218ZM300.666 70.22C300.666 66.86 300.134 64.536 299.07 63.248C298.006 61.904 296.13 61.232 293.442 61.232C290.81 61.232 288.934 61.932 287.814 63.332C286.75 64.676 286.19 66.972 286.134 70.22H300.666ZM319.798 112.64V53H330.97V55.268C334.61 53.084 337.802 51.992 340.546 51.992C346.202 51.992 350.374 53.7 353.062 57.116C355.75 60.476 357.094 66.216 357.094 74.336C357.094 82.456 355.61 88.112 352.642 91.304C349.674 94.44 344.802 96.008 338.026 96.008C336.178 96.008 334.19 95.84 332.062 95.504L331.054 95.336V112.64H319.798ZM338.362 62.072C336.29 62.072 334.19 62.492 332.062 63.332L331.054 63.752V85.76C333.574 86.096 335.618 86.264 337.186 86.264C340.434 86.264 342.646 85.312 343.822 83.408C345.054 81.504 345.67 78.256 345.67 73.664C345.67 65.936 343.234 62.072 338.362 62.072ZM397.661 66.104V83.576C397.773 84.92 397.997 85.872 398.333 86.432C398.669 86.936 399.369 87.3 400.433 87.524L400.097 96.008C397.241 96.008 394.945 95.812 393.209 95.42C391.529 95.028 389.821 94.244 388.085 93.068C384.053 95.028 379.937 96.008 375.737 96.008C367.057 96.008 362.717 91.416 362.717 82.232C362.717 77.752 363.921 74.588 366.329 72.74C368.737 70.836 372.433 69.716 377.417 69.38L386.405 68.708V66.104C386.405 64.368 386.013 63.192 385.229 62.576C384.445 61.904 383.185 61.568 381.449 61.568L365.657 62.24L365.321 54.428C371.313 52.804 376.997 51.992 382.373 51.992C387.805 51.992 391.697 53.112 394.049 55.352C396.457 57.592 397.661 61.176 397.661 66.104ZM378.761 77.192C375.625 77.472 374.057 79.152 374.057 82.232C374.057 85.312 375.429 86.852 378.173 86.852C380.301 86.852 382.625 86.516 385.145 85.844L386.405 85.508V76.52L378.761 77.192ZM408.392 95V53H419.564V57.452C424.268 54.652 428.748 52.832 433.004 51.992V63.332C428.468 64.284 424.576 65.264 421.328 66.272L419.648 66.86V95H408.392ZM448.886 78.788C448.942 81.364 449.614 83.24 450.902 84.416C452.246 85.536 454.15 86.096 456.613 86.096C461.822 86.096 466.47 85.928 470.558 85.592L472.91 85.34L473.078 93.656C466.638 95.224 460.814 96.008 455.606 96.008C449.278 96.008 444.686 94.328 441.83 90.968C438.974 87.608 437.546 82.148 437.546 74.588C437.546 59.524 443.734 51.992 456.11 51.992C468.318 51.992 474.422 58.32 474.422 70.976L473.582 78.788H448.886ZM463.334 70.22C463.334 66.86 462.802 64.536 461.738 63.248C460.674 61.904 458.798 61.232 456.11 61.232C453.478 61.232 451.602 61.932 450.482 63.332C449.418 64.676 448.858 66.972 448.802 70.22H463.334ZM524.191 62.576H513.859V79.796C513.859 81.476 513.887 82.68 513.943 83.408C514.055 84.08 514.363 84.668 514.867 85.172C515.427 85.676 516.267 85.928 517.387 85.928L523.771 85.76L524.275 94.748C520.523 95.588 517.667 96.008 515.707 96.008C510.667 96.008 507.223 94.888 505.375 92.648C503.527 90.352 502.603 86.152 502.603 80.048V62.576H497.647V53H502.603V41.324H513.859V53H524.191V62.576ZM533.789 57.788C536.757 53.924 541.713 51.992 548.657 51.992C555.601 51.992 560.557 53.924 563.525 57.788C566.493 61.596 567.977 66.972 567.977 73.916C567.977 88.644 561.537 96.008 548.657 96.008C535.777 96.008 529.337 88.644 529.337 73.916C529.337 66.972 530.821 61.596 533.789 57.788ZM542.441 83.408C543.617 85.424 545.689 86.432 548.657 86.432C551.625 86.432 553.669 85.424 554.789 83.408C555.965 81.392 556.553 78.228 556.553 73.916C556.553 69.604 555.965 66.468 554.789 64.508C553.669 62.548 551.625 61.568 548.657 61.568C545.689 61.568 543.617 62.548 542.441 64.508C541.321 66.468 540.761 69.604 540.761 73.916C540.761 78.228 541.321 81.392 542.441 83.408ZM611.928 36.2V95H600.756V93.236C596.836 95.084 593.448 96.008 590.592 96.008C584.488 96.008 580.232 94.244 577.824 90.716C575.416 87.188 574.212 81.616 574.212 74C574.212 66.328 575.64 60.756 578.496 57.284C581.408 53.756 585.776 51.992 591.6 51.992C593.392 51.992 595.884 52.272 599.076 52.832L600.672 53.168V36.2H611.928ZM599.496 84.92L600.672 84.668V62.576C597.592 62.016 594.848 61.736 592.44 61.736C587.904 61.736 585.636 65.768 585.636 73.832C585.636 78.2 586.14 81.308 587.148 83.156C588.156 85.004 589.808 85.928 592.104 85.928C594.456 85.928 596.92 85.592 599.496 84.92ZM654.501 66.104V83.576C654.613 84.92 654.837 85.872 655.173 86.432C655.509 86.936 656.209 87.3 657.273 87.524L656.937 96.008C654.081 96.008 651.785 95.812 650.049 95.42C648.369 95.028 646.661 94.244 644.925 93.068C640.893 95.028 636.777 96.008 632.577 96.008C623.897 96.008 619.557 91.416 619.557 82.232C619.557 77.752 620.761 74.588 623.169 72.74C625.577 70.836 629.273 69.716 634.257 69.38L643.245 68.708V66.104C643.245 64.368 642.853 63.192 642.069 62.576C641.285 61.904 640.025 61.568 638.289 61.568L622.497 62.24L622.161 54.428C628.153 52.804 633.837 51.992 639.213 51.992C644.645 51.992 648.537 53.112 650.889 55.352C653.297 57.592 654.501 61.176 654.501 66.104ZM635.601 77.192C632.465 77.472 630.897 79.152 630.897 82.232C630.897 85.312 632.269 86.852 635.013 86.852C637.141 86.852 639.465 86.516 641.985 85.844L643.245 85.508V76.52L635.601 77.192ZM660.793 53H671.881L679.525 85.424H681.457L689.101 53H700.189L685.405 112.64H674.401L679.021 95H671.125L660.793 53Z" fill="white"/>
</svg>
