<svg width="300" height="164" viewBox="0 0 300 164" fill="none" xmlns="http://www.w3.org/2000/svg">
<g clip-path="url(#clip0_39_446)">
<rect width="300" height="164" rx="12" fill="#0F9D58"/>
<g opacity="0.1" clip-path="url(#clip1_39_446)">
<path d="M163.565 57.0372H248.88C258.576 57.0372 266.445 64.9063 266.445 74.6021V129.806C266.445 134.465 264.595 138.932 261.3 142.226C258.006 145.521 253.539 147.371 248.88 147.371H216.872L191.036 173.197C188.989 175.236 186.384 176.623 183.55 177.185C180.715 177.746 177.778 177.455 175.109 176.349C172.439 175.244 170.157 173.373 168.549 170.972C166.941 168.571 166.08 165.748 166.074 162.858V147.371H163.565C158.906 147.371 154.439 145.521 151.145 142.226C147.851 138.932 146 134.465 146 129.806V74.6021C146 64.9063 153.869 57.0372 163.565 57.0372ZM161.056 74.6021V129.806C161.056 131.191 162.18 132.315 163.565 132.315H173.602C175.599 132.315 177.513 133.109 178.925 134.52C180.337 135.932 181.13 137.847 181.13 139.843V161.824L208.431 134.524C209.129 133.824 209.958 133.269 210.871 132.89C211.784 132.511 212.762 132.316 213.75 132.315H248.88C249.546 132.315 250.184 132.051 250.655 131.58C251.125 131.11 251.389 130.472 251.389 129.806V74.6021C251.389 73.9366 251.125 73.2984 250.655 72.8278C250.184 72.3572 249.546 72.0929 248.88 72.0929H163.565C162.899 72.0929 162.261 72.3572 161.791 72.8278C161.32 73.2984 161.056 73.9366 161.056 74.6021ZM291.538 94.6763C291.538 94.0108 291.274 93.3726 290.803 92.902C290.332 92.4314 289.694 92.1671 289.029 92.1671H284.01C282.014 92.1671 280.099 91.374 278.687 89.9622C277.275 88.5505 276.482 86.6357 276.482 84.6392C276.482 82.6427 277.275 80.728 278.687 79.3163C280.099 77.9045 282.014 77.1114 284.01 77.1114H289.029C298.724 77.1114 306.594 84.9805 306.594 94.6763V149.88C306.594 154.539 304.743 159.007 301.449 162.301C298.155 165.595 293.687 167.445 289.029 167.445H286.519V182.933C286.514 185.822 285.653 188.645 284.045 191.046C282.437 193.447 280.154 195.318 277.485 196.424C274.815 197.529 271.878 197.82 269.044 197.259C266.209 196.698 263.604 195.31 261.557 193.271L238.542 170.256C237.551 169.336 236.827 168.165 236.445 166.868C236.064 165.571 236.039 164.194 236.374 162.884C236.709 161.574 237.391 160.379 238.349 159.424C239.306 158.469 240.503 157.79 241.814 157.458C243.123 157.123 244.498 157.146 245.794 157.526C247.09 157.906 248.261 158.628 249.181 159.616L271.464 181.899V159.917C271.464 157.921 272.257 156.006 273.669 154.594C275.08 153.183 276.995 152.39 278.992 152.39H289.029C289.694 152.39 290.332 152.125 290.803 151.655C291.274 151.184 291.538 150.546 291.538 149.88V94.6763Z" fill="white"/>
</g>
<path fill-rule="evenodd" clip-rule="evenodd" d="M35.855 46.42C32.5883 45.5751 26 43.2059 26 37.8319C26 30.6854 34.9633 20.8649 34.9633 20.8649C34.9633 20.8649 37.8817 16 46.0917 16C54.3 16 58.495 20.8649 58.495 20.8649C58.495 20.8649 64.3333 27.233 64.3333 37.8319C64.3333 43.2935 61.04 45.5103 57.8483 46.3778C55.255 49.3778 51.2567 51.28 46.8333 51.28C42.43 51.28 38.45 49.3973 35.855 46.42ZM36.825 41.8114C38.365 45.4178 42.2117 48.0384 46.8333 48.0384C48.7333 48.0384 50.5017 47.5941 52.0333 46.8222L51.9283 46.8108C51.9283 46.8108 61.8917 37.4573 53.5 25.7297C52.5883 24.0805 38.7033 28.1622 36.8333 30.5946C35.71 32.0541 36.23 37.6081 36.825 41.8114Z" fill="white"/>
<path d="M30.055 62.1221C29.0495 62.7214 28.294 63.6473 27.9221 64.736C27.5501 65.8248 27.5857 67.0064 28.0224 68.0722C28.4591 69.1379 29.2689 70.0192 30.3087 70.5603C31.3485 71.1014 32.5514 71.2675 33.7049 71.0293C34.8584 70.7911 35.8883 70.1639 36.6126 69.2585C37.3368 68.3531 37.7089 67.2278 37.6631 66.0813C37.6172 64.9348 37.1564 63.841 36.362 62.9931C35.5676 62.1452 34.4907 61.5978 33.3217 61.4475C33.2592 61.2299 33.202 61.0109 33.15 60.7908C32.9221 59.7889 32.7441 58.7769 32.6167 57.7583C32.479 56.7288 32.4011 55.6926 32.3833 54.6545C32.3799 54.3695 32.3882 54.0844 32.4083 53.8C33.0483 53.6216 33.6917 53.4594 34.3333 53.3183C35.0683 53.1562 35.505 53.9994 35.8567 54.6837L35.875 54.7194L36 54.9578H55.5817C55.9633 54.254 56.8283 53.1318 57.6667 53.3183C58.56 53.5162 59.4583 53.7513 60.3483 54.0205L60.3433 54.0221C60.34 54.0189 60.34 54.0189 60.3433 54.0254C60.35 54.0481 60.3867 54.1551 60.4233 54.3821C60.465 54.6448 60.4933 54.9854 60.5067 55.3956C60.53 56.2129 60.4817 57.207 60.3833 58.2091C60.2833 59.2097 60.135 60.1778 59.9683 60.9416C59.9317 61.1118 59.895 61.2659 59.8583 61.4054H57.6667C57.3572 61.4055 57.0539 61.4895 56.7908 61.6479C56.5276 61.8063 56.315 62.0328 56.1767 62.3021L54.51 65.5454C54.394 65.7704 54.3335 66.0185 54.3333 66.2702V69.5135C54.3333 69.9435 54.5089 70.356 54.8215 70.6601C55.134 70.9642 55.558 71.1351 56 71.1351H59.3333V67.8918H57.6667V66.6529L58.6967 64.6486H63.3033L64.3333 66.6529V67.8918H62.6667V71.1351H66C66.442 71.1351 66.866 70.9642 67.1785 70.6601C67.4911 70.356 67.6667 69.9435 67.6667 69.5135V66.2702C67.6665 66.0185 67.606 65.7704 67.49 65.5454L65.8233 62.3021C65.685 62.0328 65.4724 61.8063 65.2092 61.6479C64.946 61.4895 64.6428 61.4055 64.3333 61.4054H63.2733C63.4517 60.541 63.6 59.5324 63.7 58.5205C63.81 57.4275 63.8667 56.294 63.8383 55.3048L63.8367 55.2594C70.4833 57.9918 76 62.4854 76 67.1945V76H16V67.1945C16 62.2778 22.0167 57.5945 29.0517 54.9075C29.07 55.9162 29.1683 57.0562 29.31 58.1605C29.4633 59.3524 29.6717 60.5378 29.9017 61.514C29.9517 61.7232 30.0017 61.9259 30.055 62.1221Z" fill="white"/>
<path d="M32.6667 67.9164C33.5633 67.9164 34.3333 67.2029 34.3333 66.2705C34.3333 65.3396 33.5633 64.6245 32.6667 64.6245C31.77 64.6245 31 65.338 31 66.2705C31 67.2013 31.77 67.9164 32.6667 67.9164Z" fill="white"/>
<path d="M120.212 116V96.82H125.644L131.468 113.256H131.888V96.82H134.996V116H129.676L123.712 99.536H123.32V116H120.212ZM139.407 116V96.82H151.503V99.536H142.515V104.968H149.823V107.656H142.515V113.256H151.503V116H139.407ZM154.884 116V96.82H166.98V99.536H157.992V104.968H165.3V107.656H157.992V113.256H166.98V116H154.884ZM168.512 99.592V96.82H182.512V99.592H177.108V116H173.972V99.592H168.512Z" fill="white"/>
<path d="M95.06 148.78C93.6867 149.06 92.4533 149.2 91.36 149.2C90.2667 149.2 89.38 149.053 88.7 148.76C88.0333 148.453 87.5133 147.987 87.14 147.36C86.78 146.72 86.5267 145.993 86.38 145.18C86.2467 144.353 86.18 143.327 86.18 142.1C86.18 140.873 86.2467 139.847 86.38 139.02C86.5267 138.18 86.78 137.44 87.14 136.8C87.5133 136.16 88.0333 135.693 88.7 135.4C89.3667 135.107 90.2333 134.96 91.3 134.96C92.3667 134.96 93.62 135.107 95.06 135.4L95 136.7C93.6533 136.46 92.4533 136.34 91.4 136.34C89.9333 136.34 88.96 136.78 88.48 137.66C88.0133 138.527 87.78 140.013 87.78 142.12C87.78 143.173 87.82 144.02 87.9 144.66C87.9933 145.3 88.1667 145.88 88.42 146.4C88.6733 146.907 89.04 147.273 89.52 147.5C90.0133 147.713 90.7267 147.82 91.66 147.82C92.6067 147.82 93.72 147.7 95 147.46L95.06 148.78ZM97.4389 149V134.64H98.9389V149H97.4389ZM109.008 142.02V147.14C109.048 147.633 109.434 147.927 110.168 148.02L110.108 149.2C109.054 149.2 108.261 148.933 107.728 148.4C106.528 148.933 105.328 149.2 104.128 149.2C103.208 149.2 102.508 148.94 102.028 148.42C101.548 147.9 101.308 147.153 101.308 146.18C101.308 145.207 101.554 144.493 102.048 144.04C102.541 143.573 103.314 143.287 104.368 143.18L107.508 142.88V142.02C107.508 141.34 107.361 140.853 107.068 140.56C106.774 140.267 106.374 140.12 105.868 140.12C104.801 140.12 103.694 140.187 102.548 140.32L101.928 140.38L101.868 139.24C103.334 138.947 104.634 138.8 105.768 138.8C106.901 138.8 107.721 139.06 108.228 139.58C108.748 140.1 109.008 140.913 109.008 142.02ZM102.848 146.1C102.848 147.327 103.354 147.94 104.368 147.94C105.274 147.94 106.168 147.787 107.048 147.48L107.508 147.32V144.02L104.548 144.3C103.948 144.353 103.514 144.527 103.248 144.82C102.981 145.113 102.848 145.54 102.848 146.1ZM115.107 140.14C113.654 140.14 112.927 140.647 112.927 141.66C112.927 142.127 113.094 142.46 113.427 142.66C113.761 142.847 114.521 143.047 115.707 143.26C116.894 143.46 117.734 143.747 118.227 144.12C118.721 144.493 118.967 145.193 118.967 146.22C118.967 147.247 118.634 148 117.967 148.48C117.314 148.96 116.354 149.2 115.087 149.2C114.261 149.2 113.287 149.107 112.167 148.92L111.567 148.82L111.647 147.52C113.167 147.747 114.314 147.86 115.087 147.86C115.861 147.86 116.447 147.74 116.847 147.5C117.261 147.247 117.467 146.833 117.467 146.26C117.467 145.673 117.294 145.28 116.947 145.08C116.601 144.867 115.841 144.667 114.667 144.48C113.494 144.293 112.661 144.02 112.167 143.66C111.674 143.3 111.427 142.633 111.427 141.66C111.427 140.687 111.767 139.967 112.447 139.5C113.141 139.033 114.001 138.8 115.027 138.8C115.841 138.8 116.861 138.893 118.087 139.08L118.647 139.18L118.607 140.46C117.127 140.247 115.961 140.14 115.107 140.14ZM124.404 140.14C122.951 140.14 122.224 140.647 122.224 141.66C122.224 142.127 122.391 142.46 122.724 142.66C123.058 142.847 123.818 143.047 125.004 143.26C126.191 143.46 127.031 143.747 127.524 144.12C128.018 144.493 128.264 145.193 128.264 146.22C128.264 147.247 127.931 148 127.264 148.48C126.611 148.96 125.651 149.2 124.384 149.2C123.558 149.2 122.584 149.107 121.464 148.92L120.864 148.82L120.944 147.52C122.464 147.747 123.611 147.86 124.384 147.86C125.158 147.86 125.744 147.74 126.144 147.5C126.558 147.247 126.764 146.833 126.764 146.26C126.764 145.673 126.591 145.28 126.244 145.08C125.898 144.867 125.138 144.667 123.964 144.48C122.791 144.293 121.958 144.02 121.464 143.66C120.971 143.3 120.724 142.633 120.724 141.66C120.724 140.687 121.064 139.967 121.744 139.5C122.438 139.033 123.298 138.8 124.324 138.8C125.138 138.8 126.158 138.893 127.384 139.08L127.944 139.18L127.904 140.46C126.424 140.247 125.258 140.14 124.404 140.14ZM135.636 135.16L139.136 141.08L142.656 135.16H144.316L140.056 142.18L144.316 149H142.576L139.096 143.26L135.556 149H133.896L138.176 142.22L133.896 135.16H135.636ZM146.368 149V135.16H147.908V149H146.368ZM150.27 151.46L151.19 146.86H152.85L151.51 151.46H150.27ZM160.558 135.16L164.058 141.08L167.578 135.16H169.238L164.978 142.18L169.238 149H167.498L164.018 143.26L160.478 149H158.818L163.098 142.22L158.818 135.16H160.558ZM171.29 149V135.16H172.83V149H171.29ZM176.212 149V135.16H177.752V149H176.212ZM180.114 151.46L181.034 146.86H182.694L181.354 151.46H180.114ZM190.401 135.16L193.901 141.08L197.421 135.16H199.081L194.821 142.18L199.081 149H197.341L193.861 143.26L190.321 149H188.661L192.941 142.22L188.661 135.16H190.401ZM201.134 149V135.16H202.674V149H201.134ZM206.055 149V135.16H207.595V149H206.055ZM210.977 149V135.16H212.517V149H210.977Z" fill="white"/>
</g>
<defs>
<clipPath id="clip0_39_446">
<rect width="300" height="164" rx="12" fill="white"/>
</clipPath>
<clipPath id="clip1_39_446">
<rect width="160.594" height="160.594" fill="white" transform="translate(146 47)"/>
</clipPath>
</defs>
</svg>
