<svg width="125" height="125" viewBox="0 0 125 125" fill="none" xmlns="http://www.w3.org/2000/svg">
<rect width="125" height="125" rx="62.5" fill="#383838"/>
<path d="M74.76 66.7C80.75 62.72 84.72 55.92 84.72 48.2C84.72 35.96 74.76 26 62.52 26C50.28 26 40.32 35.96 40.32 48.2C40.32 55.92 44.28 62.72 50.28 66.7C36.71 71.71 27 84.72 27 100H32.92C32.92 83.68 46.2 70.4 62.52 70.4C78.84 70.4 92.12 83.68 92.12 100H98.04C98.04 84.72 88.33 71.7 74.76 66.7ZM62.52 64.48C53.54 64.48 46.24 57.18 46.24 48.2C46.24 39.22 53.54 31.92 62.52 31.92C71.5 31.92 78.8 39.22 78.8 48.2C78.8 57.18 71.5 64.48 62.52 64.48Z" fill="#FA6541"/>
</svg>
