<svg width="469" height="76" viewBox="0 0 469 76" fill="none" xmlns="http://www.w3.org/2000/svg">
<path d="M77.8231 0H469V76H0L77.8231 0Z" fill="#525151"/>
<path d="M89.5 0H469V76H14L89.5 0Z" fill="#2D2D2D"/>
<path d="M141.02 29V20.696H145.988V21.512H141.944V24.752H145.364V25.568H141.944V29H141.02ZM147.305 25.988C147.305 24.892 147.501 24.1 147.893 23.612C148.285 23.124 148.945 22.88 149.873 22.88C150.809 22.88 151.469 23.124 151.853 23.612C152.245 24.1 152.441 24.892 152.441 25.988C152.441 27.084 152.257 27.88 151.889 28.376C151.521 28.872 150.849 29.12 149.873 29.12C148.897 29.12 148.225 28.872 147.857 28.376C147.489 27.88 147.305 27.084 147.305 25.988ZM148.229 25.976C148.229 26.848 148.333 27.46 148.541 27.812C148.757 28.164 149.201 28.34 149.873 28.34C150.553 28.34 150.997 28.168 151.205 27.824C151.413 27.472 151.517 26.856 151.517 25.976C151.517 25.096 151.401 24.492 151.169 24.164C150.937 23.828 150.505 23.66 149.873 23.66C149.249 23.66 148.817 23.828 148.577 24.164C148.345 24.492 148.229 25.096 148.229 25.976ZM154.509 29V23H155.397V23.816C156.093 23.336 156.825 23.02 157.593 22.868V23.78C157.257 23.844 156.905 23.944 156.537 24.08C156.177 24.216 155.901 24.336 155.709 24.44L155.409 24.596V29H154.509ZM166.73 24.812V27.884C166.754 28.18 166.986 28.356 167.426 28.412L167.39 29.12C166.758 29.12 166.282 28.96 165.962 28.64C165.242 28.96 164.522 29.12 163.802 29.12C163.25 29.12 162.83 28.964 162.542 28.652C162.254 28.34 162.11 27.892 162.11 27.308C162.11 26.724 162.258 26.296 162.554 26.024C162.85 25.744 163.314 25.572 163.946 25.508L165.83 25.328V24.812C165.83 24.404 165.742 24.112 165.566 23.936C165.39 23.76 165.15 23.672 164.846 23.672C164.206 23.672 163.542 23.712 162.854 23.792L162.482 23.828L162.446 23.144C163.326 22.968 164.106 22.88 164.786 22.88C165.466 22.88 165.958 23.036 166.262 23.348C166.574 23.66 166.73 24.148 166.73 24.812ZM163.034 27.26C163.034 27.996 163.338 28.364 163.946 28.364C164.49 28.364 165.026 28.272 165.554 28.088L165.83 27.992V26.012L164.054 26.18C163.694 26.212 163.434 26.316 163.274 26.492C163.114 26.668 163.034 26.924 163.034 27.26ZM170.006 29H169.106V23H169.994V23.42C170.642 23.06 171.262 22.88 171.854 22.88C172.654 22.88 173.19 23.096 173.462 23.528C173.742 23.96 173.882 24.728 173.882 25.832V29H172.994V25.856C172.994 25.024 172.91 24.456 172.742 24.152C172.582 23.84 172.234 23.684 171.698 23.684C171.442 23.684 171.17 23.724 170.882 23.804C170.602 23.876 170.386 23.948 170.234 24.02L170.006 24.128V29ZM175.517 23H176.417L177.917 28.22H178.313L179.825 23H180.725L178.229 31.664H177.329L178.109 29H177.221L175.517 23ZM188.815 29.12C187.575 29.12 186.719 28.78 186.247 28.1C185.775 27.42 185.539 26.352 185.539 24.896C185.539 23.432 185.779 22.348 186.259 21.644C186.739 20.932 187.591 20.576 188.815 20.576C190.039 20.576 190.891 20.928 191.371 21.632C191.859 22.336 192.103 23.42 192.103 24.884C192.103 25.9 191.999 26.716 191.791 27.332C191.583 27.94 191.227 28.392 190.723 28.688L191.743 30.332L190.879 30.74L189.823 29.012C189.559 29.084 189.223 29.12 188.815 29.12ZM186.487 24.884C186.487 26.1 186.647 26.976 186.967 27.512C187.287 28.04 187.903 28.304 188.815 28.304C189.735 28.304 190.351 28.048 190.663 27.536C190.983 27.016 191.143 26.144 191.143 24.92C191.143 23.688 190.979 22.792 190.651 22.232C190.323 21.672 189.707 21.392 188.803 21.392C187.907 21.392 187.295 21.672 186.967 22.232C186.647 22.784 186.487 23.668 186.487 24.884ZM197.985 23H198.885V29H197.985V28.58C197.385 28.94 196.793 29.12 196.209 29.12C195.393 29.12 194.849 28.908 194.577 28.484C194.313 28.06 194.181 27.276 194.181 26.132V23H195.081V26.12C195.081 26.992 195.157 27.576 195.309 27.872C195.461 28.168 195.805 28.316 196.341 28.316C196.605 28.316 196.873 28.28 197.145 28.208C197.417 28.128 197.625 28.052 197.769 27.98L197.985 27.872V23ZM205.296 28.256L205.644 28.22L205.668 28.928C204.756 29.056 203.976 29.12 203.328 29.12C202.464 29.12 201.852 28.872 201.492 28.376C201.132 27.872 200.952 27.092 200.952 26.036C200.952 23.932 201.788 22.88 203.46 22.88C204.268 22.88 204.872 23.108 205.272 23.564C205.672 24.012 205.872 24.72 205.872 25.688L205.824 26.372H201.864C201.864 27.036 201.984 27.528 202.224 27.848C202.464 28.168 202.88 28.328 203.472 28.328C204.072 28.328 204.68 28.304 205.296 28.256ZM204.972 25.652C204.972 24.916 204.852 24.396 204.612 24.092C204.38 23.788 203.996 23.636 203.46 23.636C202.932 23.636 202.532 23.796 202.26 24.116C201.996 24.436 201.86 24.948 201.852 25.652H204.972ZM207.874 29V23H208.762V23.816C209.458 23.336 210.19 23.02 210.958 22.868V23.78C210.622 23.844 210.27 23.944 209.902 24.08C209.542 24.216 209.266 24.336 209.074 24.44L208.774 24.596V29H207.874ZM212.059 23H212.959L214.459 28.22H214.855L216.367 23H217.267L214.771 31.664H213.871L214.651 29H213.763L212.059 23ZM225.452 26.204H223.34V29H222.416V20.696H225.452C226.356 20.696 227.024 20.916 227.456 21.356C227.888 21.796 228.104 22.468 228.104 23.372C228.104 25.26 227.22 26.204 225.452 26.204ZM223.34 25.388H225.44C226.584 25.388 227.156 24.716 227.156 23.372C227.156 22.732 227.02 22.264 226.748 21.968C226.476 21.664 226.04 21.512 225.44 21.512H223.34V25.388ZM230.045 29V20.384H230.945V29H230.045ZM237.431 28.256L237.779 28.22L237.803 28.928C236.891 29.056 236.111 29.12 235.463 29.12C234.599 29.12 233.987 28.872 233.627 28.376C233.267 27.872 233.087 27.092 233.087 26.036C233.087 23.932 233.923 22.88 235.595 22.88C236.403 22.88 237.007 23.108 237.407 23.564C237.807 24.012 238.007 24.72 238.007 25.688L237.959 26.372H233.999C233.999 27.036 234.119 27.528 234.359 27.848C234.599 28.168 235.015 28.328 235.607 28.328C236.207 28.328 236.815 28.304 237.431 28.256ZM237.107 25.652C237.107 24.916 236.987 24.396 236.747 24.092C236.515 23.788 236.131 23.636 235.595 23.636C235.067 23.636 234.667 23.796 234.395 24.116C234.131 24.436 233.995 24.948 233.987 25.652H237.107ZM244.245 24.812V27.884C244.269 28.18 244.501 28.356 244.941 28.412L244.905 29.12C244.273 29.12 243.797 28.96 243.477 28.64C242.757 28.96 242.037 29.12 241.317 29.12C240.765 29.12 240.345 28.964 240.057 28.652C239.769 28.34 239.625 27.892 239.625 27.308C239.625 26.724 239.773 26.296 240.069 26.024C240.365 25.744 240.829 25.572 241.461 25.508L243.345 25.328V24.812C243.345 24.404 243.257 24.112 243.081 23.936C242.905 23.76 242.665 23.672 242.361 23.672C241.721 23.672 241.057 23.712 240.369 23.792L239.997 23.828L239.961 23.144C240.841 22.968 241.621 22.88 242.301 22.88C242.981 22.88 243.473 23.036 243.777 23.348C244.089 23.66 244.245 24.148 244.245 24.812ZM240.549 27.26C240.549 27.996 240.853 28.364 241.461 28.364C242.005 28.364 242.541 28.272 243.069 28.088L243.345 27.992V26.012L241.569 26.18C241.209 26.212 240.949 26.316 240.789 26.492C240.629 26.668 240.549 26.924 240.549 27.26ZM248.505 23.684C247.633 23.684 247.197 23.988 247.197 24.596C247.197 24.876 247.297 25.076 247.497 25.196C247.697 25.308 248.153 25.428 248.865 25.556C249.577 25.676 250.081 25.848 250.377 26.072C250.673 26.296 250.821 26.716 250.821 27.332C250.821 27.948 250.621 28.4 250.221 28.688C249.829 28.976 249.253 29.12 248.493 29.12C247.997 29.12 247.413 29.064 246.741 28.952L246.381 28.892L246.429 28.112C247.341 28.248 248.029 28.316 248.493 28.316C248.957 28.316 249.309 28.244 249.549 28.1C249.797 27.948 249.921 27.7 249.921 27.356C249.921 27.004 249.817 26.768 249.609 26.648C249.401 26.52 248.945 26.4 248.241 26.288C247.537 26.176 247.037 26.012 246.741 25.796C246.445 25.58 246.297 25.18 246.297 24.596C246.297 24.012 246.501 23.58 246.909 23.3C247.325 23.02 247.841 22.88 248.457 22.88C248.945 22.88 249.557 22.936 250.293 23.048L250.629 23.108L250.605 23.876C249.717 23.748 249.017 23.684 248.505 23.684ZM256.879 28.256L257.227 28.22L257.251 28.928C256.339 29.056 255.559 29.12 254.911 29.12C254.047 29.12 253.435 28.872 253.075 28.376C252.715 27.872 252.535 27.092 252.535 26.036C252.535 23.932 253.371 22.88 255.043 22.88C255.851 22.88 256.455 23.108 256.855 23.564C257.255 24.012 257.455 24.72 257.455 25.688L257.407 26.372H253.447C253.447 27.036 253.567 27.528 253.807 27.848C254.047 28.168 254.463 28.328 255.055 28.328C255.655 28.328 256.263 28.304 256.879 28.256ZM256.555 25.652C256.555 24.916 256.435 24.396 256.195 24.092C255.963 23.788 255.579 23.636 255.043 23.636C254.515 23.636 254.115 23.796 253.843 24.116C253.579 24.436 253.443 24.948 253.435 25.652H256.555ZM262.85 29V20.696H267.818V21.512H263.774V24.752H267.194V25.568H263.774V29H262.85ZM273.48 28.256L273.828 28.22L273.852 28.928C272.94 29.056 272.16 29.12 271.512 29.12C270.648 29.12 270.036 28.872 269.676 28.376C269.316 27.872 269.136 27.092 269.136 26.036C269.136 23.932 269.972 22.88 271.644 22.88C272.452 22.88 273.056 23.108 273.456 23.564C273.856 24.012 274.056 24.72 274.056 25.688L274.008 26.372H270.048C270.048 27.036 270.168 27.528 270.408 27.848C270.648 28.168 271.064 28.328 271.656 28.328C272.256 28.328 272.864 28.304 273.48 28.256ZM273.156 25.652C273.156 24.916 273.036 24.396 272.796 24.092C272.564 23.788 272.18 23.636 271.644 23.636C271.116 23.636 270.716 23.796 270.444 24.116C270.18 24.436 270.044 24.948 270.036 25.652H273.156ZM280.139 28.256L280.487 28.22L280.511 28.928C279.599 29.056 278.819 29.12 278.171 29.12C277.307 29.12 276.695 28.872 276.335 28.376C275.975 27.872 275.795 27.092 275.795 26.036C275.795 23.932 276.631 22.88 278.303 22.88C279.111 22.88 279.715 23.108 280.115 23.564C280.515 24.012 280.715 24.72 280.715 25.688L280.667 26.372H276.707C276.707 27.036 276.827 27.528 277.067 27.848C277.307 28.168 277.723 28.328 278.315 28.328C278.915 28.328 279.523 28.304 280.139 28.256ZM279.815 25.652C279.815 24.916 279.695 24.396 279.455 24.092C279.223 23.788 278.839 23.636 278.303 23.636C277.775 23.636 277.375 23.796 277.103 24.116C276.839 24.436 276.703 24.948 276.695 25.652H279.815ZM282.789 29V20.384H283.689V29H282.789ZM289.487 29V20.696H294.455V21.512H290.411V24.752H293.831V25.568H290.411V29H289.487ZM295.99 29V23H296.878V23.816C297.574 23.336 298.306 23.02 299.074 22.868V23.78C298.738 23.844 298.386 23.944 298.018 24.08C297.658 24.216 297.382 24.336 297.19 24.44L296.89 24.596V29H295.99ZM304.701 28.256L305.049 28.22L305.073 28.928C304.161 29.056 303.381 29.12 302.733 29.12C301.869 29.12 301.257 28.872 300.897 28.376C300.537 27.872 300.357 27.092 300.357 26.036C300.357 23.932 301.193 22.88 302.865 22.88C303.673 22.88 304.277 23.108 304.677 23.564C305.077 24.012 305.277 24.72 305.277 25.688L305.229 26.372H301.269C301.269 27.036 301.389 27.528 301.629 27.848C301.869 28.168 302.285 28.328 302.877 28.328C303.477 28.328 304.085 28.304 304.701 28.256ZM304.377 25.652C304.377 24.916 304.257 24.396 304.017 24.092C303.785 23.788 303.401 23.636 302.865 23.636C302.337 23.636 301.937 23.796 301.665 24.116C301.401 24.436 301.265 24.948 301.257 25.652H304.377ZM311.36 28.256L311.708 28.22L311.732 28.928C310.82 29.056 310.04 29.12 309.392 29.12C308.528 29.12 307.916 28.872 307.556 28.376C307.196 27.872 307.016 27.092 307.016 26.036C307.016 23.932 307.852 22.88 309.524 22.88C310.332 22.88 310.936 23.108 311.336 23.564C311.736 24.012 311.936 24.72 311.936 25.688L311.888 26.372H307.928C307.928 27.036 308.048 27.528 308.288 27.848C308.528 28.168 308.944 28.328 309.536 28.328C310.136 28.328 310.744 28.304 311.36 28.256ZM311.036 25.652C311.036 24.916 310.916 24.396 310.676 24.092C310.444 23.788 310.06 23.636 309.524 23.636C308.996 23.636 308.596 23.796 308.324 24.116C308.06 24.436 307.924 24.948 307.916 25.652H311.036ZM320.283 23.78H318.375V26.648C318.375 27.336 318.423 27.788 318.519 28.004C318.623 28.22 318.863 28.328 319.239 28.328L320.307 28.256L320.367 29C319.831 29.088 319.423 29.132 319.143 29.132C318.519 29.132 318.087 28.98 317.847 28.676C317.607 28.372 317.487 27.792 317.487 26.936V23.78H316.635V23H317.487V21.164H318.375V23H320.283V23.78ZM321.718 25.988C321.718 24.892 321.914 24.1 322.306 23.612C322.698 23.124 323.358 22.88 324.286 22.88C325.222 22.88 325.882 23.124 326.266 23.612C326.658 24.1 326.854 24.892 326.854 25.988C326.854 27.084 326.67 27.88 326.302 28.376C325.934 28.872 325.262 29.12 324.286 29.12C323.31 29.12 322.638 28.872 322.27 28.376C321.902 27.88 321.718 27.084 321.718 25.988ZM322.642 25.976C322.642 26.848 322.746 27.46 322.954 27.812C323.17 28.164 323.614 28.34 324.286 28.34C324.966 28.34 325.41 28.168 325.618 27.824C325.826 27.472 325.93 26.856 325.93 25.976C325.93 25.096 325.814 24.492 325.582 24.164C325.35 23.828 324.918 23.66 324.286 23.66C323.662 23.66 323.23 23.828 322.99 24.164C322.758 24.492 322.642 25.096 322.642 25.976ZM337.331 28.868C336.507 29.036 335.767 29.12 335.111 29.12C334.455 29.12 333.923 29.032 333.515 28.856C333.115 28.672 332.803 28.392 332.579 28.016C332.363 27.632 332.211 27.196 332.123 26.708C332.043 26.212 332.003 25.596 332.003 24.86C332.003 24.124 332.043 23.508 332.123 23.012C332.211 22.508 332.363 22.064 332.579 21.68C332.803 21.296 333.115 21.016 333.515 20.84C333.915 20.664 334.435 20.576 335.075 20.576C335.715 20.576 336.467 20.664 337.331 20.84L337.295 21.62C336.487 21.476 335.767 21.404 335.135 21.404C334.255 21.404 333.671 21.668 333.383 22.196C333.103 22.716 332.963 23.608 332.963 24.872C332.963 25.504 332.987 26.012 333.035 26.396C333.091 26.78 333.195 27.128 333.347 27.44C333.499 27.744 333.719 27.964 334.007 28.1C334.303 28.228 334.731 28.292 335.291 28.292C335.859 28.292 336.527 28.22 337.295 28.076L337.331 28.868ZM338.905 25.988C338.905 24.892 339.101 24.1 339.493 23.612C339.885 23.124 340.545 22.88 341.473 22.88C342.409 22.88 343.069 23.124 343.453 23.612C343.845 24.1 344.041 24.892 344.041 25.988C344.041 27.084 343.857 27.88 343.489 28.376C343.121 28.872 342.449 29.12 341.473 29.12C340.497 29.12 339.825 28.872 339.457 28.376C339.089 27.88 338.905 27.084 338.905 25.988ZM339.829 25.976C339.829 26.848 339.933 27.46 340.141 27.812C340.357 28.164 340.801 28.34 341.473 28.34C342.153 28.34 342.597 28.168 342.805 27.824C343.013 27.472 343.117 26.856 343.117 25.976C343.117 25.096 343.001 24.492 342.769 24.164C342.537 23.828 342.105 23.66 341.473 23.66C340.849 23.66 340.417 23.828 340.177 24.164C339.945 24.492 339.829 25.096 339.829 25.976ZM347.009 29H346.109V23H346.997V23.42C347.645 23.06 348.265 22.88 348.857 22.88C349.657 22.88 350.193 23.096 350.465 23.528C350.745 23.96 350.885 24.728 350.885 25.832V29H349.997V25.856C349.997 25.024 349.913 24.456 349.745 24.152C349.585 23.84 349.237 23.684 348.701 23.684C348.445 23.684 348.173 23.724 347.885 23.804C347.605 23.876 347.389 23.948 347.237 24.02L347.009 24.128V29ZM356.227 23.78H354.319V26.648C354.319 27.336 354.367 27.788 354.463 28.004C354.567 28.22 354.807 28.328 355.183 28.328L356.251 28.256L356.311 29C355.775 29.088 355.367 29.132 355.087 29.132C354.463 29.132 354.031 28.98 353.791 28.676C353.551 28.372 353.431 27.792 353.431 26.936V23.78H352.579V23H353.431V21.164H354.319V23H356.227V23.78ZM362.162 24.812V27.884C362.186 28.18 362.418 28.356 362.858 28.412L362.822 29.12C362.19 29.12 361.714 28.96 361.394 28.64C360.674 28.96 359.954 29.12 359.234 29.12C358.682 29.12 358.262 28.964 357.974 28.652C357.686 28.34 357.542 27.892 357.542 27.308C357.542 26.724 357.69 26.296 357.986 26.024C358.282 25.744 358.746 25.572 359.378 25.508L361.262 25.328V24.812C361.262 24.404 361.174 24.112 360.998 23.936C360.822 23.76 360.582 23.672 360.278 23.672C359.638 23.672 358.974 23.712 358.286 23.792L357.914 23.828L357.878 23.144C358.758 22.968 359.538 22.88 360.218 22.88C360.898 22.88 361.39 23.036 361.694 23.348C362.006 23.66 362.162 24.148 362.162 24.812ZM358.466 27.26C358.466 27.996 358.77 28.364 359.378 28.364C359.922 28.364 360.458 28.272 360.986 28.088L361.262 27.992V26.012L359.486 26.18C359.126 26.212 358.866 26.316 358.706 26.492C358.546 26.668 358.466 26.924 358.466 27.26ZM366.781 22.88C367.045 22.88 367.493 22.928 368.125 23.024L368.413 23.06L368.377 23.792C367.737 23.72 367.265 23.684 366.961 23.684C366.281 23.684 365.817 23.848 365.569 24.176C365.329 24.496 365.209 25.096 365.209 25.976C365.209 26.848 365.321 27.456 365.545 27.8C365.777 28.144 366.253 28.316 366.973 28.316L368.389 28.208L368.425 28.952C367.681 29.064 367.125 29.12 366.757 29.12C365.821 29.12 365.173 28.88 364.813 28.4C364.461 27.92 364.285 27.112 364.285 25.976C364.285 24.832 364.477 24.032 364.861 23.576C365.245 23.112 365.885 22.88 366.781 22.88ZM373.472 23.78H371.564V26.648C371.564 27.336 371.612 27.788 371.708 28.004C371.812 28.22 372.052 28.328 372.428 28.328L373.496 28.256L373.556 29C373.02 29.088 372.612 29.132 372.332 29.132C371.708 29.132 371.276 28.98 371.036 28.676C370.796 28.372 370.676 27.792 370.676 26.936V23.78H369.824V23H370.676V21.164H371.564V23H373.472V23.78ZM379.428 26.504C379.428 27.704 380.076 28.304 381.372 28.304C382.044 28.304 382.548 28.164 382.884 27.884C383.228 27.596 383.4 27.136 383.4 26.504V20.696H384.312V26.48C384.312 27.408 384.064 28.08 383.568 28.496C383.08 28.912 382.356 29.12 381.396 29.12C380.436 29.12 379.712 28.912 379.224 28.496C378.744 28.08 378.504 27.408 378.504 26.48V20.696H379.428V26.504ZM388.556 23.684C387.684 23.684 387.248 23.988 387.248 24.596C387.248 24.876 387.348 25.076 387.548 25.196C387.748 25.308 388.204 25.428 388.916 25.556C389.628 25.676 390.132 25.848 390.428 26.072C390.724 26.296 390.872 26.716 390.872 27.332C390.872 27.948 390.672 28.4 390.272 28.688C389.88 28.976 389.304 29.12 388.544 29.12C388.048 29.12 387.464 29.064 386.792 28.952L386.432 28.892L386.48 28.112C387.392 28.248 388.08 28.316 388.544 28.316C389.008 28.316 389.36 28.244 389.6 28.1C389.848 27.948 389.972 27.7 389.972 27.356C389.972 27.004 389.868 26.768 389.66 26.648C389.452 26.52 388.996 26.4 388.292 26.288C387.588 26.176 387.088 26.012 386.792 25.796C386.496 25.58 386.348 25.18 386.348 24.596C386.348 24.012 386.552 23.58 386.96 23.3C387.376 23.02 387.892 22.88 388.508 22.88C388.996 22.88 389.608 22.936 390.344 23.048L390.68 23.108L390.656 23.876C389.768 23.748 389.068 23.684 388.556 23.684ZM396.219 29V27.656H397.203V29H396.219ZM396.291 26.264L396.231 20.696H397.179L397.119 26.264H396.291Z" fill="#8C8C8C"/>
<path d="M107.66 52.396V51.58H109.928V49.24H110.768V51.58H113.06V52.396H110.768V54.76H109.928V52.396H107.66ZM117.279 54.304C118.727 54.304 119.455 53.384 119.463 51.544C118.663 51.848 117.975 52 117.399 52C115.671 52 114.807 51.196 114.807 49.588C114.807 48.78 115.055 48.14 115.551 47.668C116.047 47.196 116.715 46.96 117.555 46.96C118.523 46.96 119.243 47.32 119.715 48.04C120.187 48.752 120.423 49.804 120.423 51.196C120.423 52.58 120.155 53.58 119.619 54.196C119.091 54.812 118.311 55.12 117.279 55.12C116.679 55.12 116.059 55.064 115.419 54.952L115.107 54.904L115.191 54.16C115.911 54.256 116.607 54.304 117.279 54.304ZM117.471 51.184C117.959 51.184 118.523 51.076 119.163 50.86L119.475 50.752C119.451 48.768 118.811 47.776 117.555 47.776C116.995 47.776 116.555 47.94 116.235 48.268C115.923 48.588 115.767 49.028 115.767 49.588C115.767 50.652 116.335 51.184 117.471 51.184ZM126.298 47.08V55H125.374V48.112L123.334 49.456L122.914 48.76L125.434 47.08H126.298ZM138.382 54.304C139.83 54.304 140.558 53.384 140.566 51.544C139.766 51.848 139.078 52 138.502 52C136.774 52 135.91 51.196 135.91 49.588C135.91 48.78 136.158 48.14 136.654 47.668C137.15 47.196 137.818 46.96 138.658 46.96C139.626 46.96 140.346 47.32 140.818 48.04C141.29 48.752 141.526 49.804 141.526 51.196C141.526 52.58 141.258 53.58 140.722 54.196C140.194 54.812 139.414 55.12 138.382 55.12C137.782 55.12 137.162 55.064 136.522 54.952L136.21 54.904L136.294 54.16C137.014 54.256 137.71 54.304 138.382 54.304ZM138.574 51.184C139.062 51.184 139.626 51.076 140.266 50.86L140.578 50.752C140.554 48.768 139.914 47.776 138.658 47.776C138.098 47.776 137.658 47.94 137.338 48.268C137.026 48.588 136.87 49.028 136.87 49.588C136.87 50.652 137.438 51.184 138.574 51.184ZM147.401 47.08V55H146.477V48.112L144.437 49.456L144.017 48.76L146.537 47.08H147.401ZM153.396 46.948C154.052 46.948 154.584 47.072 154.992 47.32C155.856 47.832 156.288 49.112 156.288 51.16C156.288 52.608 156.048 53.632 155.568 54.232C155.088 54.824 154.368 55.12 153.408 55.12C152.448 55.12 151.724 54.828 151.236 54.244C150.756 53.652 150.516 52.604 150.516 51.1C150.516 49.588 150.752 48.52 151.224 47.896C151.704 47.264 152.428 46.948 153.396 46.948ZM153.408 47.776C152.952 47.776 152.592 47.872 152.328 48.064C151.76 48.456 151.476 49.492 151.476 51.172C151.476 52.356 151.632 53.176 151.944 53.632C152.256 54.08 152.744 54.304 153.408 54.304C154.072 54.304 154.56 54.076 154.872 53.62C155.184 53.164 155.34 52.32 155.34 51.088C155.34 49.848 155.188 48.988 154.884 48.508C154.588 48.02 154.096 47.776 153.408 47.776ZM163.254 55H158.19V54.22L160.506 51.784C160.906 51.368 161.198 51.052 161.382 50.836C161.566 50.62 161.73 50.364 161.874 50.068C162.026 49.772 162.102 49.476 162.102 49.18C162.102 48.668 161.962 48.308 161.682 48.1C161.402 47.892 160.966 47.788 160.374 47.788C159.854 47.788 159.274 47.856 158.634 47.992L158.322 48.052L158.25 47.284C159.01 47.068 159.794 46.96 160.602 46.96C161.41 46.96 162.018 47.132 162.426 47.476C162.842 47.812 163.05 48.348 163.05 49.084C163.05 49.644 162.926 50.132 162.678 50.548C162.43 50.964 162.002 51.464 161.394 52.048L159.282 54.196H163.254V55ZM168.025 46.948C168.681 46.948 169.213 47.072 169.621 47.32C170.485 47.832 170.917 49.112 170.917 51.16C170.917 52.608 170.677 53.632 170.197 54.232C169.717 54.824 168.997 55.12 168.037 55.12C167.077 55.12 166.353 54.828 165.865 54.244C165.385 53.652 165.145 52.604 165.145 51.1C165.145 49.588 165.381 48.52 165.853 47.896C166.333 47.264 167.057 46.948 168.025 46.948ZM168.037 47.776C167.581 47.776 167.221 47.872 166.957 48.064C166.389 48.456 166.105 49.492 166.105 51.172C166.105 52.356 166.261 53.176 166.573 53.632C166.885 54.08 167.373 54.304 168.037 54.304C168.701 54.304 169.189 54.076 169.501 53.62C169.813 53.164 169.969 52.32 169.969 51.088C169.969 49.848 169.817 48.988 169.513 48.508C169.217 48.02 168.725 47.776 168.037 47.776ZM177.776 47.92C177.056 47.824 176.356 47.776 175.676 47.776C174.996 47.776 174.472 48.012 174.104 48.484C173.736 48.956 173.552 49.632 173.552 50.512L173.852 50.392C174.052 50.32 174.316 50.244 174.644 50.164C174.98 50.084 175.276 50.044 175.532 50.044C177.308 50.044 178.196 50.864 178.196 52.504C178.196 53.344 177.952 53.992 177.464 54.448C176.984 54.896 176.304 55.12 175.424 55.12C173.536 55.12 172.592 53.748 172.592 51.004C172.592 49.62 172.86 48.6 173.396 47.944C173.94 47.288 174.704 46.96 175.688 46.96C176.336 46.96 176.952 47.008 177.536 47.104L177.86 47.164L177.776 47.92ZM175.472 50.872C175.2 50.872 174.9 50.912 174.572 50.992C174.252 51.064 174 51.136 173.816 51.208L173.54 51.328C173.548 52.24 173.7 52.964 173.996 53.5C174.3 54.036 174.76 54.304 175.376 54.304C175.992 54.304 176.456 54.152 176.768 53.848C177.08 53.536 177.236 53.1 177.236 52.54C177.236 51.972 177.08 51.552 176.768 51.28C176.464 51.008 176.032 50.872 175.472 50.872ZM185.091 47.92C184.371 47.824 183.671 47.776 182.991 47.776C182.311 47.776 181.787 48.012 181.419 48.484C181.051 48.956 180.867 49.632 180.867 50.512L181.167 50.392C181.367 50.32 181.631 50.244 181.959 50.164C182.295 50.084 182.591 50.044 182.847 50.044C184.623 50.044 185.511 50.864 185.511 52.504C185.511 53.344 185.267 53.992 184.779 54.448C184.299 54.896 183.619 55.12 182.739 55.12C180.851 55.12 179.907 53.748 179.907 51.004C179.907 49.62 180.175 48.6 180.711 47.944C181.255 47.288 182.019 46.96 183.003 46.96C183.651 46.96 184.267 47.008 184.851 47.104L185.175 47.164L185.091 47.92ZM182.787 50.872C182.515 50.872 182.215 50.912 181.887 50.992C181.567 51.064 181.315 51.136 181.131 51.208L180.855 51.328C180.863 52.24 181.015 52.964 181.311 53.5C181.615 54.036 182.075 54.304 182.691 54.304C183.307 54.304 183.771 54.152 184.083 53.848C184.395 53.536 184.551 53.1 184.551 52.54C184.551 51.972 184.395 51.552 184.083 51.28C183.779 51.008 183.347 50.872 182.787 50.872ZM192.406 47.92C191.686 47.824 190.986 47.776 190.306 47.776C189.626 47.776 189.102 48.012 188.734 48.484C188.366 48.956 188.182 49.632 188.182 50.512L188.482 50.392C188.682 50.32 188.946 50.244 189.274 50.164C189.61 50.084 189.906 50.044 190.162 50.044C191.938 50.044 192.826 50.864 192.826 52.504C192.826 53.344 192.582 53.992 192.094 54.448C191.614 54.896 190.934 55.12 190.054 55.12C188.166 55.12 187.222 53.748 187.222 51.004C187.222 49.62 187.49 48.6 188.026 47.944C188.57 47.288 189.334 46.96 190.318 46.96C190.966 46.96 191.582 47.008 192.166 47.104L192.49 47.164L192.406 47.92ZM190.102 50.872C189.83 50.872 189.53 50.912 189.202 50.992C188.882 51.064 188.63 51.136 188.446 51.208L188.17 51.328C188.178 52.24 188.33 52.964 188.626 53.5C188.93 54.036 189.39 54.304 190.006 54.304C190.622 54.304 191.086 54.152 191.398 53.848C191.71 53.536 191.866 53.1 191.866 52.54C191.866 51.972 191.71 51.552 191.398 51.28C191.094 51.008 190.662 50.872 190.102 50.872ZM197.285 46.948C197.941 46.948 198.473 47.072 198.881 47.32C199.745 47.832 200.177 49.112 200.177 51.16C200.177 52.608 199.937 53.632 199.457 54.232C198.977 54.824 198.257 55.12 197.297 55.12C196.337 55.12 195.613 54.828 195.125 54.244C194.645 53.652 194.405 52.604 194.405 51.1C194.405 49.588 194.641 48.52 195.113 47.896C195.593 47.264 196.317 46.948 197.285 46.948ZM197.297 47.776C196.841 47.776 196.481 47.872 196.217 48.064C195.649 48.456 195.365 49.492 195.365 51.172C195.365 52.356 195.521 53.176 195.833 53.632C196.145 54.08 196.633 54.304 197.297 54.304C197.961 54.304 198.449 54.076 198.761 53.62C199.073 53.164 199.229 52.32 199.229 51.088C199.229 49.848 199.077 48.988 198.773 48.508C198.477 48.02 197.985 47.776 197.297 47.776ZM207.036 47.92C206.316 47.824 205.616 47.776 204.936 47.776C204.256 47.776 203.732 48.012 203.364 48.484C202.996 48.956 202.812 49.632 202.812 50.512L203.112 50.392C203.312 50.32 203.576 50.244 203.904 50.164C204.24 50.084 204.536 50.044 204.792 50.044C206.568 50.044 207.456 50.864 207.456 52.504C207.456 53.344 207.212 53.992 206.724 54.448C206.244 54.896 205.564 55.12 204.684 55.12C202.796 55.12 201.852 53.748 201.852 51.004C201.852 49.62 202.12 48.6 202.656 47.944C203.2 47.288 203.964 46.96 204.948 46.96C205.596 46.96 206.212 47.008 206.796 47.104L207.12 47.164L207.036 47.92ZM204.732 50.872C204.46 50.872 204.16 50.912 203.832 50.992C203.512 51.064 203.26 51.136 203.076 51.208L202.8 51.328C202.808 52.24 202.96 52.964 203.256 53.5C203.56 54.036 204.02 54.304 204.636 54.304C205.252 54.304 205.716 54.152 206.028 53.848C206.34 53.536 206.496 53.1 206.496 52.54C206.496 51.972 206.34 51.552 206.028 51.28C205.724 51.008 205.292 50.872 204.732 50.872Z" fill="#8C8C8C"/>
<path d="M84.62 49.79C86.06 52.62 88.38 54.93 91.21 56.38L93.41 54.18C93.68 53.91 94.08 53.82 94.43 53.94C95.55 54.31 96.76 54.51 98 54.51C98.55 54.51 99 54.96 99 55.51V59C99 59.55 98.55 60 98 60C88.61 60 81 52.39 81 43C81 42.45 81.45 42 82 42H85.5C86.05 42 86.5 42.45 86.5 43C86.5 44.25 86.7 45.45 87.07 46.57C87.18 46.92 87.1 47.31 86.82 47.59L84.62 49.79Z" fill="#8C8C8C"/>
<path d="M258.8 49H259.76L261.164 54.22H261.608L263.06 49H263.984L262.292 55H260.492L258.8 49ZM269.716 54.256L270.064 54.22L270.088 54.928C269.176 55.056 268.396 55.12 267.748 55.12C266.884 55.12 266.272 54.872 265.912 54.376C265.552 53.872 265.372 53.092 265.372 52.036C265.372 49.932 266.208 48.88 267.88 48.88C268.688 48.88 269.292 49.108 269.692 49.564C270.092 50.012 270.292 50.72 270.292 51.688L270.244 52.372H266.284C266.284 53.036 266.404 53.528 266.644 53.848C266.884 54.168 267.3 54.328 267.892 54.328C268.492 54.328 269.1 54.304 269.716 54.256ZM269.392 51.652C269.392 50.916 269.272 50.396 269.032 50.092C268.8 49.788 268.416 49.636 267.88 49.636C267.352 49.636 266.952 49.796 266.68 50.116C266.416 50.436 266.28 50.948 266.272 51.652H269.392ZM272.294 55V49H273.182V49.816C273.878 49.336 274.61 49.02 275.378 48.868V49.78C275.042 49.844 274.69 49.944 274.322 50.08C273.962 50.216 273.686 50.336 273.494 50.44L273.194 50.596V55H272.294ZM280.151 49.78H278.243V52.648C278.243 53.336 278.291 53.788 278.387 54.004C278.491 54.22 278.731 54.328 279.107 54.328L280.175 54.256L280.235 55C279.699 55.088 279.291 55.132 279.011 55.132C278.387 55.132 277.955 54.98 277.715 54.676C277.475 54.372 277.355 53.792 277.355 52.936V49.78H276.503V49H277.355V47.164H278.243V49H280.151V49.78ZM285.93 54.256L286.278 54.22L286.302 54.928C285.39 55.056 284.61 55.12 283.962 55.12C283.098 55.12 282.486 54.872 282.126 54.376C281.766 53.872 281.586 53.092 281.586 52.036C281.586 49.932 282.422 48.88 284.094 48.88C284.902 48.88 285.506 49.108 285.906 49.564C286.306 50.012 286.506 50.72 286.506 51.688L286.458 52.372H282.498C282.498 53.036 282.618 53.528 282.858 53.848C283.098 54.168 283.514 54.328 284.106 54.328C284.706 54.328 285.314 54.304 285.93 54.256ZM285.606 51.652C285.606 50.916 285.486 50.396 285.246 50.092C285.014 49.788 284.63 49.636 284.094 49.636C283.566 49.636 283.166 49.796 282.894 50.116C282.63 50.436 282.494 50.948 282.486 51.652H285.606ZM287.862 49H288.846L290.31 51.352L291.774 49H292.758L290.85 51.976L292.746 55H291.762L290.31 52.66L288.846 55H287.862L289.746 52L287.862 49ZM296.591 48.88C296.855 48.88 297.303 48.928 297.935 49.024L298.223 49.06L298.187 49.792C297.547 49.72 297.075 49.684 296.771 49.684C296.091 49.684 295.627 49.848 295.379 50.176C295.139 50.496 295.019 51.096 295.019 51.976C295.019 52.848 295.131 53.456 295.355 53.8C295.587 54.144 296.063 54.316 296.783 54.316L298.199 54.208L298.235 54.952C297.491 55.064 296.935 55.12 296.567 55.12C295.631 55.12 294.983 54.88 294.623 54.4C294.271 53.92 294.095 53.112 294.095 51.976C294.095 50.832 294.287 50.032 294.671 49.576C295.055 49.112 295.695 48.88 296.591 48.88ZM300.245 55V46.384H301.145V55H300.245ZM307.787 50.812V53.884C307.811 54.18 308.043 54.356 308.483 54.412L308.447 55.12C307.815 55.12 307.339 54.96 307.019 54.64C306.299 54.96 305.579 55.12 304.859 55.12C304.307 55.12 303.887 54.964 303.599 54.652C303.311 54.34 303.167 53.892 303.167 53.308C303.167 52.724 303.315 52.296 303.611 52.024C303.907 51.744 304.371 51.572 305.003 51.508L306.887 51.328V50.812C306.887 50.404 306.799 50.112 306.623 49.936C306.447 49.76 306.207 49.672 305.903 49.672C305.263 49.672 304.599 49.712 303.911 49.792L303.539 49.828L303.503 49.144C304.383 48.968 305.163 48.88 305.843 48.88C306.523 48.88 307.015 49.036 307.319 49.348C307.631 49.66 307.787 50.148 307.787 50.812ZM304.091 53.26C304.091 53.996 304.395 54.364 305.003 54.364C305.547 54.364 306.083 54.272 306.611 54.088L306.887 53.992V52.012L305.111 52.18C304.751 52.212 304.491 52.316 304.331 52.492C304.171 52.668 304.091 52.924 304.091 53.26ZM312.046 49.684C311.174 49.684 310.738 49.988 310.738 50.596C310.738 50.876 310.838 51.076 311.038 51.196C311.238 51.308 311.694 51.428 312.406 51.556C313.118 51.676 313.622 51.848 313.918 52.072C314.214 52.296 314.362 52.716 314.362 53.332C314.362 53.948 314.162 54.4 313.762 54.688C313.37 54.976 312.794 55.12 312.034 55.12C311.538 55.12 310.954 55.064 310.282 54.952L309.922 54.892L309.97 54.112C310.882 54.248 311.57 54.316 312.034 54.316C312.498 54.316 312.85 54.244 313.09 54.1C313.338 53.948 313.462 53.7 313.462 53.356C313.462 53.004 313.358 52.768 313.15 52.648C312.942 52.52 312.486 52.4 311.782 52.288C311.078 52.176 310.578 52.012 310.282 51.796C309.986 51.58 309.838 51.18 309.838 50.596C309.838 50.012 310.042 49.58 310.45 49.3C310.866 49.02 311.382 48.88 311.998 48.88C312.486 48.88 313.098 48.936 313.834 49.048L314.17 49.108L314.146 49.876C313.258 49.748 312.558 49.684 312.046 49.684ZM318.225 49.684C317.353 49.684 316.917 49.988 316.917 50.596C316.917 50.876 317.017 51.076 317.217 51.196C317.417 51.308 317.873 51.428 318.585 51.556C319.297 51.676 319.801 51.848 320.097 52.072C320.393 52.296 320.541 52.716 320.541 53.332C320.541 53.948 320.341 54.4 319.941 54.688C319.549 54.976 318.973 55.12 318.213 55.12C317.717 55.12 317.133 55.064 316.461 54.952L316.101 54.892L316.149 54.112C317.061 54.248 317.749 54.316 318.213 54.316C318.677 54.316 319.029 54.244 319.269 54.1C319.517 53.948 319.641 53.7 319.641 53.356C319.641 53.004 319.537 52.768 319.329 52.648C319.121 52.52 318.665 52.4 317.961 52.288C317.257 52.176 316.757 52.012 316.461 51.796C316.165 51.58 316.017 51.18 316.017 50.596C316.017 50.012 316.221 49.58 316.629 49.3C317.045 49.02 317.561 48.88 318.177 48.88C318.665 48.88 319.277 48.936 320.013 49.048L320.349 49.108L320.325 49.876C319.437 49.748 318.737 49.684 318.225 49.684ZM326.599 54.256L326.947 54.22L326.971 54.928C326.059 55.056 325.279 55.12 324.631 55.12C323.767 55.12 323.155 54.872 322.795 54.376C322.435 53.872 322.255 53.092 322.255 52.036C322.255 49.932 323.091 48.88 324.763 48.88C325.571 48.88 326.175 49.108 326.575 49.564C326.975 50.012 327.175 50.72 327.175 51.688L327.127 52.372H323.167C323.167 53.036 323.287 53.528 323.527 53.848C323.767 54.168 324.183 54.328 324.775 54.328C325.375 54.328 325.983 54.304 326.599 54.256ZM326.275 51.652C326.275 50.916 326.155 50.396 325.915 50.092C325.683 49.788 325.299 49.636 324.763 49.636C324.235 49.636 323.835 49.796 323.563 50.116C323.299 50.436 323.163 50.948 323.155 51.652H326.275ZM331.061 49.684C330.189 49.684 329.753 49.988 329.753 50.596C329.753 50.876 329.853 51.076 330.053 51.196C330.253 51.308 330.709 51.428 331.421 51.556C332.133 51.676 332.637 51.848 332.933 52.072C333.229 52.296 333.377 52.716 333.377 53.332C333.377 53.948 333.177 54.4 332.777 54.688C332.385 54.976 331.809 55.12 331.049 55.12C330.553 55.12 329.969 55.064 329.297 54.952L328.937 54.892L328.985 54.112C329.897 54.248 330.585 54.316 331.049 54.316C331.513 54.316 331.865 54.244 332.105 54.1C332.353 53.948 332.477 53.7 332.477 53.356C332.477 53.004 332.373 52.768 332.165 52.648C331.957 52.52 331.501 52.4 330.797 52.288C330.093 52.176 329.593 52.012 329.297 51.796C329.001 51.58 328.853 51.18 328.853 50.596C328.853 50.012 329.057 49.58 329.465 49.3C329.881 49.02 330.397 48.88 331.013 48.88C331.501 48.88 332.113 48.936 332.849 49.048L333.185 49.108L333.161 49.876C332.273 49.748 331.573 49.684 331.061 49.684ZM338.007 48.88C338.815 48.88 339.379 49.112 339.699 49.576C340.027 50.032 340.191 50.836 340.191 51.988C340.191 53.14 339.987 53.952 339.579 54.424C339.179 54.888 338.439 55.12 337.359 55.12C337.023 55.12 336.467 55.088 335.691 55.024L335.355 54.988V46.384H336.243V49.3C336.851 49.02 337.439 48.88 338.007 48.88ZM337.347 54.316C338.131 54.316 338.647 54.14 338.895 53.788C339.151 53.428 339.279 52.824 339.279 51.976C339.279 51.128 339.179 50.536 338.979 50.2C338.779 49.856 338.423 49.684 337.911 49.684C337.447 49.684 336.971 49.772 336.483 49.948L336.243 50.032V54.256C336.763 54.296 337.131 54.316 337.347 54.316ZM346.352 54.256L346.7 54.22L346.724 54.928C345.812 55.056 345.032 55.12 344.384 55.12C343.52 55.12 342.908 54.872 342.548 54.376C342.188 53.872 342.008 53.092 342.008 52.036C342.008 49.932 342.844 48.88 344.516 48.88C345.324 48.88 345.928 49.108 346.328 49.564C346.728 50.012 346.928 50.72 346.928 51.688L346.88 52.372H342.92C342.92 53.036 343.04 53.528 343.28 53.848C343.52 54.168 343.936 54.328 344.528 54.328C345.128 54.328 345.736 54.304 346.352 54.256ZM346.028 51.652C346.028 50.916 345.908 50.396 345.668 50.092C345.436 49.788 345.052 49.636 344.516 49.636C343.988 49.636 343.588 49.796 343.316 50.116C343.052 50.436 342.916 50.948 342.908 51.652H346.028ZM351.246 57.82C350.286 57.82 349.614 57.688 349.23 57.424C348.854 57.168 348.666 56.696 348.666 56.008C348.666 55.68 348.738 55.412 348.882 55.204C349.026 55.004 349.27 54.776 349.614 54.52C349.39 54.368 349.278 54.092 349.278 53.692C349.278 53.556 349.378 53.304 349.578 52.936L349.686 52.744C349.054 52.456 348.738 51.852 348.738 50.932C348.738 49.564 349.486 48.88 350.982 48.88C351.366 48.88 351.722 48.92 352.05 49L352.23 49.036L354.006 48.988V49.756L352.866 49.732C353.13 49.996 353.262 50.396 353.262 50.932C353.262 51.684 353.074 52.212 352.698 52.516C352.33 52.812 351.746 52.96 350.946 52.96C350.73 52.96 350.534 52.944 350.358 52.912C350.214 53.264 350.142 53.492 350.142 53.596C350.142 53.844 350.218 54 350.37 54.064C350.522 54.12 350.982 54.148 351.75 54.148C352.518 54.148 353.07 54.268 353.406 54.508C353.742 54.748 353.91 55.216 353.91 55.912C353.91 57.184 353.022 57.82 351.246 57.82ZM349.554 55.936C349.554 56.36 349.67 56.652 349.902 56.812C350.142 56.98 350.578 57.064 351.21 57.064C351.85 57.064 352.306 56.976 352.578 56.8C352.858 56.624 352.998 56.328 352.998 55.912C352.998 55.504 352.898 55.24 352.698 55.12C352.498 55 352.106 54.94 351.522 54.94L350.226 54.88C349.962 55.072 349.782 55.24 349.686 55.384C349.598 55.528 349.554 55.712 349.554 55.936ZM349.638 50.932C349.638 51.404 349.742 51.74 349.95 51.94C350.166 52.14 350.518 52.24 351.006 52.24C351.494 52.24 351.842 52.14 352.05 51.94C352.258 51.74 352.362 51.404 352.362 50.932C352.362 50.452 352.258 50.112 352.05 49.912C351.842 49.712 351.494 49.612 351.006 49.612C350.518 49.612 350.166 49.716 349.95 49.924C349.742 50.124 349.638 50.46 349.638 50.932ZM359.438 49H360.338V55H359.438V54.58C358.838 54.94 358.246 55.12 357.662 55.12C356.846 55.12 356.302 54.908 356.03 54.484C355.766 54.06 355.634 53.276 355.634 52.132V49H356.534V52.12C356.534 52.992 356.61 53.576 356.762 53.872C356.914 54.168 357.258 54.316 357.794 54.316C358.058 54.316 358.326 54.28 358.598 54.208C358.87 54.128 359.078 54.052 359.222 53.98L359.438 53.872V49ZM364.553 49.684C363.681 49.684 363.245 49.988 363.245 50.596C363.245 50.876 363.345 51.076 363.545 51.196C363.745 51.308 364.201 51.428 364.913 51.556C365.625 51.676 366.129 51.848 366.425 52.072C366.721 52.296 366.869 52.716 366.869 53.332C366.869 53.948 366.669 54.4 366.269 54.688C365.877 54.976 365.301 55.12 364.541 55.12C364.045 55.12 363.461 55.064 362.789 54.952L362.429 54.892L362.477 54.112C363.389 54.248 364.077 54.316 364.541 54.316C365.005 54.316 365.357 54.244 365.597 54.1C365.845 53.948 365.969 53.7 365.969 53.356C365.969 53.004 365.865 52.768 365.657 52.648C365.449 52.52 364.993 52.4 364.289 52.288C363.585 52.176 363.085 52.012 362.789 51.796C362.493 51.58 362.345 51.18 362.345 50.596C362.345 50.012 362.549 49.58 362.957 49.3C363.373 49.02 363.889 48.88 364.505 48.88C364.993 48.88 365.605 48.936 366.341 49.048L366.677 49.108L366.653 49.876C365.765 49.748 365.065 49.684 364.553 49.684ZM373.084 50.812V53.884C373.108 54.18 373.34 54.356 373.78 54.412L373.744 55.12C373.112 55.12 372.636 54.96 372.316 54.64C371.596 54.96 370.876 55.12 370.156 55.12C369.604 55.12 369.184 54.964 368.896 54.652C368.608 54.34 368.464 53.892 368.464 53.308C368.464 52.724 368.612 52.296 368.908 52.024C369.204 51.744 369.668 51.572 370.3 51.508L372.184 51.328V50.812C372.184 50.404 372.096 50.112 371.92 49.936C371.744 49.76 371.504 49.672 371.2 49.672C370.56 49.672 369.896 49.712 369.208 49.792L368.836 49.828L368.8 49.144C369.68 48.968 370.46 48.88 371.14 48.88C371.82 48.88 372.312 49.036 372.616 49.348C372.928 49.66 373.084 50.148 373.084 50.812ZM369.388 53.26C369.388 53.996 369.692 54.364 370.3 54.364C370.844 54.364 371.38 54.272 371.908 54.088L372.184 53.992V52.012L370.408 52.18C370.048 52.212 369.788 52.316 369.628 52.492C369.468 52.668 369.388 52.924 369.388 53.26ZM375.459 55V49H376.347V49.816C377.043 49.336 377.775 49.02 378.543 48.868V49.78C378.207 49.844 377.855 49.944 377.487 50.08C377.127 50.216 376.851 50.336 376.659 50.44L376.359 50.596V55H375.459ZM384.444 50.812V53.884C384.468 54.18 384.7 54.356 385.14 54.412L385.104 55.12C384.472 55.12 383.996 54.96 383.676 54.64C382.956 54.96 382.236 55.12 381.516 55.12C380.964 55.12 380.544 54.964 380.256 54.652C379.968 54.34 379.824 53.892 379.824 53.308C379.824 52.724 379.972 52.296 380.268 52.024C380.564 51.744 381.028 51.572 381.66 51.508L383.544 51.328V50.812C383.544 50.404 383.456 50.112 383.28 49.936C383.104 49.76 382.864 49.672 382.56 49.672C381.92 49.672 381.256 49.712 380.568 49.792L380.196 49.828L380.16 49.144C381.04 48.968 381.82 48.88 382.5 48.88C383.18 48.88 383.672 49.036 383.976 49.348C384.288 49.66 384.444 50.148 384.444 50.812ZM380.748 53.26C380.748 53.996 381.052 54.364 381.66 54.364C382.204 54.364 382.74 54.272 383.268 54.088L383.544 53.992V52.012L381.768 52.18C381.408 52.212 381.148 52.316 380.988 52.492C380.828 52.668 380.748 52.924 380.748 53.26ZM386.819 55V49H387.719V55H386.819ZM386.819 47.644V46.6H387.719V47.644H386.819ZM400.376 51.34V51.496C400.376 53.192 400.108 54.26 399.572 54.7C399.38 54.852 399.184 54.952 398.984 55C398.792 55.048 398.568 55.072 398.312 55.072C398.064 55.072 397.848 55.048 397.664 55C397.488 54.952 397.352 54.892 397.256 54.82C397.064 54.676 396.932 54.52 396.86 54.352C396.076 54.824 395.38 55.06 394.772 55.06C394.476 55.06 394.216 55.024 393.992 54.952C393.776 54.88 393.556 54.744 393.332 54.544C392.884 54.144 392.66 53.364 392.66 52.204C392.66 51.044 392.84 50.212 393.2 49.708C393.568 49.196 394.2 48.94 395.096 48.94C395.44 48.94 395.828 49.016 396.26 49.168L396.476 49.252V49.06H397.376V51.352C397.376 52.752 397.42 53.584 397.508 53.848C397.548 53.952 397.604 54.048 397.676 54.136C397.756 54.224 397.84 54.276 397.928 54.292C398.016 54.308 398.168 54.316 398.384 54.316C398.6 54.316 398.78 54.264 398.924 54.16C399.076 54.056 399.204 53.792 399.308 53.368C399.412 52.944 399.464 52.32 399.464 51.496V51.328C399.464 49.848 399.136 48.776 398.48 48.112C397.824 47.448 396.732 47.116 395.204 47.116C393.684 47.116 392.552 47.496 391.808 48.256C391.072 49.008 390.704 50.236 390.704 51.94C390.704 53.636 391.056 54.844 391.76 55.564C392.464 56.284 393.62 56.644 395.228 56.644L396.944 56.524L396.98 57.328C396.228 57.4 395.644 57.436 395.228 57.436C394.3 57.436 393.512 57.348 392.864 57.172C392.224 56.996 391.668 56.696 391.196 56.272C390.26 55.456 389.792 53.988 389.792 51.868C389.792 49.94 390.252 48.536 391.172 47.656C392.092 46.768 393.444 46.324 395.228 46.324C397.012 46.324 398.316 46.736 399.14 47.56C399.964 48.376 400.376 49.636 400.376 51.34ZM394.832 54.268C395.176 54.268 395.76 54.084 396.584 53.716C396.512 53.284 396.476 52.592 396.476 51.64V49.972C395.996 49.812 395.584 49.732 395.24 49.732C394.592 49.732 394.152 49.916 393.92 50.284C393.688 50.652 393.572 51.248 393.572 52.072C393.572 53.536 393.992 54.268 394.832 54.268ZM404.679 57.82C403.719 57.82 403.047 57.688 402.663 57.424C402.287 57.168 402.099 56.696 402.099 56.008C402.099 55.68 402.171 55.412 402.315 55.204C402.459 55.004 402.703 54.776 403.047 54.52C402.823 54.368 402.711 54.092 402.711 53.692C402.711 53.556 402.811 53.304 403.011 52.936L403.119 52.744C402.487 52.456 402.171 51.852 402.171 50.932C402.171 49.564 402.919 48.88 404.415 48.88C404.799 48.88 405.155 48.92 405.483 49L405.663 49.036L407.439 48.988V49.756L406.299 49.732C406.563 49.996 406.695 50.396 406.695 50.932C406.695 51.684 406.507 52.212 406.131 52.516C405.763 52.812 405.179 52.96 404.379 52.96C404.163 52.96 403.967 52.944 403.791 52.912C403.647 53.264 403.575 53.492 403.575 53.596C403.575 53.844 403.651 54 403.803 54.064C403.955 54.12 404.415 54.148 405.183 54.148C405.951 54.148 406.503 54.268 406.839 54.508C407.175 54.748 407.343 55.216 407.343 55.912C407.343 57.184 406.455 57.82 404.679 57.82ZM402.987 55.936C402.987 56.36 403.103 56.652 403.335 56.812C403.575 56.98 404.011 57.064 404.643 57.064C405.283 57.064 405.739 56.976 406.011 56.8C406.291 56.624 406.431 56.328 406.431 55.912C406.431 55.504 406.331 55.24 406.131 55.12C405.931 55 405.539 54.94 404.955 54.94L403.659 54.88C403.395 55.072 403.215 55.24 403.119 55.384C403.031 55.528 402.987 55.712 402.987 55.936ZM403.071 50.932C403.071 51.404 403.175 51.74 403.383 51.94C403.599 52.14 403.951 52.24 404.439 52.24C404.927 52.24 405.275 52.14 405.483 51.94C405.691 51.74 405.795 51.404 405.795 50.932C405.795 50.452 405.691 50.112 405.483 49.912C405.275 49.712 404.927 49.612 404.439 49.612C403.951 49.612 403.599 49.716 403.383 49.924C403.175 50.124 403.071 50.46 403.071 50.932ZM410.027 55H409.127V49H410.015V49.42C410.615 49.06 411.199 48.88 411.767 48.88C412.511 48.88 413.031 49.084 413.327 49.492C413.591 49.332 413.931 49.192 414.347 49.072C414.771 48.944 415.143 48.88 415.463 48.88C416.263 48.88 416.799 49.096 417.071 49.528C417.351 49.952 417.491 50.72 417.491 51.832V55H416.591V51.856C416.591 51.024 416.511 50.456 416.351 50.152C416.191 49.84 415.851 49.684 415.331 49.684C415.067 49.684 414.795 49.724 414.515 49.804C414.235 49.876 414.019 49.948 413.867 50.02L413.639 50.128C413.743 50.392 413.795 50.976 413.795 51.88V55H412.895V51.904C412.895 51.04 412.815 50.456 412.655 50.152C412.503 49.84 412.163 49.684 411.635 49.684C411.379 49.684 411.115 49.724 410.843 49.804C410.579 49.876 410.375 49.948 410.231 50.02L410.027 50.128V55ZM423.995 50.812V53.884C424.019 54.18 424.251 54.356 424.691 54.412L424.655 55.12C424.023 55.12 423.547 54.96 423.227 54.64C422.507 54.96 421.787 55.12 421.067 55.12C420.515 55.12 420.095 54.964 419.807 54.652C419.519 54.34 419.375 53.892 419.375 53.308C419.375 52.724 419.523 52.296 419.819 52.024C420.115 51.744 420.579 51.572 421.211 51.508L423.095 51.328V50.812C423.095 50.404 423.007 50.112 422.831 49.936C422.655 49.76 422.415 49.672 422.111 49.672C421.471 49.672 420.807 49.712 420.119 49.792L419.747 49.828L419.711 49.144C420.591 48.968 421.371 48.88 422.051 48.88C422.731 48.88 423.223 49.036 423.527 49.348C423.839 49.66 423.995 50.148 423.995 50.812ZM420.299 53.26C420.299 53.996 420.603 54.364 421.211 54.364C421.755 54.364 422.291 54.272 422.819 54.088L423.095 53.992V52.012L421.319 52.18C420.959 52.212 420.699 52.316 420.539 52.492C420.379 52.668 420.299 52.924 420.299 53.26ZM426.37 55V49H427.27V55H426.37ZM426.37 47.644V46.6H427.27V47.644H426.37ZM429.667 55V46.384H430.567V55H429.667ZM432.913 55V53.632H433.897V55H432.913ZM438.406 48.88C438.67 48.88 439.118 48.928 439.75 49.024L440.038 49.06L440.002 49.792C439.362 49.72 438.89 49.684 438.586 49.684C437.906 49.684 437.442 49.848 437.194 50.176C436.954 50.496 436.834 51.096 436.834 51.976C436.834 52.848 436.946 53.456 437.17 53.8C437.402 54.144 437.878 54.316 438.598 54.316L440.014 54.208L440.05 54.952C439.306 55.064 438.75 55.12 438.382 55.12C437.446 55.12 436.798 54.88 436.438 54.4C436.086 53.92 435.91 53.112 435.91 51.976C435.91 50.832 436.102 50.032 436.486 49.576C436.87 49.112 437.51 48.88 438.406 48.88ZM441.655 51.988C441.655 50.892 441.851 50.1 442.243 49.612C442.635 49.124 443.295 48.88 444.223 48.88C445.159 48.88 445.819 49.124 446.203 49.612C446.595 50.1 446.791 50.892 446.791 51.988C446.791 53.084 446.607 53.88 446.239 54.376C445.871 54.872 445.199 55.12 444.223 55.12C443.247 55.12 442.575 54.872 442.207 54.376C441.839 53.88 441.655 53.084 441.655 51.988ZM442.579 51.976C442.579 52.848 442.683 53.46 442.891 53.812C443.107 54.164 443.551 54.34 444.223 54.34C444.903 54.34 445.347 54.168 445.555 53.824C445.763 53.472 445.867 52.856 445.867 51.976C445.867 51.096 445.751 50.492 445.519 50.164C445.287 49.828 444.855 49.66 444.223 49.66C443.599 49.66 443.167 49.828 442.927 50.164C442.695 50.492 442.579 51.096 442.579 51.976ZM449.759 55H448.859V49H449.747V49.42C450.347 49.06 450.931 48.88 451.499 48.88C452.243 48.88 452.763 49.084 453.059 49.492C453.323 49.332 453.663 49.192 454.079 49.072C454.503 48.944 454.875 48.88 455.195 48.88C455.995 48.88 456.531 49.096 456.803 49.528C457.083 49.952 457.223 50.72 457.223 51.832V55H456.323V51.856C456.323 51.024 456.243 50.456 456.083 50.152C455.923 49.84 455.583 49.684 455.063 49.684C454.799 49.684 454.527 49.724 454.247 49.804C453.967 49.876 453.751 49.948 453.599 50.02L453.371 50.128C453.475 50.392 453.527 50.976 453.527 51.88V55H452.627V51.904C452.627 51.04 452.547 50.456 452.387 50.152C452.235 49.84 451.895 49.684 451.367 49.684C451.111 49.684 450.847 49.724 450.575 49.804C450.311 49.876 450.107 49.948 449.963 50.02L449.759 50.128V55Z" fill="#8C8C8C"/>
<path d="M248.25 42H230.25C229.012 42 228.011 43.0125 228.011 44.25L228 57.75C228 58.9875 229.012 60 230.25 60H248.25C249.487 60 250.5 58.9875 250.5 57.75V44.25C250.5 43.0125 249.487 42 248.25 42ZM248.25 46.5L239.25 52.125L230.25 46.5V44.25L239.25 49.875L248.25 44.25V46.5Z" fill="#8C8C8C"/>
</svg>
