<svg width="443" height="154" viewBox="0 0 443 154" fill="none" xmlns="http://www.w3.org/2000/svg">
<path d="M3.3 59.2V47H53.3V59.2H35.3V115H21.5V59.2H3.3ZM56.6031 70.7C60.1365 66.1 66.0365 63.8 74.3031 63.8C82.5698 63.8 88.4698 66.1 92.0031 70.7C95.5365 75.2333 97.3031 81.6333 97.3031 89.9C97.3031 107.433 89.6365 116.2 74.3031 116.2C58.9698 116.2 51.3031 107.433 51.3031 89.9C51.3031 81.6333 53.0698 75.2333 56.6031 70.7ZM66.9031 101.2C68.3031 103.6 70.7698 104.8 74.3031 104.8C77.8365 104.8 80.2698 103.6 81.6031 101.2C83.0031 98.8 83.7031 95.0333 83.7031 89.9C83.7031 84.7667 83.0031 81.0333 81.6031 78.7C80.2698 76.3667 77.8365 75.2 74.3031 75.2C70.7698 75.2 68.3031 76.3667 66.9031 78.7C65.5698 81.0333 64.9031 84.7667 64.9031 89.9C64.9031 95.0333 65.5698 98.8 66.9031 101.2ZM120.526 115H107.126V65H120.426V67.8C125.026 65.1333 128.959 63.8 132.226 63.8C137.626 63.8 141.792 65.3667 144.726 68.5C150.859 65.3667 156.459 63.8 161.526 63.8C168.126 63.8 172.692 65.7333 175.226 69.6C177.826 73.4 179.126 79.5 179.126 87.9V115H165.726V88.3C165.726 84.0333 165.259 80.9 164.326 78.9C163.392 76.8333 161.526 75.8 158.726 75.8C156.592 75.8 153.992 76.2667 150.926 77.2L149.426 77.7C149.692 82.7 149.826 86.5 149.826 89.1V115H136.426V89.3C136.426 84.3667 135.992 80.9 135.126 78.9C134.259 76.8333 132.359 75.8 129.426 75.8C126.826 75.8 124.259 76.2667 121.726 77.2L120.526 77.6V115ZM193.713 70.7C197.246 66.1 203.146 63.8 211.413 63.8C219.679 63.8 225.579 66.1 229.113 70.7C232.646 75.2333 234.413 81.6333 234.413 89.9C234.413 107.433 226.746 116.2 211.413 116.2C196.079 116.2 188.413 107.433 188.413 89.9C188.413 81.6333 190.179 75.2333 193.713 70.7ZM204.013 101.2C205.413 103.6 207.879 104.8 211.413 104.8C214.946 104.8 217.379 103.6 218.713 101.2C220.113 98.8 220.813 95.0333 220.813 89.9C220.813 84.7667 220.113 81.0333 218.713 78.7C217.379 76.3667 214.946 75.2 211.413 75.2C207.879 75.2 205.413 76.3667 204.013 78.7C202.679 81.0333 202.013 84.7667 202.013 89.9C202.013 95.0333 202.679 98.8 204.013 101.2ZM244.235 115V65H257.535V70.3C263.135 66.9667 268.468 64.8 273.535 63.8V77.3C268.135 78.4333 263.502 79.6 259.635 80.8L257.635 81.5V115H244.235ZM281.442 115V65H294.742V70.3C300.342 66.9667 305.676 64.8 310.742 63.8V77.3C305.342 78.4333 300.709 79.6 296.842 80.8L294.842 81.5V115H281.442ZM321.349 70.7C324.883 66.1 330.783 63.8 339.049 63.8C347.316 63.8 353.216 66.1 356.749 70.7C360.283 75.2333 362.049 81.6333 362.049 89.9C362.049 107.433 354.383 116.2 339.049 116.2C323.716 116.2 316.049 107.433 316.049 89.9C316.049 81.6333 317.816 75.2333 321.349 70.7ZM331.649 101.2C333.049 103.6 335.516 104.8 339.049 104.8C342.583 104.8 345.016 103.6 346.349 101.2C347.749 98.8 348.449 95.0333 348.449 89.9C348.449 84.7667 347.749 81.0333 346.349 78.7C345.016 76.3667 342.583 75.2 339.049 75.2C335.516 75.2 333.049 76.3667 331.649 78.7C330.316 81.0333 329.649 84.7667 329.649 89.9C329.649 95.0333 330.316 98.8 331.649 101.2ZM368.072 65H381.272L387.372 103.6H389.772L397.372 66H411.172L418.772 103.6H421.172L427.272 65H440.472L430.972 115H409.972L404.272 84.4L398.572 115H377.572L368.072 65Z" fill="#29A6FD" fill-opacity="0.2"/>
<path d="M3.3 59.2H2.3V60.2H3.3V59.2ZM3.3 47V46H2.3V47H3.3ZM53.3 47H54.3V46H53.3V47ZM53.3 59.2V60.2H54.3V59.2H53.3ZM35.3 59.2V58.2H34.3V59.2H35.3ZM35.3 115V116H36.3V115H35.3ZM21.5 115H20.5V116H21.5V115ZM21.5 59.2H22.5V58.2H21.5V59.2ZM4.3 59.2V47H2.3V59.2H4.3ZM3.3 48H53.3V46H3.3V48ZM52.3 47V59.2H54.3V47H52.3ZM53.3 58.2H35.3V60.2H53.3V58.2ZM34.3 59.2V115H36.3V59.2H34.3ZM35.3 114H21.5V116H35.3V114ZM22.5 115V59.2H20.5V115H22.5ZM21.5 58.2H3.3V60.2H21.5V58.2ZM56.6031 70.7L57.3919 71.3148L57.3962 71.3092L56.6031 70.7ZM92.0031 70.7L91.2101 71.3092L91.2144 71.3147L92.0031 70.7ZM66.9031 101.2L66.029 101.686L66.0341 101.695L66.0393 101.704L66.9031 101.2ZM81.6031 101.2L80.7393 100.696L80.7341 100.705L80.729 100.714L81.6031 101.2ZM81.6031 78.7L80.7349 79.1961L80.7402 79.2054L80.7456 79.2145L81.6031 78.7ZM66.9031 78.7L66.0456 78.1855L66.0402 78.1946L66.0349 78.2039L66.9031 78.7ZM57.3962 71.3092C60.6691 67.0482 66.208 64.8 74.3031 64.8V62.8C65.8649 62.8 59.6038 65.1518 55.8101 70.0908L57.3962 71.3092ZM74.3031 64.8C82.3982 64.8 87.9371 67.0482 91.2101 71.3092L92.7962 70.0908C89.0024 65.1518 82.7413 62.8 74.3031 62.8V64.8ZM91.2144 71.3147C94.5622 75.61 96.3031 81.7613 96.3031 89.9H98.3031C98.3031 81.5053 96.5107 74.8567 92.7919 70.0853L91.2144 71.3147ZM96.3031 89.9C96.3031 98.543 94.4106 104.838 90.8004 108.967C87.2125 113.069 81.7782 115.2 74.3031 115.2V117.2C82.1614 117.2 88.227 114.947 92.3059 110.283C96.3623 105.645 98.3031 98.7903 98.3031 89.9H96.3031ZM74.3031 115.2C66.8281 115.2 61.3937 113.069 57.8059 108.967C54.1956 104.838 52.3031 98.543 52.3031 89.9H50.3031C50.3031 98.7903 52.2439 105.645 56.3004 110.283C60.3792 114.947 66.4449 117.2 74.3031 117.2V115.2ZM52.3031 89.9C52.3031 81.7613 54.0441 75.61 57.3919 71.3147L55.8144 70.0853C52.0955 74.8567 50.3031 81.5053 50.3031 89.9H52.3031ZM66.0393 101.704C67.6685 104.497 70.5258 105.8 74.3031 105.8V103.8C71.0138 103.8 68.9378 102.703 67.7669 100.696L66.0393 101.704ZM74.3031 105.8C78.0786 105.8 80.9157 104.496 82.4773 101.686L80.729 100.714C79.6239 102.704 77.5943 103.8 74.3031 103.8V105.8ZM82.4669 101.704C84.0036 99.0695 84.7031 95.0831 84.7031 89.9H82.7031C82.7031 94.9835 82.0026 98.5305 80.7393 100.696L82.4669 101.704ZM84.7031 89.9C84.7031 84.7207 84.005 80.7594 82.4606 78.1855L80.7456 79.2145C82.0013 81.3073 82.7031 84.8127 82.7031 89.9H84.7031ZM82.4714 78.2039C80.9039 75.4608 78.0658 74.2 74.3031 74.2V76.2C77.6071 76.2 79.6357 77.2725 80.7349 79.1961L82.4714 78.2039ZM74.3031 74.2C70.5382 74.2 67.6804 75.4609 66.0456 78.1855L67.7606 79.2145C68.9258 77.2725 71.0014 76.2 74.3031 76.2V74.2ZM66.0349 78.2039C64.5674 80.772 63.9031 84.7246 63.9031 89.9H65.9031C65.9031 84.8087 66.5722 81.2947 67.7714 79.1961L66.0349 78.2039ZM63.9031 89.9C63.9031 95.0791 64.5687 99.0571 66.029 101.686L67.7773 100.714C66.5709 98.5429 65.9031 94.9875 65.9031 89.9H63.9031ZM120.526 115V116H121.526V115H120.526ZM107.126 115H106.126V116H107.126V115ZM107.126 65V64H106.126V65H107.126ZM120.426 65H121.426V64H120.426V65ZM120.426 67.8H119.426V69.5356L120.927 68.6651L120.426 67.8ZM144.726 68.5L143.996 69.1834L144.51 69.733L145.181 69.3905L144.726 68.5ZM175.226 69.6L174.389 70.148L174.395 70.1564L174.4 70.1647L175.226 69.6ZM179.126 115V116H180.126V115H179.126ZM165.726 115H164.726V116H165.726V115ZM164.326 78.9L163.414 79.3116L163.42 79.3229L164.326 78.9ZM150.926 77.2L150.635 76.2433L150.622 76.2472L150.61 76.2513L150.926 77.2ZM149.426 77.7L149.11 76.7513L148.387 76.9923L148.427 77.7533L149.426 77.7ZM149.826 115V116H150.826V115H149.826ZM136.426 115H135.426V116H136.426V115ZM135.126 78.9L134.204 79.2868L134.208 79.2976L135.126 78.9ZM121.726 77.2L122.042 78.1487L122.057 78.1437L122.071 78.1383L121.726 77.2ZM120.526 77.6L120.21 76.6513L119.526 76.8792V77.6H120.526ZM120.526 114H107.126V116H120.526V114ZM108.126 115V65H106.126V115H108.126ZM107.126 66H120.426V64H107.126V66ZM119.426 65V67.8H121.426V65H119.426ZM120.927 68.6651C125.461 66.0371 129.213 64.8 132.226 64.8V62.8C128.705 62.8 124.591 64.2295 119.924 66.9349L120.927 68.6651ZM132.226 64.8C137.425 64.8 141.298 66.3016 143.996 69.1834L145.456 67.8166C142.287 64.4317 137.826 62.8 132.226 62.8V64.8ZM145.181 69.3905C151.221 66.3046 156.664 64.8 161.526 64.8V62.8C156.255 62.8 150.497 64.4288 144.271 67.6095L145.181 69.3905ZM161.526 64.8C167.945 64.8 172.113 66.673 174.389 70.148L176.062 69.052C173.272 64.7937 168.307 62.8 161.526 62.8V64.8ZM174.4 70.1647C176.826 73.7099 178.126 79.5577 178.126 87.9H180.126C180.126 79.4423 178.825 73.0901 176.051 69.0353L174.4 70.1647ZM178.126 87.9V115H180.126V87.9H178.126ZM179.126 114H165.726V116H179.126V114ZM166.726 115V88.3H164.726V115H166.726ZM166.726 88.3C166.726 83.9986 166.261 80.6828 165.232 78.4771L163.42 79.3229C164.257 81.1172 164.726 84.068 164.726 88.3H166.726ZM165.237 78.4884C164.688 77.2718 163.844 76.3279 162.71 75.7001C161.589 75.0797 160.244 74.8 158.726 74.8V76.8C160.008 76.8 160.996 77.037 161.741 77.4499C162.474 77.8554 163.031 78.4615 163.414 79.3116L165.237 78.4884ZM158.726 74.8C156.458 74.8 153.753 75.2942 150.635 76.2433L151.217 78.1567C154.232 77.2392 156.727 76.8 158.726 76.8V74.8ZM150.61 76.2513L149.11 76.7513L149.742 78.6487L151.242 78.1487L150.61 76.2513ZM148.427 77.7533C148.694 82.7485 148.826 86.5272 148.826 89.1H150.826C150.826 86.4728 150.691 82.6515 150.424 77.6467L148.427 77.7533ZM148.826 89.1V115H150.826V89.1H148.826ZM149.826 114H136.426V116H149.826V114ZM137.426 115V89.3H135.426V115H137.426ZM137.426 89.3C137.426 84.3599 136.999 80.7085 136.043 78.5024L134.208 79.2976C134.986 81.0915 135.426 84.3734 135.426 89.3H137.426ZM136.048 78.5133C135.53 77.2785 134.686 76.326 133.529 75.6965C132.389 75.0768 131.002 74.8 129.426 74.8V76.8C130.782 76.8 131.813 77.0399 132.573 77.4535C133.316 77.8573 133.855 78.4549 134.204 79.2867L136.048 78.5133ZM129.426 74.8C126.703 74.8 124.02 75.2891 121.38 76.2617L122.071 78.1383C124.498 77.2442 126.948 76.8 129.426 76.8V74.8ZM121.41 76.2513L120.21 76.6513L120.842 78.5487L122.042 78.1487L121.41 76.2513ZM119.526 77.6V115H121.526V77.6H119.526ZM193.712 70.7L194.501 71.3148L194.506 71.3092L193.712 70.7ZM229.113 70.7L228.319 71.3092L228.324 71.3147L229.113 70.7ZM204.012 101.2L203.138 101.686L203.143 101.695L203.149 101.704L204.012 101.2ZM218.713 101.2L217.849 100.696L217.843 100.705L217.838 100.714L218.713 101.2ZM218.713 78.7L217.844 79.1961L217.85 79.2054L217.855 79.2145L218.713 78.7ZM204.012 78.7L203.155 78.1855L203.15 78.1946L203.144 78.2039L204.012 78.7ZM194.506 71.3092C197.778 67.0482 203.317 64.8 211.413 64.8V62.8C202.974 62.8 196.713 65.1518 192.919 70.0908L194.506 71.3092ZM211.413 64.8C219.508 64.8 225.047 67.0482 228.319 71.3092L229.906 70.0908C226.112 65.1518 219.851 62.8 211.413 62.8V64.8ZM228.324 71.3147C231.672 75.61 233.413 81.7613 233.413 89.9H235.413C235.413 81.5053 233.62 74.8567 229.901 70.0853L228.324 71.3147ZM233.413 89.9C233.413 98.543 231.52 104.838 227.91 108.967C224.322 113.069 218.888 115.2 211.413 115.2V117.2C219.271 117.2 225.336 114.947 229.415 110.283C233.472 105.645 235.413 98.7903 235.413 89.9H233.413ZM211.413 115.2C203.937 115.2 198.503 113.069 194.915 108.967C191.305 104.838 189.413 98.543 189.413 89.9H187.413C187.413 98.7903 189.353 105.645 193.41 110.283C197.489 114.947 203.554 117.2 211.413 117.2V115.2ZM189.413 89.9C189.413 81.7613 191.153 75.61 194.501 71.3147L192.924 70.0853C189.205 74.8567 187.413 81.5053 187.413 89.9H189.413ZM203.149 101.704C204.778 104.497 207.635 105.8 211.413 105.8V103.8C208.123 103.8 206.047 102.703 204.876 100.696L203.149 101.704ZM211.413 105.8C215.188 105.8 218.025 104.496 219.587 101.686L217.838 100.714C216.733 102.704 214.704 103.8 211.413 103.8V105.8ZM219.576 101.704C221.113 99.0695 221.812 95.0831 221.812 89.9H219.812C219.812 94.9835 219.112 98.5305 217.849 100.696L219.576 101.704ZM221.812 89.9C221.812 84.7207 221.114 80.7594 219.57 78.1855L217.855 79.2145C219.111 81.3073 219.812 84.8127 219.812 89.9H221.812ZM219.581 78.2039C218.013 75.4608 215.175 74.2 211.413 74.2V76.2C214.716 76.2 216.745 77.2725 217.844 79.1961L219.581 78.2039ZM211.413 74.2C207.648 74.2 204.79 75.4609 203.155 78.1855L204.87 79.2145C206.035 77.2725 208.111 76.2 211.413 76.2V74.2ZM203.144 78.2039C201.677 80.772 201.012 84.7246 201.012 89.9H203.012C203.012 84.8087 203.682 81.2947 204.881 79.1961L203.144 78.2039ZM201.012 89.9C201.012 95.0791 201.678 99.0571 203.138 101.686L204.887 100.714C203.68 98.5429 203.012 94.9875 203.012 89.9H201.012ZM244.235 115H243.235V116H244.235V115ZM244.235 65V64H243.235V65H244.235ZM257.535 65H258.535V64H257.535V65ZM257.535 70.3H256.535V72.059L258.047 71.1593L257.535 70.3ZM273.535 63.8H274.535V62.5833L273.342 62.8189L273.535 63.8ZM273.535 77.3L273.741 78.2787L274.535 78.1119V77.3H273.535ZM259.635 80.8L259.339 79.8449L259.322 79.8502L259.305 79.8561L259.635 80.8ZM257.635 81.5L257.305 80.5561L256.635 80.7905V81.5H257.635ZM257.635 115V116H258.635V115H257.635ZM245.235 115V65H243.235V115H245.235ZM244.235 66H257.535V64H244.235V66ZM256.535 65V70.3H258.535V65H256.535ZM258.047 71.1593C263.573 67.8698 268.799 65.754 273.729 64.7811L273.342 62.8189C268.138 63.846 262.697 66.0636 257.024 69.4407L258.047 71.1593ZM272.535 63.8V77.3H274.535V63.8H272.535ZM273.33 76.3213C267.909 77.459 263.244 78.633 259.339 79.8449L259.932 81.7551C263.76 80.567 268.361 79.4077 273.741 78.2787L273.33 76.3213ZM259.305 79.8561L257.305 80.5561L257.966 82.4439L259.966 81.7439L259.305 79.8561ZM256.635 81.5V115H258.635V81.5H256.635ZM257.635 114H244.235V116H257.635V114ZM281.442 115H280.442V116H281.442V115ZM281.442 65V64H280.442V65H281.442ZM294.742 65H295.742V64H294.742V65ZM294.742 70.3H293.742V72.059L295.254 71.1593L294.742 70.3ZM310.742 63.8H311.742V62.5833L310.549 62.8189L310.742 63.8ZM310.742 77.3L310.948 78.2787L311.742 78.1119V77.3H310.742ZM296.842 80.8L296.546 79.8449L296.529 79.8502L296.512 79.8561L296.842 80.8ZM294.842 81.5L294.512 80.5561L293.842 80.7905V81.5H294.842ZM294.842 115V116H295.842V115H294.842ZM282.442 115V65H280.442V115H282.442ZM281.442 66H294.742V64H281.442V66ZM293.742 65V70.3H295.742V65H293.742ZM295.254 71.1593C300.78 67.8698 306.006 65.754 310.936 64.7811L310.549 62.8189C305.345 63.846 299.904 66.0636 294.231 69.4407L295.254 71.1593ZM309.742 63.8V77.3H311.742V63.8H309.742ZM310.537 76.3213C305.116 77.459 300.451 78.633 296.546 79.8449L297.139 81.7551C300.967 80.567 305.568 79.4077 310.948 78.2787L310.537 76.3213ZM296.512 79.8561L294.512 80.5561L295.173 82.4439L297.173 81.7439L296.512 79.8561ZM293.842 81.5V115H295.842V81.5H293.842ZM294.842 114H281.442V116H294.842V114ZM321.349 70.7L322.138 71.3148L322.142 71.3092L321.349 70.7ZM356.749 70.7L355.956 71.3092L355.96 71.3147L356.749 70.7ZM331.649 101.2L330.775 101.686L330.78 101.695L330.785 101.704L331.649 101.2ZM346.349 101.2L345.485 100.696L345.48 100.705L345.475 100.714L346.349 101.2ZM346.349 78.7L345.481 79.1961L345.486 79.2054L345.492 79.2145L346.349 78.7ZM331.649 78.7L330.792 78.1855L330.786 78.1946L330.781 78.2039L331.649 78.7ZM322.142 71.3092C325.415 67.0482 330.954 64.8 339.049 64.8V62.8C330.611 62.8 324.35 65.1518 320.556 70.0908L322.142 71.3092ZM339.049 64.8C347.144 64.8 352.683 67.0482 355.956 71.3092L357.542 70.0908C353.749 65.1518 347.487 62.8 339.049 62.8V64.8ZM355.96 71.3147C359.308 75.61 361.049 81.7613 361.049 89.9H363.049C363.049 81.5053 361.257 74.8567 357.538 70.0853L355.96 71.3147ZM361.049 89.9C361.049 98.543 359.157 104.838 355.546 108.967C351.959 113.069 346.524 115.2 339.049 115.2V117.2C346.908 117.2 352.973 114.947 357.052 110.283C361.108 105.645 363.049 98.7903 363.049 89.9H361.049ZM339.049 115.2C331.574 115.2 326.14 113.069 322.552 108.967C318.942 104.838 317.049 98.543 317.049 89.9H315.049C315.049 98.7903 316.99 105.645 321.046 110.283C325.125 114.947 331.191 117.2 339.049 117.2V115.2ZM317.049 89.9C317.049 81.7613 318.79 75.61 322.138 71.3147L320.56 70.0853C316.842 74.8567 315.049 81.5053 315.049 89.9H317.049ZM330.785 101.704C332.415 104.497 335.272 105.8 339.049 105.8V103.8C335.76 103.8 333.684 102.703 332.513 100.696L330.785 101.704ZM339.049 105.8C342.825 105.8 345.662 104.496 347.223 101.686L345.475 100.714C344.37 102.704 342.34 103.8 339.049 103.8V105.8ZM347.213 101.704C348.75 99.0695 349.449 95.0831 349.449 89.9H347.449C347.449 94.9835 346.749 98.5305 345.485 100.696L347.213 101.704ZM349.449 89.9C349.449 84.7207 348.751 80.7594 347.207 78.1855L345.492 79.2145C346.747 81.3073 347.449 84.8127 347.449 89.9H349.449ZM347.217 78.2039C345.65 75.4608 342.812 74.2 339.049 74.2V76.2C342.353 76.2 344.382 77.2725 345.481 79.1961L347.217 78.2039ZM339.049 74.2C335.284 74.2 332.427 75.4609 330.792 78.1855L332.507 79.2145C333.672 77.2725 335.747 76.2 339.049 76.2V74.2ZM330.781 78.2039C329.314 80.772 328.649 84.7246 328.649 89.9H330.649C330.649 84.8087 331.318 81.2947 332.517 79.1961L330.781 78.2039ZM328.649 89.9C328.649 95.0791 329.315 99.0571 330.775 101.686L332.523 100.714C331.317 98.5429 330.649 94.9875 330.649 89.9H328.649ZM368.072 65V64H366.864L367.089 65.1867L368.072 65ZM381.272 65L382.26 64.8439L382.126 64H381.272V65ZM387.372 103.6L386.384 103.756L386.517 104.6H387.372V103.6ZM389.772 103.6V104.6H390.59L390.752 103.798L389.772 103.6ZM397.372 66V65H396.554L396.392 65.8019L397.372 66ZM411.172 66L412.152 65.8019L411.99 65H411.172V66ZM418.772 103.6L417.792 103.798L417.954 104.6H418.772V103.6ZM421.172 103.6V104.6H422.026L422.16 103.756L421.172 103.6ZM427.272 65V64H426.418L426.284 64.8439L427.272 65ZM440.472 65L441.454 65.1867L441.68 64H440.472V65ZM430.972 115V116H431.8L431.954 115.187L430.972 115ZM409.972 115L408.989 115.183L409.141 116H409.972V115ZM404.272 84.4L405.255 84.2169H403.289L404.272 84.4ZM398.572 115V116H399.403L399.555 115.183L398.572 115ZM377.572 115L376.589 115.187L376.744 116H377.572V115ZM368.072 66H381.272V64H368.072V66ZM380.284 65.1561L386.384 103.756L388.36 103.444L382.26 64.8439L380.284 65.1561ZM387.372 104.6H389.772V102.6H387.372V104.6ZM390.752 103.798L398.352 66.1981L396.392 65.8019L388.792 103.402L390.752 103.798ZM397.372 67H411.172V65H397.372V67ZM410.192 66.1981L417.792 103.798L419.752 103.402L412.152 65.8019L410.192 66.1981ZM418.772 104.6H421.172V102.6H418.772V104.6ZM422.16 103.756L428.26 65.1561L426.284 64.8439L420.184 103.444L422.16 103.756ZM427.272 66H440.472V64H427.272V66ZM439.489 64.8133L429.989 114.813L431.954 115.187L441.454 65.1867L439.489 64.8133ZM430.972 114H409.972V116H430.972V114ZM410.955 114.817L405.255 84.2169L403.289 84.5831L408.989 115.183L410.955 114.817ZM403.289 84.2169L397.589 114.817L399.555 115.183L405.255 84.5831L403.289 84.2169ZM398.572 114H377.572V116H398.572V114ZM378.554 114.813L369.054 64.8133L367.089 65.1867L376.589 115.187L378.554 114.813Z" fill="#29A6FD"/>
<path d="M1.3 57.2V45H51.3V57.2H33.3V113H19.5V57.2H1.3ZM54.6031 68.7C58.1365 64.1 64.0365 61.8 72.3031 61.8C80.5698 61.8 86.4698 64.1 90.0031 68.7C93.5365 73.2333 95.3031 79.6333 95.3031 87.9C95.3031 105.433 87.6365 114.2 72.3031 114.2C56.9698 114.2 49.3031 105.433 49.3031 87.9C49.3031 79.6333 51.0698 73.2333 54.6031 68.7ZM64.9031 99.2C66.3031 101.6 68.7698 102.8 72.3031 102.8C75.8365 102.8 78.2698 101.6 79.6031 99.2C81.0031 96.8 81.7031 93.0333 81.7031 87.9C81.7031 82.7667 81.0031 79.0333 79.6031 76.7C78.2698 74.3667 75.8365 73.2 72.3031 73.2C68.7698 73.2 66.3031 74.3667 64.9031 76.7C63.5698 79.0333 62.9031 82.7667 62.9031 87.9C62.9031 93.0333 63.5698 96.8 64.9031 99.2ZM118.526 113H105.126V63H118.426V65.8C123.026 63.1333 126.959 61.8 130.226 61.8C135.626 61.8 139.792 63.3667 142.726 66.5C148.859 63.3667 154.459 61.8 159.526 61.8C166.126 61.8 170.692 63.7333 173.226 67.6C175.826 71.4 177.126 77.5 177.126 85.9V113H163.726V86.3C163.726 82.0333 163.259 78.9 162.326 76.9C161.392 74.8333 159.526 73.8 156.726 73.8C154.592 73.8 151.992 74.2667 148.926 75.2L147.426 75.7C147.692 80.7 147.826 84.5 147.826 87.1V113H134.426V87.3C134.426 82.3667 133.992 78.9 133.126 76.9C132.259 74.8333 130.359 73.8 127.426 73.8C124.826 73.8 122.259 74.2667 119.726 75.2L118.526 75.6V113ZM191.713 68.7C195.246 64.1 201.146 61.8 209.413 61.8C217.679 61.8 223.579 64.1 227.113 68.7C230.646 73.2333 232.413 79.6333 232.413 87.9C232.413 105.433 224.746 114.2 209.413 114.2C194.079 114.2 186.413 105.433 186.413 87.9C186.413 79.6333 188.179 73.2333 191.713 68.7ZM202.013 99.2C203.413 101.6 205.879 102.8 209.413 102.8C212.946 102.8 215.379 101.6 216.713 99.2C218.113 96.8 218.813 93.0333 218.813 87.9C218.813 82.7667 218.113 79.0333 216.713 76.7C215.379 74.3667 212.946 73.2 209.413 73.2C205.879 73.2 203.413 74.3667 202.013 76.7C200.679 79.0333 200.013 82.7667 200.013 87.9C200.013 93.0333 200.679 96.8 202.013 99.2ZM242.235 113V63H255.535V68.3C261.135 64.9667 266.468 62.8 271.535 61.8V75.3C266.135 76.4333 261.502 77.6 257.635 78.8L255.635 79.5V113H242.235ZM279.442 113V63H292.742V68.3C298.342 64.9667 303.676 62.8 308.742 61.8V75.3C303.342 76.4333 298.709 77.6 294.842 78.8L292.842 79.5V113H279.442ZM319.349 68.7C322.883 64.1 328.783 61.8 337.049 61.8C345.316 61.8 351.216 64.1 354.749 68.7C358.283 73.2333 360.049 79.6333 360.049 87.9C360.049 105.433 352.383 114.2 337.049 114.2C321.716 114.2 314.049 105.433 314.049 87.9C314.049 79.6333 315.816 73.2333 319.349 68.7ZM329.649 99.2C331.049 101.6 333.516 102.8 337.049 102.8C340.583 102.8 343.016 101.6 344.349 99.2C345.749 96.8 346.449 93.0333 346.449 87.9C346.449 82.7667 345.749 79.0333 344.349 76.7C343.016 74.3667 340.583 73.2 337.049 73.2C333.516 73.2 331.049 74.3667 329.649 76.7C328.316 79.0333 327.649 82.7667 327.649 87.9C327.649 93.0333 328.316 96.8 329.649 99.2ZM366.072 63H379.272L385.372 101.6H387.772L395.372 64H409.172L416.772 101.6H419.172L425.272 63H438.472L428.972 113H407.972L402.272 82.4L396.572 113H375.572L366.072 63Z" fill="#29A6FD"/>
</svg>
