<svg width="50" height="50" viewBox="0 0 50 50" fill="none" xmlns="http://www.w3.org/2000/svg">
<path fill-rule="evenodd" clip-rule="evenodd" d="M45.732 30.5572C48.2196 36.5628 49.5 42.9996 49.5 49.5H36.9403C36.9403 29.0984 20.4016 12.5597 0 12.5597L-3.8147e-06 0C6.50043 0 12.9372 1.28035 18.9428 3.76796C24.9484 6.25557 30.4053 9.90171 35.0018 14.4982C39.5983 19.0947 43.2444 24.5516 45.732 30.5572Z" fill="#FCFE8F" fill-opacity="0.8"/>
<path fill-rule="evenodd" clip-rule="evenodd" d="M25.2549 39.039C26.6286 42.3556 27.3357 45.9102 27.3357 49.5L20.3998 49.5C20.3998 38.2335 11.2664 29.1001 -8.96454e-05 29.1001C-9.91821e-05 29.1001 -0.000108719 29.1001 -0.000118256 29.1001V22.1642C3.58967 22.1642 7.14431 22.8712 10.4608 24.245C13.7774 25.6188 16.7909 27.6323 19.3292 30.1707C21.8676 32.709 23.8811 35.7225 25.2549 39.039Z" fill="#FCFE8F" fill-opacity="0.8"/>
</svg>
